<?xml version="1.0" encoding="utf-8" standalone="no"?>
<!DOCTYPE svg PUBLIC "-//W3C//DTD SVG 1.1//EN"
  "http://www.w3.org/Graphics/SVG/1.1/DTD/svg11.dtd">
<svg xmlns:xlink="http://www.w3.org/1999/xlink" width="460.8pt" height="345.6pt" viewBox="0 0 460.8 345.6" xmlns="http://www.w3.org/2000/svg" version="1.1">
 <metadata>
  <rdf:RDF xmlns:dc="http://purl.org/dc/elements/1.1/" xmlns:cc="http://creativecommons.org/ns#" xmlns:rdf="http://www.w3.org/1999/02/22-rdf-syntax-ns#">
   <cc:Work>
    <dc:type rdf:resource="http://purl.org/dc/dcmitype/StillImage"/>
    <dc:date>2026-01-04T10:33:03.024756</dc:date>
    <dc:format>image/svg+xml</dc:format>
    <dc:creator>
     <cc:Agent>
      <dc:title>Matplotlib v3.9.4, https://matplotlib.org/</dc:title>
     </cc:Agent>
    </dc:creator>
   </cc:Work>
  </rdf:RDF>
 </metadata>
 <defs>
  <style type="text/css">*{stroke-linejoin: round; stroke-linecap: butt}</style>
 </defs>
 <g id="figure_1">
  <g id="patch_1">
   <path d="M 0 345.6 
L 460.8 345.6 
L 460.8 0 
L 0 0 
z
" style="fill: #ffffff"/>
  </g>
  <g id="axes_1">
   <g id="patch_2">
    <path d="M 57.6 307.584 
L 414.72 307.584 
L 414.72 41.472 
L 57.6 41.472 
z
" style="fill: #ffffff"/>
   </g>
   <g id="patch_3">
    <path d="M 73.832727 307.584 
L 82.850909 307.584 
L 82.850909 91.149616 
L 73.832727 91.149616 
z
" clip-path="url(#pcafdfbe4c7)" style="fill: #c0c0c0; stroke: #000000; stroke-linejoin: miter"/>
   </g>
   <g id="patch_4">
    <path d="M 164.014545 307.584 
L 173.032727 307.584 
L 173.032727 88.773969 
L 164.014545 88.773969 
z
" clip-path="url(#pcafdfbe4c7)" style="fill: #c0c0c0; stroke: #000000; stroke-linejoin: miter"/>
   </g>
   <g id="patch_5">
    <path d="M 254.196364 307.584 
L 263.214545 307.584 
L 263.214545 88.27851 
L 254.196364 88.27851 
z
" clip-path="url(#pcafdfbe4c7)" style="fill: #c0c0c0; stroke: #000000; stroke-linejoin: miter"/>
   </g>
   <g id="patch_6">
    <path d="M 344.378182 307.584 
L 353.396364 307.584 
L 353.396364 81.297494 
L 344.378182 81.297494 
z
" clip-path="url(#pcafdfbe4c7)" style="fill: #c0c0c0; stroke: #000000; stroke-linejoin: miter"/>
   </g>
   <g id="patch_7">
    <path d="M 82.850909 307.584 
L 91.869091 307.584 
L 91.869091 83.326268 
L 82.850909 83.326268 
z
" clip-path="url(#pcafdfbe4c7)" style="fill: #dda0dd; stroke: #000000; stroke-linejoin: miter"/>
   </g>
   <g id="patch_8">
    <path d="M 173.032727 307.584 
L 182.050909 307.584 
L 182.050909 81.008042 
L 173.032727 81.008042 
z
" clip-path="url(#pcafdfbe4c7)" style="fill: #dda0dd; stroke: #000000; stroke-linejoin: miter"/>
   </g>
   <g id="patch_9">
    <path d="M 263.214545 307.584 
L 272.232727 307.584 
L 272.232727 78.400363 
L 263.214545 78.400363 
z
" clip-path="url(#pcafdfbe4c7)" style="fill: #dda0dd; stroke: #000000; stroke-linejoin: miter"/>
   </g>
   <g id="patch_10">
    <path d="M 353.396364 307.584 
L 362.414545 307.584 
L 362.414545 75.764261 
L 353.396364 75.764261 
z
" clip-path="url(#pcafdfbe4c7)" style="fill: #dda0dd; stroke: #000000; stroke-linejoin: miter"/>
   </g>
   <g id="patch_11">
    <path d="M 91.869091 307.584 
L 100.887273 307.584 
L 100.887273 80.71885 
L 91.869091 80.71885 
z
" clip-path="url(#pcafdfbe4c7)" style="fill: #73c2fb; stroke: #000000; stroke-linejoin: miter"/>
   </g>
   <g id="patch_12">
    <path d="M 182.050909 307.584 
L 191.069091 307.584 
L 191.069091 78.950584 
L 182.050909 78.950584 
z
" clip-path="url(#pcafdfbe4c7)" style="fill: #73c2fb; stroke: #000000; stroke-linejoin: miter"/>
   </g>
   <g id="patch_13">
    <path d="M 272.232727 307.584 
L 281.250909 307.584 
L 281.250909 75.503233 
L 272.232727 75.503233 
z
" clip-path="url(#pcafdfbe4c7)" style="fill: #73c2fb; stroke: #000000; stroke-linejoin: miter"/>
   </g>
   <g id="patch_14">
    <path d="M 362.414545 307.584 
L 371.432727 307.584 
L 371.432727 70.606013 
L 362.414545 70.606013 
z
" clip-path="url(#pcafdfbe4c7)" style="fill: #73c2fb; stroke: #000000; stroke-linejoin: miter"/>
   </g>
   <g id="patch_15">
    <path d="M 100.887273 307.584 
L 109.905455 307.584 
L 109.905455 78.398277 
L 100.887273 78.398277 
z
" clip-path="url(#pcafdfbe4c7)" style="fill: #fdbcb4; stroke: #000000; stroke-linejoin: miter"/>
   </g>
   <g id="patch_16">
    <path d="M 191.069091 307.584 
L 200.087273 307.584 
L 200.087273 75.526702 
L 191.069091 75.526702 
z
" clip-path="url(#pcafdfbe4c7)" style="fill: #fdbcb4; stroke: #000000; stroke-linejoin: miter"/>
   </g>
   <g id="patch_17">
    <path d="M 281.250909 307.584 
L 290.269091 307.584 
L 290.269091 70.577328 
L 281.250909 70.577328 
z
" clip-path="url(#pcafdfbe4c7)" style="fill: #fdbcb4; stroke: #000000; stroke-linejoin: miter"/>
   </g>
   <g id="patch_18">
    <path d="M 371.432727 307.584 
L 380.450909 307.584 
L 380.450909 65.361972 
L 371.432727 65.361972 
z
" clip-path="url(#pcafdfbe4c7)" style="fill: #fdbcb4; stroke: #000000; stroke-linejoin: miter"/>
   </g>
   <g id="patch_19">
    <path d="M 109.905455 307.584 
L 118.923636 307.584 
L 118.923636 75.503233 
L 109.905455 75.503233 
z
" clip-path="url(#pcafdfbe4c7)" style="fill: #0095b6; stroke: #000000; stroke-linejoin: miter"/>
   </g>
   <g id="patch_20">
    <path d="M 200.087273 307.584 
L 209.105455 307.584 
L 209.105455 67.940965 
L 200.087273 67.940965 
z
" clip-path="url(#pcafdfbe4c7)" style="fill: #0095b6; stroke: #000000; stroke-linejoin: miter"/>
   </g>
   <g id="patch_21">
    <path d="M 290.269091 307.584 
L 299.287273 307.584 
L 299.287273 65.646782 
L 290.269091 65.646782 
z
" clip-path="url(#pcafdfbe4c7)" style="fill: #0095b6; stroke: #000000; stroke-linejoin: miter"/>
   </g>
   <g id="patch_22">
    <path d="M 380.450909 307.584 
L 389.469091 307.584 
L 389.469091 60.986287 
L 380.450909 60.986287 
z
" clip-path="url(#pcafdfbe4c7)" style="fill: #0095b6; stroke: #000000; stroke-linejoin: miter"/>
   </g>
   <g id="patch_23">
    <path d="M 118.923636 307.584 
L 127.941818 307.584 
L 127.941818 67.708882 
L 118.923636 67.708882 
z
" clip-path="url(#pcafdfbe4c7)" style="fill: #e3f988; stroke: #000000; stroke-linejoin: miter"/>
   </g>
   <g id="patch_24">
    <path d="M 209.105455 307.584 
L 218.123636 307.584 
L 218.123636 62.48831 
L 209.105455 62.48831 
z
" clip-path="url(#pcafdfbe4c7)" style="fill: #e3f988; stroke: #000000; stroke-linejoin: miter"/>
   </g>
   <g id="patch_25">
    <path d="M 299.287273 307.584 
L 308.305455 307.584 
L 308.305455 57.249745 
L 299.287273 57.249745 
z
" clip-path="url(#pcafdfbe4c7)" style="fill: #e3f988; stroke: #000000; stroke-linejoin: miter"/>
   </g>
   <g id="patch_26">
    <path d="M 389.469091 307.584 
L 398.487273 307.584 
L 398.487273 54.144 
L 389.469091 54.144 
z
" clip-path="url(#pcafdfbe4c7)" style="fill: #e3f988; stroke: #000000; stroke-linejoin: miter"/>
   </g>
   <g id="matplotlib.axis_1">
    <g id="xtick_1">
     <g id="line2d_1">
      <defs>
       <path id="m9e46c20339" d="M 0 0 
L 0 3.5 
" style="stroke: #000000; stroke-width: 0.8"/>
      </defs>
      <g>
       <use xlink:href="#m9e46c20339" x="123.432727" y="307.584" style="stroke: #000000; stroke-width: 0.8"/>
      </g>
     </g>
     <g id="text_1">
      <!-- 5 -->
      <g transform="translate(120.251477 322.182437) scale(0.1 -0.1)">
       <defs>
        <path id="DejaVuSans-35" d="M 691 4666 
L 3169 4666 
L 3169 4134 
L 1269 4134 
L 1269 2991 
Q 1406 3038 1543 3061 
Q 1681 3084 1819 3084 
Q 2600 3084 3056 2656 
Q 3513 2228 3513 1497 
Q 3513 744 3044 326 
Q 2575 -91 1722 -91 
Q 1428 -91 1123 -41 
Q 819 9 494 109 
L 494 744 
Q 775 591 1075 516 
Q 1375 441 1709 441 
Q 2250 441 2565 725 
Q 2881 1009 2881 1497 
Q 2881 1984 2565 2268 
Q 2250 2553 1709 2553 
Q 1456 2553 1204 2497 
Q 953 2441 691 2322 
L 691 4666 
z
" transform="scale(0.015625)"/>
       </defs>
       <use xlink:href="#DejaVuSans-35"/>
      </g>
     </g>
    </g>
    <g id="xtick_2">
     <g id="line2d_2">
      <g>
       <use xlink:href="#m9e46c20339" x="213.614545" y="307.584" style="stroke: #000000; stroke-width: 0.8"/>
      </g>
     </g>
     <g id="text_2">
      <!-- 10 -->
      <g transform="translate(207.252045 322.182437) scale(0.1 -0.1)">
       <defs>
        <path id="DejaVuSans-31" d="M 794 531 
L 1825 531 
L 1825 4091 
L 703 3866 
L 703 4441 
L 1819 4666 
L 2450 4666 
L 2450 531 
L 3481 531 
L 3481 0 
L 794 0 
L 794 531 
z
" transform="scale(0.015625)"/>
        <path id="DejaVuSans-30" d="M 2034 4250 
Q 1547 4250 1301 3770 
Q 1056 3291 1056 2328 
Q 1056 1369 1301 889 
Q 1547 409 2034 409 
Q 2525 409 2770 889 
Q 3016 1369 3016 2328 
Q 3016 3291 2770 3770 
Q 2525 4250 2034 4250 
z
M 2034 4750 
Q 2819 4750 3233 4129 
Q 3647 3509 3647 2328 
Q 3647 1150 3233 529 
Q 2819 -91 2034 -91 
Q 1250 -91 836 529 
Q 422 1150 422 2328 
Q 422 3509 836 4129 
Q 1250 4750 2034 4750 
z
" transform="scale(0.015625)"/>
       </defs>
       <use xlink:href="#DejaVuSans-31"/>
       <use xlink:href="#DejaVuSans-30" x="63.623047"/>
      </g>
     </g>
    </g>
    <g id="xtick_3">
     <g id="line2d_3">
      <g>
       <use xlink:href="#m9e46c20339" x="303.796364" y="307.584" style="stroke: #000000; stroke-width: 0.8"/>
      </g>
     </g>
     <g id="text_3">
      <!-- 15 -->
      <g transform="translate(297.433864 322.182437) scale(0.1 -0.1)">
       <use xlink:href="#DejaVuSans-31"/>
       <use xlink:href="#DejaVuSans-35" x="63.623047"/>
      </g>
     </g>
    </g>
    <g id="xtick_4">
     <g id="line2d_4">
      <g>
       <use xlink:href="#m9e46c20339" x="393.978182" y="307.584" style="stroke: #000000; stroke-width: 0.8"/>
      </g>
     </g>
     <g id="text_4">
      <!-- 20 -->
      <g transform="translate(387.615682 322.182437) scale(0.1 -0.1)">
       <defs>
        <path id="DejaVuSans-32" d="M 1228 531 
L 3431 531 
L 3431 0 
L 469 0 
L 469 531 
Q 828 903 1448 1529 
Q 2069 2156 2228 2338 
Q 2531 2678 2651 2914 
Q 2772 3150 2772 3378 
Q 2772 3750 2511 3984 
Q 2250 4219 1831 4219 
Q 1534 4219 1204 4116 
Q 875 4013 500 3803 
L 500 4441 
Q 881 4594 1212 4672 
Q 1544 4750 1819 4750 
Q 2544 4750 2975 4387 
Q 3406 4025 3406 3419 
Q 3406 3131 3298 2873 
Q 3191 2616 2906 2266 
Q 2828 2175 2409 1742 
Q 1991 1309 1228 531 
z
" transform="scale(0.015625)"/>
       </defs>
       <use xlink:href="#DejaVuSans-32"/>
       <use xlink:href="#DejaVuSans-30" x="63.623047"/>
      </g>
     </g>
    </g>
    <g id="text_5">
     <!-- Feature dimension -->
     <g transform="translate(172.960312 337.38025) scale(0.12 -0.12)">
      <defs>
       <path id="DejaVuSans-Bold-46" d="M 588 4666 
L 3834 4666 
L 3834 3756 
L 1791 3756 
L 1791 2888 
L 3713 2888 
L 3713 1978 
L 1791 1978 
L 1791 0 
L 588 0 
L 588 4666 
z
" transform="scale(0.015625)"/>
       <path id="DejaVuSans-Bold-65" d="M 4031 1759 
L 4031 1441 
L 1416 1441 
Q 1456 1047 1700 850 
Q 1944 653 2381 653 
Q 2734 653 3104 758 
Q 3475 863 3866 1075 
L 3866 213 
Q 3469 63 3072 -14 
Q 2675 -91 2278 -91 
Q 1328 -91 801 392 
Q 275 875 275 1747 
Q 275 2603 792 3093 
Q 1309 3584 2216 3584 
Q 3041 3584 3536 3087 
Q 4031 2591 4031 1759 
z
M 2881 2131 
Q 2881 2450 2695 2645 
Q 2509 2841 2209 2841 
Q 1884 2841 1681 2658 
Q 1478 2475 1428 2131 
L 2881 2131 
z
" transform="scale(0.015625)"/>
       <path id="DejaVuSans-Bold-61" d="M 2106 1575 
Q 1756 1575 1579 1456 
Q 1403 1338 1403 1106 
Q 1403 894 1545 773 
Q 1688 653 1941 653 
Q 2256 653 2472 879 
Q 2688 1106 2688 1447 
L 2688 1575 
L 2106 1575 
z
M 3816 1997 
L 3816 0 
L 2688 0 
L 2688 519 
Q 2463 200 2181 54 
Q 1900 -91 1497 -91 
Q 953 -91 614 226 
Q 275 544 275 1050 
Q 275 1666 698 1953 
Q 1122 2241 2028 2241 
L 2688 2241 
L 2688 2328 
Q 2688 2594 2478 2717 
Q 2269 2841 1825 2841 
Q 1466 2841 1156 2769 
Q 847 2697 581 2553 
L 581 3406 
Q 941 3494 1303 3539 
Q 1666 3584 2028 3584 
Q 2975 3584 3395 3211 
Q 3816 2838 3816 1997 
z
" transform="scale(0.015625)"/>
       <path id="DejaVuSans-Bold-74" d="M 1759 4494 
L 1759 3500 
L 2913 3500 
L 2913 2700 
L 1759 2700 
L 1759 1216 
Q 1759 972 1856 886 
Q 1953 800 2241 800 
L 2816 800 
L 2816 0 
L 1856 0 
Q 1194 0 917 276 
Q 641 553 641 1216 
L 641 2700 
L 84 2700 
L 84 3500 
L 641 3500 
L 641 4494 
L 1759 4494 
z
" transform="scale(0.015625)"/>
       <path id="DejaVuSans-Bold-75" d="M 500 1363 
L 500 3500 
L 1625 3500 
L 1625 3150 
Q 1625 2866 1622 2436 
Q 1619 2006 1619 1863 
Q 1619 1441 1641 1255 
Q 1663 1069 1716 984 
Q 1784 875 1895 815 
Q 2006 756 2150 756 
Q 2500 756 2700 1025 
Q 2900 1294 2900 1772 
L 2900 3500 
L 4019 3500 
L 4019 0 
L 2900 0 
L 2900 506 
Q 2647 200 2364 54 
Q 2081 -91 1741 -91 
Q 1134 -91 817 281 
Q 500 653 500 1363 
z
" transform="scale(0.015625)"/>
       <path id="DejaVuSans-Bold-72" d="M 3138 2547 
Q 2991 2616 2845 2648 
Q 2700 2681 2553 2681 
Q 2122 2681 1889 2404 
Q 1656 2128 1656 1613 
L 1656 0 
L 538 0 
L 538 3500 
L 1656 3500 
L 1656 2925 
Q 1872 3269 2151 3426 
Q 2431 3584 2822 3584 
Q 2878 3584 2943 3579 
Q 3009 3575 3134 3559 
L 3138 2547 
z
" transform="scale(0.015625)"/>
       <path id="DejaVuSans-Bold-20" transform="scale(0.015625)"/>
       <path id="DejaVuSans-Bold-64" d="M 2919 2988 
L 2919 4863 
L 4044 4863 
L 4044 0 
L 2919 0 
L 2919 506 
Q 2688 197 2409 53 
Q 2131 -91 1766 -91 
Q 1119 -91 703 423 
Q 288 938 288 1747 
Q 288 2556 703 3070 
Q 1119 3584 1766 3584 
Q 2128 3584 2408 3439 
Q 2688 3294 2919 2988 
z
M 2181 722 
Q 2541 722 2730 984 
Q 2919 1247 2919 1747 
Q 2919 2247 2730 2509 
Q 2541 2772 2181 2772 
Q 1825 2772 1636 2509 
Q 1447 2247 1447 1747 
Q 1447 1247 1636 984 
Q 1825 722 2181 722 
z
" transform="scale(0.015625)"/>
       <path id="DejaVuSans-Bold-69" d="M 538 3500 
L 1656 3500 
L 1656 0 
L 538 0 
L 538 3500 
z
M 538 4863 
L 1656 4863 
L 1656 3950 
L 538 3950 
L 538 4863 
z
" transform="scale(0.015625)"/>
       <path id="DejaVuSans-Bold-6d" d="M 3781 2919 
Q 3994 3244 4286 3414 
Q 4578 3584 4928 3584 
Q 5531 3584 5847 3212 
Q 6163 2841 6163 2131 
L 6163 0 
L 5038 0 
L 5038 1825 
Q 5041 1866 5042 1909 
Q 5044 1953 5044 2034 
Q 5044 2406 4934 2573 
Q 4825 2741 4581 2741 
Q 4263 2741 4089 2478 
Q 3916 2216 3909 1719 
L 3909 0 
L 2784 0 
L 2784 1825 
Q 2784 2406 2684 2573 
Q 2584 2741 2328 2741 
Q 2006 2741 1831 2477 
Q 1656 2213 1656 1722 
L 1656 0 
L 531 0 
L 531 3500 
L 1656 3500 
L 1656 2988 
Q 1863 3284 2130 3434 
Q 2397 3584 2719 3584 
Q 3081 3584 3359 3409 
Q 3638 3234 3781 2919 
z
" transform="scale(0.015625)"/>
       <path id="DejaVuSans-Bold-6e" d="M 4056 2131 
L 4056 0 
L 2931 0 
L 2931 347 
L 2931 1631 
Q 2931 2084 2911 2256 
Q 2891 2428 2841 2509 
Q 2775 2619 2662 2680 
Q 2550 2741 2406 2741 
Q 2056 2741 1856 2470 
Q 1656 2200 1656 1722 
L 1656 0 
L 538 0 
L 538 3500 
L 1656 3500 
L 1656 2988 
Q 1909 3294 2193 3439 
Q 2478 3584 2822 3584 
Q 3428 3584 3742 3212 
Q 4056 2841 4056 2131 
z
" transform="scale(0.015625)"/>
       <path id="DejaVuSans-Bold-73" d="M 3272 3391 
L 3272 2541 
Q 2913 2691 2578 2766 
Q 2244 2841 1947 2841 
Q 1628 2841 1473 2761 
Q 1319 2681 1319 2516 
Q 1319 2381 1436 2309 
Q 1553 2238 1856 2203 
L 2053 2175 
Q 2913 2066 3209 1816 
Q 3506 1566 3506 1031 
Q 3506 472 3093 190 
Q 2681 -91 1863 -91 
Q 1516 -91 1145 -36 
Q 775 19 384 128 
L 384 978 
Q 719 816 1070 734 
Q 1422 653 1784 653 
Q 2113 653 2278 743 
Q 2444 834 2444 1013 
Q 2444 1163 2330 1236 
Q 2216 1309 1875 1350 
L 1678 1375 
Q 931 1469 631 1722 
Q 331 1975 331 2491 
Q 331 3047 712 3315 
Q 1094 3584 1881 3584 
Q 2191 3584 2531 3537 
Q 2872 3491 3272 3391 
z
" transform="scale(0.015625)"/>
       <path id="DejaVuSans-Bold-6f" d="M 2203 2784 
Q 1831 2784 1636 2517 
Q 1441 2250 1441 1747 
Q 1441 1244 1636 976 
Q 1831 709 2203 709 
Q 2569 709 2762 976 
Q 2956 1244 2956 1747 
Q 2956 2250 2762 2517 
Q 2569 2784 2203 2784 
z
M 2203 3584 
Q 3106 3584 3614 3096 
Q 4122 2609 4122 1747 
Q 4122 884 3614 396 
Q 3106 -91 2203 -91 
Q 1297 -91 786 396 
Q 275 884 275 1747 
Q 275 2609 786 3096 
Q 1297 3584 2203 3584 
z
" transform="scale(0.015625)"/>
      </defs>
      <use xlink:href="#DejaVuSans-Bold-46"/>
      <use xlink:href="#DejaVuSans-Bold-65" x="64.310547"/>
      <use xlink:href="#DejaVuSans-Bold-61" x="132.132812"/>
      <use xlink:href="#DejaVuSans-Bold-74" x="199.613281"/>
      <use xlink:href="#DejaVuSans-Bold-75" x="247.416016"/>
      <use xlink:href="#DejaVuSans-Bold-72" x="318.607422"/>
      <use xlink:href="#DejaVuSans-Bold-65" x="367.923828"/>
      <use xlink:href="#DejaVuSans-Bold-20" x="435.746094"/>
      <use xlink:href="#DejaVuSans-Bold-64" x="470.560547"/>
      <use xlink:href="#DejaVuSans-Bold-69" x="542.142578"/>
      <use xlink:href="#DejaVuSans-Bold-6d" x="576.419922"/>
      <use xlink:href="#DejaVuSans-Bold-65" x="680.619141"/>
      <use xlink:href="#DejaVuSans-Bold-6e" x="748.441406"/>
      <use xlink:href="#DejaVuSans-Bold-73" x="819.632812"/>
      <use xlink:href="#DejaVuSans-Bold-69" x="879.154297"/>
      <use xlink:href="#DejaVuSans-Bold-6f" x="913.431641"/>
      <use xlink:href="#DejaVuSans-Bold-6e" x="982.132812"/>
     </g>
    </g>
   </g>
   <g id="matplotlib.axis_2">
    <g id="ytick_1">
     <g id="line2d_5">
      <defs>
       <path id="m89f3c9d874" d="M 0 0 
L -3.5 0 
" style="stroke: #000000; stroke-width: 0.8"/>
      </defs>
      <g>
       <use xlink:href="#m89f3c9d874" x="57.6" y="307.584" style="stroke: #000000; stroke-width: 0.8"/>
      </g>
     </g>
     <g id="text_6">
      <!-- 0 -->
      <g transform="translate(44.2375 311.383219) scale(0.1 -0.1)">
       <use xlink:href="#DejaVuSans-30"/>
      </g>
     </g>
    </g>
    <g id="ytick_2">
     <g id="line2d_6">
      <g>
       <use xlink:href="#m89f3c9d874" x="57.6" y="255.430433" style="stroke: #000000; stroke-width: 0.8"/>
      </g>
     </g>
     <g id="text_7">
      <!-- 20 -->
      <g transform="translate(37.875 259.229651) scale(0.1 -0.1)">
       <use xlink:href="#DejaVuSans-32"/>
       <use xlink:href="#DejaVuSans-30" x="63.623047"/>
      </g>
     </g>
    </g>
    <g id="ytick_3">
     <g id="line2d_7">
      <g>
       <use xlink:href="#m89f3c9d874" x="57.6" y="203.276865" style="stroke: #000000; stroke-width: 0.8"/>
      </g>
     </g>
     <g id="text_8">
      <!-- 40 -->
      <g transform="translate(37.875 207.076084) scale(0.1 -0.1)">
       <defs>
        <path id="DejaVuSans-34" d="M 2419 4116 
L 825 1625 
L 2419 1625 
L 2419 4116 
z
M 2253 4666 
L 3047 4666 
L 3047 1625 
L 3713 1625 
L 3713 1100 
L 3047 1100 
L 3047 0 
L 2419 0 
L 2419 1100 
L 313 1100 
L 313 1709 
L 2253 4666 
z
" transform="scale(0.015625)"/>
       </defs>
       <use xlink:href="#DejaVuSans-34"/>
       <use xlink:href="#DejaVuSans-30" x="63.623047"/>
      </g>
     </g>
    </g>
    <g id="ytick_4">
     <g id="line2d_8">
      <g>
       <use xlink:href="#m89f3c9d874" x="57.6" y="151.123298" style="stroke: #000000; stroke-width: 0.8"/>
      </g>
     </g>
     <g id="text_9">
      <!-- 60 -->
      <g transform="translate(37.875 154.922517) scale(0.1 -0.1)">
       <defs>
        <path id="DejaVuSans-36" d="M 2113 2584 
Q 1688 2584 1439 2293 
Q 1191 2003 1191 1497 
Q 1191 994 1439 701 
Q 1688 409 2113 409 
Q 2538 409 2786 701 
Q 3034 994 3034 1497 
Q 3034 2003 2786 2293 
Q 2538 2584 2113 2584 
z
M 3366 4563 
L 3366 3988 
Q 3128 4100 2886 4159 
Q 2644 4219 2406 4219 
Q 1781 4219 1451 3797 
Q 1122 3375 1075 2522 
Q 1259 2794 1537 2939 
Q 1816 3084 2150 3084 
Q 2853 3084 3261 2657 
Q 3669 2231 3669 1497 
Q 3669 778 3244 343 
Q 2819 -91 2113 -91 
Q 1303 -91 875 529 
Q 447 1150 447 2328 
Q 447 3434 972 4092 
Q 1497 4750 2381 4750 
Q 2619 4750 2861 4703 
Q 3103 4656 3366 4563 
z
" transform="scale(0.015625)"/>
       </defs>
       <use xlink:href="#DejaVuSans-36"/>
       <use xlink:href="#DejaVuSans-30" x="63.623047"/>
      </g>
     </g>
    </g>
    <g id="ytick_5">
     <g id="line2d_9">
      <g>
       <use xlink:href="#m89f3c9d874" x="57.6" y="98.96973" style="stroke: #000000; stroke-width: 0.8"/>
      </g>
     </g>
     <g id="text_10">
      <!-- 80 -->
      <g transform="translate(37.875 102.768949) scale(0.1 -0.1)">
       <defs>
        <path id="DejaVuSans-38" d="M 2034 2216 
Q 1584 2216 1326 1975 
Q 1069 1734 1069 1313 
Q 1069 891 1326 650 
Q 1584 409 2034 409 
Q 2484 409 2743 651 
Q 3003 894 3003 1313 
Q 3003 1734 2745 1975 
Q 2488 2216 2034 2216 
z
M 1403 2484 
Q 997 2584 770 2862 
Q 544 3141 544 3541 
Q 544 4100 942 4425 
Q 1341 4750 2034 4750 
Q 2731 4750 3128 4425 
Q 3525 4100 3525 3541 
Q 3525 3141 3298 2862 
Q 3072 2584 2669 2484 
Q 3125 2378 3379 2068 
Q 3634 1759 3634 1313 
Q 3634 634 3220 271 
Q 2806 -91 2034 -91 
Q 1263 -91 848 271 
Q 434 634 434 1313 
Q 434 1759 690 2068 
Q 947 2378 1403 2484 
z
M 1172 3481 
Q 1172 3119 1398 2916 
Q 1625 2713 2034 2713 
Q 2441 2713 2670 2916 
Q 2900 3119 2900 3481 
Q 2900 3844 2670 4047 
Q 2441 4250 2034 4250 
Q 1625 4250 1398 4047 
Q 1172 3844 1172 3481 
z
" transform="scale(0.015625)"/>
       </defs>
       <use xlink:href="#DejaVuSans-38"/>
       <use xlink:href="#DejaVuSans-30" x="63.623047"/>
      </g>
     </g>
    </g>
    <g id="ytick_6">
     <g id="line2d_10">
      <g>
       <use xlink:href="#m89f3c9d874" x="57.6" y="46.816163" style="stroke: #000000; stroke-width: 0.8"/>
      </g>
     </g>
     <g id="text_11">
      <!-- 100 -->
      <g transform="translate(31.5125 50.615382) scale(0.1 -0.1)">
       <use xlink:href="#DejaVuSans-31"/>
       <use xlink:href="#DejaVuSans-30" x="63.623047"/>
       <use xlink:href="#DejaVuSans-30" x="127.246094"/>
      </g>
     </g>
    </g>
    <g id="text_12">
     <!-- Accuracy(%) -->
     <g transform="translate(24.923125 216.528937) rotate(-90) scale(0.12 -0.12)">
      <defs>
       <path id="DejaVuSans-Bold-41" d="M 3419 850 
L 1538 850 
L 1241 0 
L 31 0 
L 1759 4666 
L 3194 4666 
L 4922 0 
L 3713 0 
L 3419 850 
z
M 1838 1716 
L 3116 1716 
L 2478 3572 
L 1838 1716 
z
" transform="scale(0.015625)"/>
       <path id="DejaVuSans-Bold-63" d="M 3366 3391 
L 3366 2478 
Q 3138 2634 2908 2709 
Q 2678 2784 2431 2784 
Q 1963 2784 1702 2511 
Q 1441 2238 1441 1747 
Q 1441 1256 1702 982 
Q 1963 709 2431 709 
Q 2694 709 2930 787 
Q 3166 866 3366 1019 
L 3366 103 
Q 3103 6 2833 -42 
Q 2563 -91 2291 -91 
Q 1344 -91 809 395 
Q 275 881 275 1747 
Q 275 2613 809 3098 
Q 1344 3584 2291 3584 
Q 2566 3584 2833 3536 
Q 3100 3488 3366 3391 
z
" transform="scale(0.015625)"/>
       <path id="DejaVuSans-Bold-79" d="M 78 3500 
L 1197 3500 
L 2138 1125 
L 2938 3500 
L 4056 3500 
L 2584 -331 
Q 2363 -916 2067 -1148 
Q 1772 -1381 1288 -1381 
L 641 -1381 
L 641 -647 
L 991 -647 
Q 1275 -647 1404 -556 
Q 1534 -466 1606 -231 
L 1638 -134 
L 78 3500 
z
" transform="scale(0.015625)"/>
       <path id="DejaVuSans-Bold-28" d="M 2413 -844 
L 1484 -844 
Q 1006 -72 778 623 
Q 550 1319 550 2003 
Q 550 2688 779 3389 
Q 1009 4091 1484 4856 
L 2413 4856 
Q 2013 4116 1813 3408 
Q 1613 2700 1613 2009 
Q 1613 1319 1811 609 
Q 2009 -100 2413 -844 
z
" transform="scale(0.015625)"/>
       <path id="DejaVuSans-Bold-25" d="M 4959 1925 
Q 4738 1925 4616 1733 
Q 4494 1541 4494 1184 
Q 4494 825 4614 633 
Q 4734 441 4959 441 
Q 5184 441 5303 633 
Q 5422 825 5422 1184 
Q 5422 1541 5301 1733 
Q 5181 1925 4959 1925 
z
M 4959 2450 
Q 5541 2450 5875 2112 
Q 6209 1775 6209 1184 
Q 6209 594 5875 251 
Q 5541 -91 4959 -91 
Q 4378 -91 4042 251 
Q 3706 594 3706 1184 
Q 3706 1772 4042 2111 
Q 4378 2450 4959 2450 
z
M 2094 -91 
L 1403 -91 
L 4319 4750 
L 5013 4750 
L 2094 -91 
z
M 1453 4750 
Q 2034 4750 2367 4411 
Q 2700 4072 2700 3481 
Q 2700 2891 2367 2550 
Q 2034 2209 1453 2209 
Q 872 2209 539 2550 
Q 206 2891 206 3481 
Q 206 4072 539 4411 
Q 872 4750 1453 4750 
z
M 1453 4225 
Q 1228 4225 1106 4031 
Q 984 3838 984 3481 
Q 984 3122 1106 2926 
Q 1228 2731 1453 2731 
Q 1678 2731 1798 2926 
Q 1919 3122 1919 3481 
Q 1919 3838 1797 4031 
Q 1675 4225 1453 4225 
z
" transform="scale(0.015625)"/>
       <path id="DejaVuSans-Bold-29" d="M 513 -844 
Q 913 -100 1113 609 
Q 1313 1319 1313 2009 
Q 1313 2700 1113 3408 
Q 913 4116 513 4856 
L 1441 4856 
Q 1916 4091 2145 3389 
Q 2375 2688 2375 2003 
Q 2375 1319 2147 623 
Q 1919 -72 1441 -844 
L 513 -844 
z
" transform="scale(0.015625)"/>
      </defs>
      <use xlink:href="#DejaVuSans-Bold-41"/>
      <use xlink:href="#DejaVuSans-Bold-63" x="77.392578"/>
      <use xlink:href="#DejaVuSans-Bold-63" x="136.669922"/>
      <use xlink:href="#DejaVuSans-Bold-75" x="195.947266"/>
      <use xlink:href="#DejaVuSans-Bold-72" x="267.138672"/>
      <use xlink:href="#DejaVuSans-Bold-61" x="316.455078"/>
      <use xlink:href="#DejaVuSans-Bold-63" x="383.935547"/>
      <use xlink:href="#DejaVuSans-Bold-79" x="443.212891"/>
      <use xlink:href="#DejaVuSans-Bold-28" x="508.398438"/>
      <use xlink:href="#DejaVuSans-Bold-25" x="554.101562"/>
      <use xlink:href="#DejaVuSans-Bold-29" x="654.296875"/>
     </g>
    </g>
   </g>
   <g id="patch_27">
    <path d="M 57.6 307.584 
L 57.6 41.472 
" style="fill: none; stroke: #000000; stroke-width: 0.8; stroke-linejoin: miter; stroke-linecap: square"/>
   </g>
   <g id="patch_28">
    <path d="M 414.72 307.584 
L 414.72 41.472 
" style="fill: none; stroke: #000000; stroke-width: 0.8; stroke-linejoin: miter; stroke-linecap: square"/>
   </g>
   <g id="patch_29">
    <path d="M 57.6 307.584 
L 414.72 307.584 
" style="fill: none; stroke: #000000; stroke-width: 0.8; stroke-linejoin: miter; stroke-linecap: square"/>
   </g>
   <g id="patch_30">
    <path d="M 57.6 41.472 
L 414.72 41.472 
" style="fill: none; stroke: #000000; stroke-width: 0.8; stroke-linejoin: miter; stroke-linecap: square"/>
   </g>
   <g id="legend_1">
    <g id="patch_31">
     <path d="M 31.6463 38.016268 
L 433.5313 38.016268 
Q 435.7313 38.016268 435.7313 35.816268 
L 435.7313 6.59408 
Q 435.7313 4.39408 433.5313 4.39408 
L 31.6463 4.39408 
Q 29.4463 4.39408 29.4463 6.59408 
L 29.4463 35.816268 
Q 29.4463 38.016268 31.6463 38.016268 
z
" style="fill: #ffffff; opacity: 0.8; stroke: #cccccc; stroke-linejoin: miter"/>
    </g>
    <g id="patch_32">
     <path d="M 33.8463 16.49408 
L 55.8463 16.49408 
L 55.8463 8.79408 
L 33.8463 8.79408 
z
" style="fill: #c0c0c0; stroke: #000000; stroke-linejoin: miter"/>
    </g>
    <g id="text_13">
     <!-- CybS-CC-SACGAN-COA -->
     <g transform="translate(64.6463 16.49408) scale(0.11 -0.11)">
      <defs>
       <path id="Calibri-Bold-43" d="M 3238 613 
Q 3238 534 3233 479 
Q 3228 425 3218 386 
Q 3209 347 3193 319 
Q 3178 291 3143 255 
Q 3109 219 3011 162 
Q 2913 106 2770 54 
Q 2628 3 2445 -31 
Q 2263 -66 2050 -66 
Q 1634 -66 1300 62 
Q 966 191 731 445 
Q 497 700 372 1081 
Q 247 1463 247 1969 
Q 247 2484 384 2884 
Q 522 3284 769 3556 
Q 1016 3828 1361 3968 
Q 1706 4109 2122 4109 
Q 2291 4109 2447 4081 
Q 2603 4053 2736 4008 
Q 2869 3963 2975 3903 
Q 3081 3844 3123 3801 
Q 3166 3759 3181 3731 
Q 3197 3703 3206 3659 
Q 3216 3616 3220 3556 
Q 3225 3497 3225 3409 
Q 3225 3316 3219 3250 
Q 3213 3184 3197 3143 
Q 3181 3103 3159 3084 
Q 3138 3066 3109 3066 
Q 3063 3066 2991 3120 
Q 2919 3175 2805 3242 
Q 2691 3309 2533 3364 
Q 2375 3419 2156 3419 
Q 1916 3419 1727 3320 
Q 1538 3222 1405 3039 
Q 1272 2856 1203 2597 
Q 1134 2338 1134 2013 
Q 1134 1656 1207 1395 
Q 1281 1134 1417 965 
Q 1553 797 1745 714 
Q 1938 631 2178 631 
Q 2397 631 2556 682 
Q 2716 734 2830 796 
Q 2944 859 3017 909 
Q 3091 959 3131 959 
Q 3163 959 3181 946 
Q 3200 934 3212 896 
Q 3225 859 3231 792 
Q 3238 725 3238 613 
z
" transform="scale(0.015625)"/>
       <path id="Calibri-Bold-79" d="M 2009 0 
L 1672 -988 
Q 1644 -1066 1519 -1100 
Q 1394 -1134 1153 -1134 
Q 1028 -1134 953 -1123 
Q 878 -1113 840 -1088 
Q 803 -1063 800 -1025 
Q 797 -988 819 -934 
L 1191 0 
Q 1150 19 1117 58 
Q 1084 97 1069 141 
L 109 2703 
Q 69 2813 69 2870 
Q 69 2928 106 2961 
Q 144 2994 233 3006 
Q 322 3019 469 3019 
Q 603 3019 681 3014 
Q 759 3009 803 2990 
Q 847 2972 869 2933 
Q 891 2894 913 2822 
L 1569 956 
L 1578 956 
L 2178 2859 
Q 2197 2941 2226 2967 
Q 2256 2994 2325 3006 
Q 2394 3019 2566 3019 
Q 2700 3019 2789 3006 
Q 2878 2994 2920 2959 
Q 2963 2925 2963 2867 
Q 2963 2809 2938 2731 
L 2009 0 
z
" transform="scale(0.015625)"/>
       <path id="Calibri-Bold-62" d="M 3200 1538 
Q 3200 1166 3119 869 
Q 3038 572 2884 362 
Q 2731 153 2507 40 
Q 2284 -72 2000 -72 
Q 1859 -72 1737 -45 
Q 1616 -19 1505 40 
Q 1394 100 1286 190 
Q 1178 281 1066 409 
L 1066 106 
Q 1066 72 1048 48 
Q 1031 25 992 9 
Q 953 -6 887 -12 
Q 822 -19 728 -19 
Q 631 -19 567 -12 
Q 503 -6 464 9 
Q 425 25 409 48 
Q 394 72 394 106 
L 394 4216 
Q 394 4247 412 4272 
Q 431 4297 476 4314 
Q 522 4331 597 4340 
Q 672 4350 788 4350 
Q 903 4350 978 4340 
Q 1053 4331 1098 4314 
Q 1144 4297 1162 4272 
Q 1181 4247 1181 4216 
L 1181 2675 
Q 1288 2781 1394 2856 
Q 1500 2931 1606 2979 
Q 1713 3028 1825 3050 
Q 1938 3072 2063 3072 
Q 2372 3072 2587 2948 
Q 2803 2825 2939 2615 
Q 3075 2406 3137 2126 
Q 3200 1847 3200 1538 
z
M 2384 1481 
Q 2384 1659 2357 1825 
Q 2331 1991 2265 2119 
Q 2200 2247 2095 2323 
Q 1991 2400 1831 2400 
Q 1753 2400 1678 2378 
Q 1603 2356 1523 2303 
Q 1444 2250 1359 2165 
Q 1275 2081 1181 1956 
L 1181 1031 
Q 1347 819 1498 708 
Q 1650 597 1816 597 
Q 1969 597 2075 675 
Q 2181 753 2251 878 
Q 2322 1003 2353 1162 
Q 2384 1322 2384 1481 
z
" transform="scale(0.015625)"/>
       <path id="Calibri-Bold-53" d="M 2838 1213 
Q 2838 894 2719 653 
Q 2600 413 2397 252 
Q 2194 91 1922 9 
Q 1650 -72 1341 -72 
Q 1131 -72 951 -37 
Q 772 -3 634 45 
Q 497 94 405 147 
Q 313 200 272 240 
Q 231 281 214 357 
Q 197 434 197 578 
Q 197 675 203 740 
Q 209 806 223 847 
Q 238 888 261 905 
Q 284 922 316 922 
Q 359 922 439 870 
Q 519 819 644 756 
Q 769 694 942 642 
Q 1116 591 1344 591 
Q 1494 591 1612 627 
Q 1731 663 1814 728 
Q 1897 794 1940 891 
Q 1984 988 1984 1106 
Q 1984 1244 1909 1342 
Q 1834 1441 1714 1517 
Q 1594 1594 1441 1661 
Q 1288 1728 1125 1803 
Q 963 1878 809 1973 
Q 656 2069 536 2201 
Q 416 2334 341 2515 
Q 266 2697 266 2950 
Q 266 3241 373 3461 
Q 481 3681 664 3826 
Q 847 3972 1095 4044 
Q 1344 4116 1622 4116 
Q 1766 4116 1909 4094 
Q 2053 4072 2178 4034 
Q 2303 3997 2400 3950 
Q 2497 3903 2528 3872 
Q 2559 3841 2570 3819 
Q 2581 3797 2589 3761 
Q 2597 3725 2600 3670 
Q 2603 3616 2603 3534 
Q 2603 3444 2598 3381 
Q 2594 3319 2583 3278 
Q 2572 3238 2551 3219 
Q 2531 3200 2497 3200 
Q 2463 3200 2388 3244 
Q 2313 3288 2203 3339 
Q 2094 3391 1950 3433 
Q 1806 3475 1634 3475 
Q 1500 3475 1400 3442 
Q 1300 3409 1233 3351 
Q 1166 3294 1133 3212 
Q 1100 3131 1100 3041 
Q 1100 2906 1173 2807 
Q 1247 2709 1370 2632 
Q 1494 2556 1650 2489 
Q 1806 2422 1968 2347 
Q 2131 2272 2287 2176 
Q 2444 2081 2566 1948 
Q 2688 1816 2763 1636 
Q 2838 1456 2838 1213 
z
" transform="scale(0.015625)"/>
       <path id="Calibri-Bold-2d" d="M 1775 1572 
Q 1775 1391 1740 1319 
Q 1706 1247 1631 1247 
L 331 1247 
Q 253 1247 218 1320 
Q 184 1394 184 1572 
Q 184 1747 218 1819 
Q 253 1891 331 1891 
L 1631 1891 
Q 1669 1891 1695 1875 
Q 1722 1859 1740 1821 
Q 1759 1784 1767 1721 
Q 1775 1659 1775 1572 
z
" transform="scale(0.015625)"/>
       <path id="Calibri-Bold-41" d="M 3753 306 
Q 3791 194 3800 128 
Q 3809 63 3775 30 
Q 3741 -3 3653 -11 
Q 3566 -19 3413 -19 
Q 3253 -19 3164 -14 
Q 3075 -9 3028 5 
Q 2981 19 2962 44 
Q 2944 69 2931 109 
L 2659 922 
L 1141 922 
L 884 131 
Q 872 88 851 58 
Q 831 28 786 11 
Q 741 -6 658 -12 
Q 575 -19 441 -19 
Q 297 -19 215 -9 
Q 134 0 103 36 
Q 72 72 81 137 
Q 91 203 128 313 
L 1375 3900 
Q 1394 3953 1419 3986 
Q 1444 4019 1498 4036 
Q 1553 4053 1650 4058 
Q 1747 4063 1906 4063 
Q 2091 4063 2200 4058 
Q 2309 4053 2370 4036 
Q 2431 4019 2457 3984 
Q 2484 3950 2503 3891 
L 3753 306 
z
M 1897 3272 
L 1894 3272 
L 1322 1553 
L 2469 1553 
L 1897 3272 
z
" transform="scale(0.015625)"/>
       <path id="Calibri-Bold-47" d="M 3684 3416 
Q 3684 3325 3676 3259 
Q 3669 3194 3655 3155 
Q 3641 3116 3620 3100 
Q 3600 3084 3572 3084 
Q 3531 3084 3440 3140 
Q 3350 3197 3200 3262 
Q 3050 3328 2842 3384 
Q 2634 3441 2359 3441 
Q 2066 3441 1828 3339 
Q 1591 3238 1422 3052 
Q 1253 2866 1162 2605 
Q 1072 2344 1072 2028 
Q 1072 1681 1164 1417 
Q 1256 1153 1422 975 
Q 1588 797 1820 706 
Q 2053 616 2334 616 
Q 2472 616 2606 647 
Q 2741 678 2856 741 
L 2856 1678 
L 2091 1678 
Q 2034 1678 2003 1748 
Q 1972 1819 1972 1988 
Q 1972 2075 1980 2134 
Q 1988 2194 2003 2230 
Q 2019 2266 2041 2283 
Q 2063 2300 2091 2300 
L 3456 2300 
Q 3506 2300 3545 2283 
Q 3584 2266 3614 2231 
Q 3644 2197 3659 2148 
Q 3675 2100 3675 2038 
L 3675 428 
Q 3675 334 3642 264 
Q 3609 194 3507 153 
Q 3406 113 3256 69 
Q 3106 25 2945 -6 
Q 2784 -38 2620 -53 
Q 2456 -69 2291 -69 
Q 1806 -69 1423 70 
Q 1041 209 775 473 
Q 509 738 368 1117 
Q 228 1497 228 1978 
Q 228 2475 378 2870 
Q 528 3266 803 3542 
Q 1078 3819 1467 3966 
Q 1856 4113 2334 4113 
Q 2597 4113 2812 4077 
Q 3028 4041 3189 3989 
Q 3350 3938 3456 3878 
Q 3563 3819 3605 3775 
Q 3647 3731 3665 3651 
Q 3684 3572 3684 3416 
z
" transform="scale(0.015625)"/>
       <path id="Calibri-Bold-4e" d="M 3775 288 
Q 3775 216 3750 159 
Q 3725 103 3683 65 
Q 3641 28 3583 11 
Q 3525 -6 3466 -6 
L 3116 -6 
Q 3006 -6 2926 16 
Q 2847 38 2780 95 
Q 2713 153 2650 251 
Q 2588 350 2509 506 
L 1503 2397 
Q 1416 2566 1325 2761 
Q 1234 2956 1163 3141 
L 1156 3141 
Q 1169 2916 1175 2692 
Q 1181 2469 1181 2231 
L 1181 116 
Q 1181 84 1164 59 
Q 1147 34 1105 17 
Q 1063 0 991 -9 
Q 919 -19 806 -19 
Q 697 -19 625 -9 
Q 553 0 512 17 
Q 472 34 456 59 
Q 441 84 441 116 
L 441 3750 
Q 441 3897 527 3970 
Q 613 4044 738 4044 
L 1178 4044 
Q 1297 4044 1378 4023 
Q 1459 4003 1523 3956 
Q 1588 3909 1644 3826 
Q 1700 3744 1759 3622 
L 2547 2144 
Q 2616 2009 2683 1879 
Q 2750 1750 2812 1620 
Q 2875 1491 2934 1366 
Q 2994 1241 3050 1116 
L 3053 1116 
Q 3044 1334 3039 1571 
Q 3034 1809 3034 2025 
L 3034 3922 
Q 3034 3953 3053 3978 
Q 3072 4003 3115 4022 
Q 3159 4041 3231 4048 
Q 3303 4056 3416 4056 
Q 3522 4056 3594 4048 
Q 3666 4041 3705 4022 
Q 3744 4003 3759 3978 
Q 3775 3953 3775 3922 
L 3775 288 
z
" transform="scale(0.015625)"/>
       <path id="Calibri-Bold-4f" d="M 4078 2069 
Q 4078 1566 3953 1169 
Q 3828 772 3581 495 
Q 3334 219 2970 73 
Q 2606 -72 2128 -72 
Q 1656 -72 1304 51 
Q 953 175 718 428 
Q 484 681 367 1072 
Q 250 1463 250 1997 
Q 250 2488 375 2880 
Q 500 3272 747 3547 
Q 994 3822 1358 3969 
Q 1722 4116 2203 4116 
Q 2663 4116 3014 3994 
Q 3366 3872 3602 3619 
Q 3838 3366 3958 2980 
Q 4078 2594 4078 2069 
z
M 3216 2025 
Q 3216 2344 3166 2605 
Q 3116 2866 2995 3052 
Q 2875 3238 2675 3339 
Q 2475 3441 2175 3441 
Q 1872 3441 1669 3327 
Q 1466 3213 1341 3022 
Q 1216 2831 1164 2576 
Q 1113 2322 1113 2038 
Q 1113 1706 1163 1442 
Q 1213 1178 1331 990 
Q 1450 803 1650 704 
Q 1850 606 2153 606 
Q 2456 606 2659 718 
Q 2863 831 2988 1025 
Q 3113 1219 3164 1476 
Q 3216 1734 3216 2025 
z
" transform="scale(0.015625)"/>
      </defs>
      <use xlink:href="#Calibri-Bold-43"/>
      <use xlink:href="#Calibri-Bold-79" x="52.929688"/>
      <use xlink:href="#Calibri-Bold-62" x="100.292969"/>
      <use xlink:href="#Calibri-Bold-53" x="153.955078"/>
      <use xlink:href="#Calibri-Bold-2d" x="201.220703"/>
      <use xlink:href="#Calibri-Bold-43" x="231.835938"/>
      <use xlink:href="#Calibri-Bold-43" x="284.765625"/>
      <use xlink:href="#Calibri-Bold-2d" x="337.695312"/>
      <use xlink:href="#Calibri-Bold-53" x="368.310547"/>
      <use xlink:href="#Calibri-Bold-41" x="415.576172"/>
      <use xlink:href="#Calibri-Bold-43" x="475.046875"/>
      <use xlink:href="#Calibri-Bold-47" x="527.226562"/>
      <use xlink:href="#Calibri-Bold-41" x="590.947266"/>
      <use xlink:href="#Calibri-Bold-4e" x="651.542969"/>
      <use xlink:href="#Calibri-Bold-2d" x="717.412109"/>
      <use xlink:href="#Calibri-Bold-43" x="748.027344"/>
      <use xlink:href="#Calibri-Bold-4f" x="800.207031"/>
      <use xlink:href="#Calibri-Bold-41" x="866.458984"/>
     </g>
    </g>
    <g id="patch_33">
     <path d="M 33.8463 31.643143 
L 55.8463 31.643143 
L 55.8463 23.943143 
L 33.8463 23.943143 
z
" style="fill: #dda0dd; stroke: #000000; stroke-linejoin: miter"/>
    </g>
    <g id="text_14">
     <!-- RF-RBFNN -->
     <g transform="translate(64.6463 31.643143) scale(0.11 -0.11)">
      <defs>
       <path id="Calibri-Bold-52" d="M 3441 106 
Q 3441 72 3428 48 
Q 3416 25 3369 9 
Q 3322 -6 3231 -12 
Q 3141 -19 2984 -19 
Q 2853 -19 2775 -12 
Q 2697 -6 2651 11 
Q 2606 28 2587 54 
Q 2569 81 2556 119 
L 2194 1022 
Q 2128 1175 2065 1294 
Q 2003 1413 1926 1492 
Q 1850 1572 1750 1612 
Q 1650 1653 1519 1653 
L 1263 1653 
L 1263 113 
Q 1263 81 1242 56 
Q 1222 31 1175 15 
Q 1128 0 1050 -9 
Q 972 -19 850 -19 
Q 731 -19 651 -9 
Q 572 0 525 15 
Q 478 31 459 56 
Q 441 81 441 113 
L 441 3784 
Q 441 3922 511 3983 
Q 581 4044 684 4044 
L 1731 4044 
Q 1891 4044 1994 4037 
Q 2097 4031 2181 4022 
Q 2425 3988 2620 3903 
Q 2816 3819 2952 3683 
Q 3088 3547 3159 3361 
Q 3231 3175 3231 2934 
Q 3231 2731 3179 2564 
Q 3128 2397 3028 2265 
Q 2928 2134 2781 2037 
Q 2634 1941 2447 1881 
Q 2538 1838 2617 1775 
Q 2697 1713 2767 1623 
Q 2838 1534 2900 1420 
Q 2963 1306 3022 1163 
L 3363 366 
Q 3409 247 3425 192 
Q 3441 138 3441 106 
z
M 2381 2850 
Q 2381 3050 2290 3187 
Q 2200 3325 1994 3381 
Q 1931 3397 1851 3406 
Q 1772 3416 1631 3416 
L 1263 3416 
L 1263 2269 
L 1681 2269 
Q 1856 2269 1987 2311 
Q 2119 2353 2206 2429 
Q 2294 2506 2337 2612 
Q 2381 2719 2381 2850 
z
" transform="scale(0.015625)"/>
       <path id="Calibri-Bold-46" d="M 2709 3706 
Q 2709 3613 2701 3548 
Q 2694 3484 2676 3446 
Q 2659 3409 2637 3390 
Q 2616 3372 2588 3372 
L 1266 3372 
L 1266 2284 
L 2506 2284 
Q 2534 2284 2556 2268 
Q 2578 2253 2595 2215 
Q 2613 2178 2620 2115 
Q 2628 2053 2628 1959 
Q 2628 1866 2620 1803 
Q 2613 1741 2595 1700 
Q 2578 1659 2556 1642 
Q 2534 1625 2506 1625 
L 1266 1625 
L 1266 119 
Q 1266 84 1247 59 
Q 1228 34 1179 17 
Q 1131 0 1053 -9 
Q 975 -19 853 -19 
Q 734 -19 654 -9 
Q 575 0 528 17 
Q 481 34 461 59 
Q 441 84 441 119 
L 441 3784 
Q 441 3922 511 3983 
Q 581 4044 684 4044 
L 2588 4044 
Q 2616 4044 2637 4026 
Q 2659 4009 2676 3970 
Q 2694 3931 2701 3865 
Q 2709 3800 2709 3706 
z
" transform="scale(0.015625)"/>
       <path id="Calibri-Bold-42" d="M 3369 1213 
Q 3369 997 3309 822 
Q 3250 647 3145 512 
Q 3041 378 2895 281 
Q 2750 184 2575 121 
Q 2400 59 2201 29 
Q 2003 0 1759 0 
L 684 0 
Q 581 0 511 61 
Q 441 122 441 259 
L 441 3784 
Q 441 3922 511 3983 
Q 581 4044 684 4044 
L 1700 4044 
Q 2072 4044 2330 3981 
Q 2588 3919 2764 3792 
Q 2941 3666 3034 3472 
Q 3128 3278 3128 3016 
Q 3128 2869 3090 2739 
Q 3053 2609 2981 2503 
Q 2909 2397 2804 2315 
Q 2700 2234 2566 2184 
Q 2738 2153 2883 2075 
Q 3028 1997 3136 1873 
Q 3244 1750 3306 1584 
Q 3369 1419 3369 1213 
z
M 2306 2916 
Q 2306 3038 2268 3134 
Q 2231 3231 2156 3295 
Q 2081 3359 1967 3393 
Q 1853 3428 1663 3428 
L 1247 3428 
L 1247 2378 
L 1706 2378 
Q 1884 2378 1990 2420 
Q 2097 2463 2167 2536 
Q 2238 2609 2272 2707 
Q 2306 2806 2306 2916 
z
M 2516 1184 
Q 2516 1325 2469 1436 
Q 2422 1547 2331 1622 
Q 2241 1697 2100 1737 
Q 1959 1778 1734 1778 
L 1247 1778 
L 1247 628 
L 1841 628 
Q 2013 628 2130 664 
Q 2247 700 2333 770 
Q 2419 841 2467 945 
Q 2516 1050 2516 1184 
z
" transform="scale(0.015625)"/>
      </defs>
      <use xlink:href="#Calibri-Bold-52"/>
      <use xlink:href="#Calibri-Bold-46" x="56.298828"/>
      <use xlink:href="#Calibri-Bold-2d" x="102.197266"/>
      <use xlink:href="#Calibri-Bold-52" x="132.8125"/>
      <use xlink:href="#Calibri-Bold-42" x="189.111328"/>
      <use xlink:href="#Calibri-Bold-46" x="245.166016"/>
      <use xlink:href="#Calibri-Bold-4e" x="291.064453"/>
      <use xlink:href="#Calibri-Bold-4e" x="356.933594"/>
     </g>
    </g>
    <g id="patch_34">
     <path d="M 188.623175 16.49408 
L 210.623175 16.49408 
L 210.623175 8.79408 
L 188.623175 8.79408 
z
" style="fill: #73c2fb; stroke: #000000; stroke-linejoin: miter"/>
    </g>
    <g id="text_15">
     <!-- FEFS-DLM -->
     <g transform="translate(219.423175 16.49408) scale(0.11 -0.11)">
      <defs>
       <path id="Calibri-Bold-45" d="M 2838 322 
Q 2838 231 2830 170 
Q 2822 109 2806 71 
Q 2791 34 2767 17 
Q 2744 0 2716 0 
L 684 0 
Q 581 0 511 61 
Q 441 122 441 259 
L 441 3784 
Q 441 3922 511 3983 
Q 581 4044 684 4044 
L 2703 4044 
Q 2731 4044 2753 4028 
Q 2775 4013 2790 3973 
Q 2806 3934 2814 3873 
Q 2822 3813 2822 3719 
Q 2822 3631 2814 3570 
Q 2806 3509 2790 3471 
Q 2775 3434 2753 3417 
Q 2731 3400 2703 3400 
L 1259 3400 
L 1259 2413 
L 2481 2413 
Q 2509 2413 2532 2395 
Q 2556 2378 2572 2342 
Q 2588 2306 2595 2245 
Q 2603 2184 2603 2097 
Q 2603 2006 2595 1947 
Q 2588 1888 2572 1852 
Q 2556 1816 2532 1800 
Q 2509 1784 2481 1784 
L 1259 1784 
L 1259 644 
L 2716 644 
Q 2744 644 2767 626 
Q 2791 609 2806 571 
Q 2822 534 2830 473 
Q 2838 413 2838 322 
z
" transform="scale(0.015625)"/>
       <path id="Calibri-Bold-44" d="M 3800 2081 
Q 3800 1525 3654 1129 
Q 3509 734 3237 484 
Q 2966 234 2577 117 
Q 2188 0 1650 0 
L 684 0 
Q 581 0 511 61 
Q 441 122 441 259 
L 441 3784 
Q 441 3922 511 3983 
Q 581 4044 684 4044 
L 1722 4044 
Q 2263 4044 2639 3917 
Q 3016 3791 3273 3542 
Q 3531 3294 3665 2928 
Q 3800 2563 3800 2081 
z
M 2950 2053 
Q 2950 2341 2883 2587 
Q 2816 2834 2667 3015 
Q 2519 3197 2286 3298 
Q 2053 3400 1675 3400 
L 1259 3400 
L 1259 650 
L 1688 650 
Q 2025 650 2256 737 
Q 2488 825 2642 1001 
Q 2797 1178 2873 1440 
Q 2950 1703 2950 2053 
z
" transform="scale(0.015625)"/>
       <path id="Calibri-Bold-4c" d="M 2663 344 
Q 2663 250 2655 186 
Q 2647 122 2631 80 
Q 2616 38 2592 19 
Q 2569 0 2538 0 
L 684 0 
Q 581 0 511 61 
Q 441 122 441 259 
L 441 3931 
Q 441 3963 461 3988 
Q 481 4013 528 4028 
Q 575 4044 654 4053 
Q 734 4063 853 4063 
Q 975 4063 1053 4053 
Q 1131 4044 1178 4028 
Q 1225 4013 1245 3988 
Q 1266 3963 1266 3931 
L 1266 678 
L 2538 678 
Q 2569 678 2592 661 
Q 2616 644 2631 605 
Q 2647 566 2655 502 
Q 2663 438 2663 344 
z
" transform="scale(0.015625)"/>
       <path id="Calibri-Bold-4d" d="M 5153 113 
Q 5153 81 5136 56 
Q 5119 31 5073 15 
Q 5028 0 4953 -9 
Q 4878 -19 4763 -19 
Q 4650 -19 4575 -9 
Q 4500 0 4456 15 
Q 4413 31 4394 56 
Q 4375 81 4375 113 
L 4375 3403 
L 4369 3403 
L 3197 116 
Q 3184 75 3156 48 
Q 3128 22 3079 6 
Q 3031 -9 2956 -14 
Q 2881 -19 2775 -19 
Q 2669 -19 2594 -11 
Q 2519 -3 2470 14 
Q 2422 31 2394 56 
Q 2366 81 2356 116 
L 1225 3403 
L 1219 3403 
L 1219 113 
Q 1219 81 1201 56 
Q 1184 31 1137 15 
Q 1091 0 1017 -9 
Q 944 -19 828 -19 
Q 716 -19 641 -9 
Q 566 0 520 15 
Q 475 31 458 56 
Q 441 81 441 113 
L 441 3716 
Q 441 3875 525 3959 
Q 609 4044 750 4044 
L 1288 4044 
Q 1431 4044 1534 4020 
Q 1638 3997 1713 3942 
Q 1788 3888 1838 3798 
Q 1888 3709 1925 3578 
L 2800 1169 
L 2813 1169 
L 3719 3572 
Q 3759 3703 3807 3793 
Q 3856 3884 3920 3940 
Q 3984 3997 4071 4020 
Q 4159 4044 4275 4044 
L 4828 4044 
Q 4913 4044 4973 4022 
Q 5034 4000 5073 3958 
Q 5113 3916 5133 3855 
Q 5153 3794 5153 3716 
L 5153 113 
z
" transform="scale(0.015625)"/>
      </defs>
      <use xlink:href="#Calibri-Bold-46"/>
      <use xlink:href="#Calibri-Bold-45" x="45.898438"/>
      <use xlink:href="#Calibri-Bold-46" x="94.677734"/>
      <use xlink:href="#Calibri-Bold-53" x="139.201172"/>
      <use xlink:href="#Calibri-Bold-2d" x="186.466797"/>
      <use xlink:href="#Calibri-Bold-44" x="217.082031"/>
      <use xlink:href="#Calibri-Bold-4c" x="280.119141"/>
      <use xlink:href="#Calibri-Bold-4d" x="322.404297"/>
     </g>
    </g>
    <g id="patch_35">
     <path d="M 188.623175 31.643143 
L 210.623175 31.643143 
L 210.623175 23.943143 
L 188.623175 23.943143 
z
" style="fill: #fdbcb4; stroke: #000000; stroke-linejoin: miter"/>
    </g>
    <g id="text_16">
     <!-- IMFL-IDSCS -->
     <g transform="translate(219.423175 31.643143) scale(0.11 -0.11)">
      <defs>
       <path id="Calibri-Bold-49" d="M 1266 113 
Q 1266 81 1245 56 
Q 1225 31 1178 15 
Q 1131 0 1053 -9 
Q 975 -19 853 -19 
Q 734 -19 654 -9 
Q 575 0 528 15 
Q 481 31 461 56 
Q 441 81 441 113 
L 441 3931 
Q 441 3963 461 3988 
Q 481 4013 529 4028 
Q 578 4044 656 4053 
Q 734 4063 853 4063 
Q 975 4063 1053 4053 
Q 1131 4044 1178 4028 
Q 1225 4013 1245 3988 
Q 1266 3963 1266 3931 
L 1266 113 
z
" transform="scale(0.015625)"/>
      </defs>
      <use xlink:href="#Calibri-Bold-49"/>
      <use xlink:href="#Calibri-Bold-4d" x="26.660156"/>
      <use xlink:href="#Calibri-Bold-46" x="114.0625"/>
      <use xlink:href="#Calibri-Bold-4c" x="159.960938"/>
      <use xlink:href="#Calibri-Bold-2d" x="202.246094"/>
      <use xlink:href="#Calibri-Bold-49" x="232.861328"/>
      <use xlink:href="#Calibri-Bold-44" x="259.521484"/>
      <use xlink:href="#Calibri-Bold-53" x="322.558594"/>
      <use xlink:href="#Calibri-Bold-43" x="369.824219"/>
      <use xlink:href="#Calibri-Bold-53" x="422.753906"/>
     </g>
    </g>
    <g id="patch_36">
     <path d="M 293.124894 16.49408 
L 315.124894 16.49408 
L 315.124894 8.79408 
L 293.124894 8.79408 
z
" style="fill: #0095b6; stroke: #000000; stroke-linejoin: miter"/>
    </g>
    <g id="text_17">
     <!-- HSBOA_QRNN -->
     <g transform="translate(323.924894 16.49408) scale(0.11 -0.11)">
      <defs>
       <path id="Calibri-Bold-48" d="M 3597 113 
Q 3597 81 3576 56 
Q 3556 31 3509 15 
Q 3463 0 3384 -9 
Q 3306 -19 3188 -19 
Q 3066 -19 2986 -9 
Q 2906 0 2861 15 
Q 2816 31 2795 56 
Q 2775 81 2775 113 
L 2775 1747 
L 1263 1747 
L 1263 113 
Q 1263 81 1244 56 
Q 1225 31 1178 15 
Q 1131 0 1053 -9 
Q 975 -19 853 -19 
Q 734 -19 654 -9 
Q 575 0 528 15 
Q 481 31 461 56 
Q 441 81 441 113 
L 441 3931 
Q 441 3963 461 3988 
Q 481 4013 528 4028 
Q 575 4044 654 4053 
Q 734 4063 853 4063 
Q 975 4063 1053 4053 
Q 1131 4044 1178 4028 
Q 1225 4013 1244 3988 
Q 1263 3963 1263 3931 
L 1263 2447 
L 2775 2447 
L 2775 3931 
Q 2775 3963 2795 3988 
Q 2816 4013 2861 4028 
Q 2906 4044 2986 4053 
Q 3066 4063 3188 4063 
Q 3306 4063 3384 4053 
Q 3463 4044 3509 4028 
Q 3556 4013 3576 3988 
Q 3597 3963 3597 3931 
L 3597 113 
z
" transform="scale(0.015625)"/>
       <path id="Calibri-Bold-5f" d="M 3206 -850 
Q 3206 -1006 3176 -1073 
Q 3147 -1141 3078 -1141 
L 109 -1141 
Q 38 -1141 8 -1075 
Q -22 -1009 -22 -853 
Q -22 -697 8 -628 
Q 38 -559 109 -559 
L 3078 -559 
Q 3147 -559 3176 -625 
Q 3206 -691 3206 -850 
z
" transform="scale(0.015625)"/>
       <path id="Calibri-Bold-51" d="M 4459 -384 
Q 4459 -497 4448 -565 
Q 4438 -634 4419 -671 
Q 4400 -709 4378 -720 
Q 4356 -731 4331 -731 
Q 4228 -731 4061 -675 
Q 3894 -619 3700 -514 
Q 3506 -409 3304 -257 
Q 3103 -106 2931 91 
Q 2788 25 2583 -23 
Q 2378 -72 2128 -72 
Q 1656 -72 1304 48 
Q 953 169 718 422 
Q 484 675 367 1067 
Q 250 1459 250 2000 
Q 250 2491 375 2883 
Q 500 3275 747 3548 
Q 994 3822 1358 3969 
Q 1722 4116 2203 4116 
Q 2656 4116 3004 3994 
Q 3353 3872 3592 3620 
Q 3831 3369 3954 2984 
Q 4078 2600 4078 2075 
Q 4078 1803 4042 1564 
Q 4006 1325 3937 1122 
Q 3869 919 3769 750 
Q 3669 581 3541 453 
Q 3734 284 3884 196 
Q 4034 109 4136 65 
Q 4238 22 4298 1 
Q 4359 -19 4393 -51 
Q 4428 -84 4443 -164 
Q 4459 -244 4459 -384 
z
M 3216 2031 
Q 3216 2347 3166 2606 
Q 3116 2866 2995 3052 
Q 2875 3238 2675 3339 
Q 2475 3441 2175 3441 
Q 1872 3441 1669 3328 
Q 1466 3216 1341 3025 
Q 1216 2834 1164 2579 
Q 1113 2325 1113 2044 
Q 1113 1709 1163 1443 
Q 1213 1178 1331 990 
Q 1450 803 1650 704 
Q 1850 606 2153 606 
Q 2456 606 2659 718 
Q 2863 831 2988 1025 
Q 3113 1219 3164 1478 
Q 3216 1738 3216 2031 
z
" transform="scale(0.015625)"/>
      </defs>
      <use xlink:href="#Calibri-Bold-48"/>
      <use xlink:href="#Calibri-Bold-53" x="63.085938"/>
      <use xlink:href="#Calibri-Bold-42" x="110.351562"/>
      <use xlink:href="#Calibri-Bold-4f" x="166.40625"/>
      <use xlink:href="#Calibri-Bold-41" x="232.658203"/>
      <use xlink:href="#Calibri-Bold-5f" x="293.253906"/>
      <use xlink:href="#Calibri-Bold-51" x="343.058594"/>
      <use xlink:href="#Calibri-Bold-52" x="411.662109"/>
      <use xlink:href="#Calibri-Bold-4e" x="467.960938"/>
      <use xlink:href="#Calibri-Bold-4e" x="533.830078"/>
     </g>
    </g>
    <g id="patch_37">
     <path d="M 293.124894 31.655174 
L 315.124894 31.655174 
L 315.124894 23.955174 
L 293.124894 23.955174 
z
" style="fill: #e3f988; stroke: #000000; stroke-linejoin: miter"/>
    </g>
    <g id="text_18">
     <!-- Proposed TaWSA_WRN -->
     <g transform="translate(323.924894 31.655174) scale(0.11 -0.11)">
      <defs>
       <path id="Calibri-Bold-50" d="M 3209 2816 
Q 3209 2475 3103 2212 
Q 2997 1950 2794 1770 
Q 2591 1591 2295 1497 
Q 2000 1403 1600 1403 
L 1263 1403 
L 1263 113 
Q 1263 81 1242 56 
Q 1222 31 1175 15 
Q 1128 0 1050 -9 
Q 972 -19 850 -19 
Q 731 -19 651 -9 
Q 572 0 525 15 
Q 478 31 459 56 
Q 441 81 441 113 
L 441 3750 
Q 441 3897 517 3970 
Q 594 4044 719 4044 
L 1672 4044 
Q 1816 4044 1945 4033 
Q 2075 4022 2256 3986 
Q 2438 3950 2623 3853 
Q 2809 3756 2940 3607 
Q 3072 3459 3140 3261 
Q 3209 3063 3209 2816 
z
M 2350 2756 
Q 2350 2969 2275 3106 
Q 2200 3244 2090 3309 
Q 1981 3375 1861 3392 
Q 1741 3409 1613 3409 
L 1263 3409 
L 1263 2038 
L 1631 2038 
Q 1828 2038 1961 2091 
Q 2094 2144 2178 2239 
Q 2263 2334 2306 2467 
Q 2350 2600 2350 2756 
z
" transform="scale(0.015625)"/>
       <path id="Calibri-Bold-72" d="M 2184 2634 
Q 2184 2522 2178 2450 
Q 2172 2378 2159 2337 
Q 2147 2297 2126 2281 
Q 2106 2266 2075 2266 
Q 2050 2266 2019 2277 
Q 1988 2288 1948 2300 
Q 1909 2313 1862 2323 
Q 1816 2334 1759 2334 
Q 1694 2334 1628 2307 
Q 1563 2281 1492 2225 
Q 1422 2169 1345 2075 
Q 1269 1981 1181 1844 
L 1181 106 
Q 1181 75 1162 51 
Q 1144 28 1098 12 
Q 1053 -3 978 -11 
Q 903 -19 788 -19 
Q 672 -19 597 -11 
Q 522 -3 476 12 
Q 431 28 412 51 
Q 394 75 394 106 
L 394 2894 
Q 394 2925 409 2948 
Q 425 2972 465 2987 
Q 506 3003 570 3011 
Q 634 3019 731 3019 
Q 831 3019 897 3011 
Q 963 3003 998 2987 
Q 1034 2972 1050 2948 
Q 1066 2925 1066 2894 
L 1066 2547 
Q 1175 2703 1272 2804 
Q 1369 2906 1456 2965 
Q 1544 3025 1631 3048 
Q 1719 3072 1806 3072 
Q 1847 3072 1894 3067 
Q 1941 3063 1991 3052 
Q 2041 3041 2078 3027 
Q 2116 3013 2133 2997 
Q 2150 2981 2158 2962 
Q 2166 2944 2172 2911 
Q 2178 2878 2181 2812 
Q 2184 2747 2184 2634 
z
" transform="scale(0.015625)"/>
       <path id="Calibri-Bold-6f" d="M 3213 1528 
Q 3213 1172 3119 878 
Q 3025 584 2834 371 
Q 2644 159 2356 43 
Q 2069 -72 1684 -72 
Q 1313 -72 1038 31 
Q 763 134 581 331 
Q 400 528 312 815 
Q 225 1103 225 1472 
Q 225 1828 320 2123 
Q 416 2419 606 2630 
Q 797 2841 1083 2956 
Q 1369 3072 1753 3072 
Q 2128 3072 2403 2970 
Q 2678 2869 2858 2672 
Q 3038 2475 3125 2187 
Q 3213 1900 3213 1528 
z
M 2403 1497 
Q 2403 1703 2370 1876 
Q 2338 2050 2259 2178 
Q 2181 2306 2051 2378 
Q 1922 2450 1725 2450 
Q 1550 2450 1419 2386 
Q 1288 2322 1203 2198 
Q 1119 2075 1076 1901 
Q 1034 1728 1034 1506 
Q 1034 1300 1068 1126 
Q 1103 953 1179 825 
Q 1256 697 1387 626 
Q 1519 556 1713 556 
Q 1891 556 2022 620 
Q 2153 684 2237 806 
Q 2322 928 2362 1101 
Q 2403 1275 2403 1497 
z
" transform="scale(0.015625)"/>
       <path id="Calibri-Bold-70" d="M 3200 1541 
Q 3200 1169 3120 870 
Q 3041 572 2887 362 
Q 2734 153 2506 40 
Q 2278 -72 1984 -72 
Q 1863 -72 1761 -48 
Q 1659 -25 1564 23 
Q 1469 72 1375 144 
Q 1281 216 1181 313 
L 1181 -1000 
Q 1181 -1031 1162 -1056 
Q 1144 -1081 1098 -1098 
Q 1053 -1116 978 -1125 
Q 903 -1134 788 -1134 
Q 672 -1134 597 -1125 
Q 522 -1116 476 -1098 
Q 431 -1081 412 -1056 
Q 394 -1031 394 -1000 
L 394 2894 
Q 394 2925 409 2948 
Q 425 2972 464 2987 
Q 503 3003 567 3011 
Q 631 3019 728 3019 
Q 822 3019 886 3011 
Q 950 3003 989 2987 
Q 1028 2972 1043 2948 
Q 1059 2925 1059 2894 
L 1059 2566 
Q 1181 2691 1298 2786 
Q 1416 2881 1537 2945 
Q 1659 3009 1789 3040 
Q 1919 3072 2066 3072 
Q 2372 3072 2587 2951 
Q 2803 2831 2939 2622 
Q 3075 2413 3137 2134 
Q 3200 1856 3200 1541 
z
M 2381 1484 
Q 2381 1663 2354 1827 
Q 2328 1991 2264 2119 
Q 2200 2247 2095 2323 
Q 1991 2400 1834 2400 
Q 1756 2400 1679 2376 
Q 1603 2353 1523 2300 
Q 1444 2247 1359 2162 
Q 1275 2078 1181 1953 
L 1181 1034 
Q 1347 825 1497 711 
Q 1647 597 1809 597 
Q 1963 597 2070 675 
Q 2178 753 2247 879 
Q 2316 1006 2348 1165 
Q 2381 1325 2381 1484 
z
" transform="scale(0.015625)"/>
       <path id="Calibri-Bold-73" d="M 2356 894 
Q 2356 656 2267 475 
Q 2178 294 2015 172 
Q 1853 50 1631 -11 
Q 1409 -72 1150 -72 
Q 994 -72 851 -48 
Q 709 -25 596 11 
Q 484 47 409 84 
Q 334 122 300 155 
Q 266 188 247 258 
Q 228 328 228 466 
Q 228 556 234 611 
Q 241 666 253 698 
Q 266 731 284 742 
Q 303 753 331 753 
Q 366 753 433 714 
Q 500 675 600 628 
Q 700 581 833 540 
Q 966 500 1134 500 
Q 1241 500 1323 522 
Q 1406 544 1467 584 
Q 1528 625 1559 687 
Q 1591 750 1591 831 
Q 1591 925 1533 992 
Q 1475 1059 1379 1109 
Q 1284 1159 1164 1203 
Q 1044 1247 917 1300 
Q 791 1353 670 1422 
Q 550 1491 454 1591 
Q 359 1691 301 1831 
Q 244 1972 244 2169 
Q 244 2369 322 2536 
Q 400 2703 547 2822 
Q 694 2941 905 3006 
Q 1116 3072 1378 3072 
Q 1509 3072 1632 3053 
Q 1756 3034 1856 3006 
Q 1956 2978 2025 2945 
Q 2094 2913 2123 2889 
Q 2153 2866 2165 2842 
Q 2178 2819 2184 2786 
Q 2191 2753 2195 2704 
Q 2200 2656 2200 2584 
Q 2200 2500 2195 2447 
Q 2191 2394 2180 2362 
Q 2169 2331 2150 2320 
Q 2131 2309 2106 2309 
Q 2078 2309 2018 2342 
Q 1959 2375 1870 2412 
Q 1781 2450 1664 2483 
Q 1547 2516 1397 2516 
Q 1291 2516 1212 2494 
Q 1134 2472 1084 2431 
Q 1034 2391 1009 2336 
Q 984 2281 984 2219 
Q 984 2122 1043 2056 
Q 1103 1991 1200 1941 
Q 1297 1891 1420 1847 
Q 1544 1803 1670 1751 
Q 1797 1700 1920 1631 
Q 2044 1563 2141 1463 
Q 2238 1363 2297 1223 
Q 2356 1084 2356 894 
z
" transform="scale(0.015625)"/>
       <path id="Calibri-Bold-65" d="M 2969 1581 
Q 2969 1438 2905 1369 
Q 2841 1300 2728 1300 
L 1031 1300 
Q 1031 1122 1073 976 
Q 1116 831 1208 729 
Q 1300 628 1445 575 
Q 1591 522 1794 522 
Q 2000 522 2156 551 
Q 2313 581 2427 617 
Q 2541 653 2616 683 
Q 2691 713 2738 713 
Q 2766 713 2784 702 
Q 2803 691 2815 662 
Q 2828 634 2833 582 
Q 2838 531 2838 453 
Q 2838 384 2834 336 
Q 2831 288 2825 253 
Q 2819 219 2806 195 
Q 2794 172 2773 150 
Q 2753 128 2662 90 
Q 2572 53 2431 17 
Q 2291 -19 2109 -45 
Q 1928 -72 1722 -72 
Q 1350 -72 1070 22 
Q 791 116 603 306 
Q 416 497 323 787 
Q 231 1078 231 1469 
Q 231 1841 328 2139 
Q 425 2438 609 2645 
Q 794 2853 1058 2962 
Q 1322 3072 1653 3072 
Q 2003 3072 2251 2969 
Q 2500 2866 2659 2683 
Q 2819 2500 2894 2250 
Q 2969 2000 2969 1706 
L 2969 1581 
z
M 2206 1806 
Q 2216 2138 2073 2327 
Q 1931 2516 1634 2516 
Q 1484 2516 1373 2459 
Q 1263 2403 1189 2308 
Q 1116 2213 1077 2083 
Q 1038 1953 1031 1806 
L 2206 1806 
z
" transform="scale(0.015625)"/>
       <path id="Calibri-Bold-64" d="M 3038 106 
Q 3038 72 3022 48 
Q 3006 25 2968 9 
Q 2931 -6 2867 -12 
Q 2803 -19 2709 -19 
Q 2609 -19 2546 -12 
Q 2484 -6 2445 9 
Q 2406 25 2389 48 
Q 2372 72 2372 106 
L 2372 416 
Q 2156 184 1920 56 
Q 1684 -72 1397 -72 
Q 1078 -72 858 51 
Q 638 175 498 384 
Q 359 594 296 873 
Q 234 1153 234 1463 
Q 234 1834 314 2131 
Q 394 2428 547 2637 
Q 700 2847 928 2959 
Q 1156 3072 1453 3072 
Q 1688 3072 1878 2976 
Q 2069 2881 2256 2697 
L 2256 4206 
Q 2256 4238 2273 4263 
Q 2291 4288 2336 4305 
Q 2381 4322 2456 4331 
Q 2531 4341 2647 4341 
Q 2763 4341 2838 4331 
Q 2913 4322 2956 4305 
Q 3000 4288 3019 4263 
Q 3038 4238 3038 4206 
L 3038 106 
z
M 2256 1969 
Q 2088 2181 1933 2293 
Q 1778 2406 1609 2406 
Q 1456 2406 1345 2329 
Q 1234 2253 1167 2125 
Q 1100 1997 1067 1839 
Q 1034 1681 1034 1516 
Q 1034 1341 1062 1175 
Q 1091 1009 1155 879 
Q 1219 750 1325 672 
Q 1431 594 1594 594 
Q 1675 594 1751 617 
Q 1828 641 1908 694 
Q 1988 747 2072 833 
Q 2156 919 2256 1044 
L 2256 1969 
z
" transform="scale(0.015625)"/>
       <path id="Calibri-Bold-20" transform="scale(0.015625)"/>
       <path id="Calibri-Bold-54" d="M 3131 3706 
Q 3131 3616 3123 3552 
Q 3116 3488 3100 3448 
Q 3084 3409 3061 3390 
Q 3038 3372 3009 3372 
L 1997 3372 
L 1997 113 
Q 1997 81 1976 56 
Q 1956 31 1909 15 
Q 1863 0 1783 -9 
Q 1703 -19 1584 -19 
Q 1466 -19 1386 -9 
Q 1306 0 1259 15 
Q 1213 31 1192 56 
Q 1172 81 1172 113 
L 1172 3372 
L 159 3372 
Q 128 3372 106 3390 
Q 84 3409 68 3448 
Q 53 3488 45 3552 
Q 38 3616 38 3706 
Q 38 3800 45 3865 
Q 53 3931 68 3970 
Q 84 4009 106 4026 
Q 128 4044 159 4044 
L 3009 4044 
Q 3038 4044 3061 4026 
Q 3084 4009 3100 3970 
Q 3116 3931 3123 3865 
Q 3131 3800 3131 3706 
z
" transform="scale(0.015625)"/>
       <path id="Calibri-Bold-61" d="M 2769 97 
Q 2769 53 2737 28 
Q 2706 3 2639 -8 
Q 2572 -19 2441 -19 
Q 2300 -19 2236 -8 
Q 2172 3 2145 28 
Q 2119 53 2119 97 
L 2119 319 
Q 1947 134 1726 31 
Q 1506 -72 1238 -72 
Q 1016 -72 830 -14 
Q 644 44 508 158 
Q 372 272 297 440 
Q 222 609 222 834 
Q 222 1078 317 1258 
Q 413 1438 602 1555 
Q 791 1672 1072 1728 
Q 1353 1784 1725 1784 
L 1997 1784 
L 1997 1953 
Q 1997 2084 1970 2182 
Q 1944 2281 1883 2347 
Q 1822 2413 1720 2444 
Q 1619 2475 1469 2475 
Q 1272 2475 1117 2431 
Q 963 2388 844 2334 
Q 725 2281 645 2237 
Q 566 2194 516 2194 
Q 481 2194 454 2216 
Q 428 2238 411 2278 
Q 394 2319 384 2378 
Q 375 2438 375 2509 
Q 375 2606 390 2662 
Q 406 2719 450 2764 
Q 494 2809 603 2864 
Q 713 2919 859 2966 
Q 1006 3013 1179 3042 
Q 1353 3072 1538 3072 
Q 1866 3072 2098 3008 
Q 2331 2944 2481 2811 
Q 2631 2678 2700 2468 
Q 2769 2259 2769 1972 
L 2769 97 
z
M 1997 1291 
L 1697 1291 
Q 1506 1291 1372 1262 
Q 1238 1234 1153 1178 
Q 1069 1122 1030 1042 
Q 991 963 991 859 
Q 991 684 1102 584 
Q 1213 484 1409 484 
Q 1575 484 1714 568 
Q 1853 653 1997 816 
L 1997 1291 
z
" transform="scale(0.015625)"/>
       <path id="Calibri-Bold-57" d="M 4697 209 
Q 4678 134 4645 89 
Q 4613 44 4547 20 
Q 4481 -3 4378 -11 
Q 4275 -19 4116 -19 
Q 3938 -19 3830 -11 
Q 3722 -3 3659 20 
Q 3597 44 3569 89 
Q 3541 134 3525 209 
L 2878 2772 
L 2872 2772 
L 2259 209 
Q 2244 138 2216 92 
Q 2188 47 2127 22 
Q 2066 -3 1961 -11 
Q 1856 -19 1684 -19 
Q 1503 -19 1395 -11 
Q 1288 -3 1225 20 
Q 1163 44 1134 89 
Q 1106 134 1088 209 
L 169 3738 
Q 141 3850 137 3914 
Q 134 3978 173 4012 
Q 213 4047 302 4055 
Q 391 4063 550 4063 
Q 697 4063 783 4058 
Q 869 4053 912 4036 
Q 956 4019 972 3986 
Q 988 3953 997 3894 
L 1706 797 
L 1709 797 
L 2447 3872 
Q 2459 3931 2479 3968 
Q 2500 4006 2548 4026 
Q 2597 4047 2681 4055 
Q 2766 4063 2906 4063 
Q 3056 4063 3145 4056 
Q 3234 4050 3282 4029 
Q 3331 4009 3353 3971 
Q 3375 3934 3388 3872 
L 4150 797 
L 4156 797 
L 4866 3884 
Q 4875 3934 4890 3970 
Q 4906 4006 4950 4026 
Q 4994 4047 5075 4055 
Q 5156 4063 5303 4063 
Q 5441 4063 5517 4055 
Q 5594 4047 5628 4012 
Q 5663 3978 5658 3911 
Q 5653 3844 5625 3728 
L 4697 209 
z
" transform="scale(0.015625)"/>
      </defs>
      <use xlink:href="#Calibri-Bold-50"/>
      <use xlink:href="#Calibri-Bold-72" x="53.222656"/>
      <use xlink:href="#Calibri-Bold-6f" x="88.769531"/>
      <use xlink:href="#Calibri-Bold-70" x="142.529297"/>
      <use xlink:href="#Calibri-Bold-6f" x="196.191406"/>
      <use xlink:href="#Calibri-Bold-73" x="249.951172"/>
      <use xlink:href="#Calibri-Bold-65" x="289.84375"/>
      <use xlink:href="#Calibri-Bold-64" x="340.185547"/>
      <use xlink:href="#Calibri-Bold-20" x="393.847656"/>
      <use xlink:href="#Calibri-Bold-54" x="416.455078"/>
      <use xlink:href="#Calibri-Bold-61" x="465.966797"/>
      <use xlink:href="#Calibri-Bold-57" x="515.332031"/>
      <use xlink:href="#Calibri-Bold-53" x="605.957031"/>
      <use xlink:href="#Calibri-Bold-41" x="653.222656"/>
      <use xlink:href="#Calibri-Bold-5f" x="713.818359"/>
      <use xlink:href="#Calibri-Bold-57" x="763.623047"/>
      <use xlink:href="#Calibri-Bold-52" x="854.248047"/>
      <use xlink:href="#Calibri-Bold-4e" x="910.546875"/>
     </g>
    </g>
   </g>
  </g>
 </g>
 <defs>
  <clipPath id="pcafdfbe4c7">
   <rect x="57.6" y="41.472" width="357.12" height="266.112"/>
  </clipPath>
 </defs>
</svg>
