<?xml version="1.0" encoding="utf-8" standalone="no"?>
<!DOCTYPE svg PUBLIC "-//W3C//DTD SVG 1.1//EN"
  "http://www.w3.org/Graphics/SVG/1.1/DTD/svg11.dtd">
<svg xmlns:xlink="http://www.w3.org/1999/xlink" width="460.8pt" height="345.6pt" viewBox="0 0 460.8 345.6" xmlns="http://www.w3.org/2000/svg" version="1.1">
 <metadata>
  <rdf:RDF xmlns:dc="http://purl.org/dc/elements/1.1/" xmlns:cc="http://creativecommons.org/ns#" xmlns:rdf="http://www.w3.org/1999/02/22-rdf-syntax-ns#">
   <cc:Work>
    <dc:type rdf:resource="http://purl.org/dc/dcmitype/StillImage"/>
    <dc:date>2026-01-04T11:06:49.657206</dc:date>
    <dc:format>image/svg+xml</dc:format>
    <dc:creator>
     <cc:Agent>
      <dc:title>Matplotlib v3.9.4, https://matplotlib.org/</dc:title>
     </cc:Agent>
    </dc:creator>
   </cc:Work>
  </rdf:RDF>
 </metadata>
 <defs>
  <style type="text/css">*{stroke-linejoin: round; stroke-linecap: butt}</style>
 </defs>
 <g id="figure_1">
  <g id="patch_1">
   <path d="M 0 345.6 
L 460.8 345.6 
L 460.8 0 
L 0 0 
z
" style="fill: #ffffff"/>
  </g>
  <g id="axes_1">
   <g id="patch_2">
    <path d="M 369.216 174.528 
C 369.216 157.055246 365.774248 139.752393 359.087715 123.609673 
C 352.401182 107.466954 342.599903 92.798303 330.2448 80.4432 
C 317.889697 68.088097 303.221046 58.286818 287.078327 51.600285 
C 270.935607 44.913752 253.632754 41.472 236.16 41.472 
C 218.687246 41.472 201.384393 44.913752 185.241673 51.600285 
C 169.098954 58.286818 154.430303 68.088097 142.0752 80.4432 
C 129.720097 92.798303 119.918818 107.466954 113.232285 123.609673 
C 106.545752 139.752393 103.104 157.055246 103.104 174.528 
C 103.104 192.000754 106.545752 209.303607 113.232285 225.446327 
C 119.918818 241.589046 129.720097 256.257697 142.0752 268.6128 
C 154.430303 280.967903 169.098954 290.769182 185.241673 297.455715 
C 201.384393 304.142248 218.687246 307.584 236.16 307.584 
C 253.632754 307.584 270.935607 304.142248 287.078327 297.455715 
C 303.221046 290.769182 317.889697 280.967903 330.2448 268.6128 
C 342.599903 256.257697 352.401182 241.589046 359.087715 225.446327 
C 365.774248 209.303607 369.216 192.000754 369.216 174.528 
M 236.16 174.528 
C 236.16 174.528 236.16 174.528 236.16 174.528 
C 236.16 174.528 236.16 174.528 236.16 174.528 
C 236.16 174.528 236.16 174.528 236.16 174.528 
C 236.16 174.528 236.16 174.528 236.16 174.528 
C 236.16 174.528 236.16 174.528 236.16 174.528 
C 236.16 174.528 236.16 174.528 236.16 174.528 
C 236.16 174.528 236.16 174.528 236.16 174.528 
C 236.16 174.528 236.16 174.528 236.16 174.528 
C 236.16 174.528 236.16 174.528 236.16 174.528 
C 236.16 174.528 236.16 174.528 236.16 174.528 
C 236.16 174.528 236.16 174.528 236.16 174.528 
C 236.16 174.528 236.16 174.528 236.16 174.528 
C 236.16 174.528 236.16 174.528 236.16 174.528 
C 236.16 174.528 236.16 174.528 236.16 174.528 
C 236.16 174.528 236.16 174.528 236.16 174.528 
C 236.16 174.528 236.16 174.528 236.16 174.528 
z
" style="fill: #ffffff"/>
   </g>
   <g id="patch_3">
    <path d="M 236.16 174.528 
C 236.16 174.528 236.16 174.528 236.16 174.528 
C 236.16 174.528 236.16 174.528 236.16 174.528 
L 239.070042 63.397966 
C 241.009738 63.448759 242.947772 63.550327 244.882151 63.702566 
C 246.81653 63.854805 248.746592 64.057662 250.670352 64.31093 
z
" clip-path="url(#pac6130f80d)" style="fill: #73c2fb"/>
   </g>
   <g id="patch_4">
    <path d="M 236.16 174.528 
C 236.16 174.528 236.16 174.528 236.16 174.528 
C 236.16 174.528 236.16 174.528 236.16 174.528 
L 126.914596 163.045845 
C 127.115009 161.139044 127.36531 159.237817 127.665242 157.344119 
C 127.965175 155.45042 128.314636 153.564898 128.713266 151.689492 
z
" clip-path="url(#pac6130f80d)" style="fill: #73c2fb"/>
   </g>
   <g id="patch_5">
    <path d="M 236.16 174.528 
C 236.16 174.528 236.16 174.528 236.16 174.528 
C 236.16 174.528 236.16 174.528 236.16 174.528 
L 215.662873 285.120598 
C 213.732558 284.762835 211.811941 284.354596 209.902995 283.896298 
C 207.994049 283.438001 206.097429 282.929803 204.215085 282.372227 
z
" clip-path="url(#pac6130f80d)" style="fill: #73c2fb"/>
   </g>
   <g id="patch_6">
    <path d="M 236.16 174.528 
C 236.16 174.528 236.16 174.528 236.16 174.528 
C 236.16 174.528 236.16 174.528 236.16 174.528 
L 348.57073 204.648364 
C 348.045 206.610414 347.467991 208.558362 346.840297 210.490208 
C 346.212602 212.422054 345.534436 214.337135 344.806497 216.233483 
z
" clip-path="url(#pac6130f80d)" style="fill: #73c2fb"/>
   </g>
   <g id="patch_7">
    <path d="M 236.16 174.528 
C 236.16 174.528 236.16 174.528 236.16 174.528 
C 236.16 174.528 236.16 174.528 236.16 174.528 
L 227.335131 62.397403 
C 229.29229 62.243371 231.253148 62.140607 233.215687 62.089216 
C 235.178226 62.037825 237.141774 62.037825 239.104313 62.089216 
z
" clip-path="url(#pac6130f80d)" style="fill: #fdbcb4"/>
   </g>
   <g id="patch_8">
    <path d="M 236.16 174.528 
C 236.16 174.528 236.16 174.528 236.16 174.528 
C 236.16 174.528 236.16 174.528 236.16 174.528 
L 122.389168 174.528 
C 122.389168 172.542211 122.441159 170.556762 122.545087 168.573695 
C 122.649015 166.590627 122.804845 164.61062 123.012417 162.63571 
z
" clip-path="url(#pac6130f80d)" style="fill: #fdbcb4"/>
   </g>
   <g id="patch_9">
    <path d="M 236.16 174.528 
C 236.16 174.528 236.16 174.528 236.16 174.528 
C 236.16 174.528 236.16 174.528 236.16 174.528 
L 227.038673 290.425447 
C 225.015766 290.266241 222.997373 290.054099 220.98557 289.78924 
C 218.973767 289.524381 216.969243 289.206896 214.974059 288.83711 
z
" clip-path="url(#pac6130f80d)" style="fill: #fdbcb4"/>
   </g>
   <g id="patch_10">
    <path d="M 236.16 174.528 
C 236.16 174.528 236.16 174.528 236.16 174.528 
C 236.16 174.528 236.16 174.528 236.16 174.528 
L 355.721512 193.464683 
C 355.390986 195.551544 355.005879 197.629394 354.566588 199.696097 
C 354.127297 201.7628 353.633971 203.817647 353.087119 205.858527 
z
" clip-path="url(#pac6130f80d)" style="fill: #fdbcb4"/>
   </g>
   <g id="patch_11">
    <path d="M 236.16 174.528 
C 236.16 174.528 236.16 174.528 236.16 174.528 
C 236.16 174.528 236.16 174.528 236.16 174.528 
L 215.424291 62.648125 
C 217.377075 62.286198 219.338999 61.97546 221.308049 61.71623 
C 223.277098 61.457 225.252597 61.249366 227.232515 61.093543 
z
" clip-path="url(#pac6130f80d)" style="fill: #0095b6"/>
   </g>
   <g id="patch_12">
    <path d="M 236.16 174.528 
C 236.16 174.528 236.16 174.528 236.16 174.528 
C 236.16 174.528 236.16 174.528 236.16 174.528 
L 121.697382 186.558506 
C 121.487399 184.560642 121.329758 182.557623 121.224621 180.551508 
C 121.119485 178.545393 121.06689 176.536868 121.06689 174.528 
z
" clip-path="url(#pac6130f80d)" style="fill: #0095b6"/>
   </g>
   <g id="patch_13">
    <path d="M 236.16 174.528 
C 236.16 174.528 236.16 174.528 236.16 174.528 
C 236.16 174.528 236.16 174.528 236.16 174.528 
L 239.275496 293.503999 
C 237.198855 293.558378 235.121145 293.558378 233.044504 293.503999 
C 230.967862 293.44962 228.893 293.340881 226.822051 293.177894 
z
" clip-path="url(#pac6130f80d)" style="fill: #0095b6"/>
   </g>
   <g id="patch_14">
    <path d="M 236.16 174.528 
C 236.16 174.528 236.16 174.528 236.16 174.528 
C 236.16 174.528 236.16 174.528 236.16 174.528 
L 358.918518 180.961501 
C 358.806226 183.104164 358.637855 185.24352 358.413578 187.377369 
C 358.189302 189.511218 357.909196 191.63883 357.57355 193.758017 
z
" clip-path="url(#pac6130f80d)" style="fill: #0095b6"/>
   </g>
   <g id="patch_15">
    <path d="M 236.16 174.528 
C 236.16 174.528 236.16 174.528 236.16 174.528 
C 236.16 174.528 236.16 174.528 236.16 174.528 
L 203.141636 63.059872 
C 205.087233 62.48356 207.047585 61.958285 209.020678 61.484587 
C 210.99377 61.01089 212.978927 60.588932 214.974106 60.219147 
z
" clip-path="url(#pac6130f80d)" style="fill: #e3f988"/>
   </g>
   <g id="patch_16">
    <path d="M 236.16 174.528 
C 236.16 174.528 236.16 174.528 236.16 174.528 
C 236.16 174.528 236.16 174.528 236.16 174.528 
L 119.745299 199.272709 
C 119.313397 197.240773 118.934769 195.197877 118.609803 193.146122 
C 118.284837 191.094367 118.013644 189.034455 117.796504 186.968505 
z
" clip-path="url(#pac6130f80d)" style="fill: #e3f988"/>
   </g>
   <g id="patch_17">
    <path d="M 236.16 174.528 
C 236.16 174.528 236.16 174.528 236.16 174.528 
C 236.16 174.528 236.16 174.528 236.16 174.528 
L 252.206915 296.416424 
C 250.07944 296.696512 247.944995 296.920851 245.805777 297.089211 
C 243.666558 297.257571 241.523298 297.369895 239.378199 297.426066 
z
" clip-path="url(#pac6130f80d)" style="fill: #e3f988"/>
   </g>
   <g id="patch_18">
    <path d="M 236.16 174.528 
C 236.16 174.528 236.16 174.528 236.16 174.528 
C 236.16 174.528 236.16 174.528 236.16 174.528 
L 362.706335 167.895988 
C 362.822092 170.104764 362.88 172.316192 362.88 174.528 
C 362.88 176.739808 362.822092 178.951236 362.706335 181.160012 
z
" clip-path="url(#pac6130f80d)" style="fill: #e3f988"/>
   </g>
   <g id="matplotlib.axis_1">
    <g id="xtick_1">
     <g id="line2d_1">
      <path d="M 236.16 174.528 
L 236.16 41.472 
" clip-path="url(#pac6130f80d)" style="fill: none; stroke: #b0b0b0; stroke-width: 0.8; stroke-linecap: square"/>
     </g>
     <g id="text_1">
      <!-- 60 -->
      <g transform="translate(229.7975 30.231375) scale(0.1 -0.1)">
       <defs>
        <path id="DejaVuSans-36" d="M 2113 2584 
Q 1688 2584 1439 2293 
Q 1191 2003 1191 1497 
Q 1191 994 1439 701 
Q 1688 409 2113 409 
Q 2538 409 2786 701 
Q 3034 994 3034 1497 
Q 3034 2003 2786 2293 
Q 2538 2584 2113 2584 
z
M 3366 4563 
L 3366 3988 
Q 3128 4100 2886 4159 
Q 2644 4219 2406 4219 
Q 1781 4219 1451 3797 
Q 1122 3375 1075 2522 
Q 1259 2794 1537 2939 
Q 1816 3084 2150 3084 
Q 2853 3084 3261 2657 
Q 3669 2231 3669 1497 
Q 3669 778 3244 343 
Q 2819 -91 2113 -91 
Q 1303 -91 875 529 
Q 447 1150 447 2328 
Q 447 3434 972 4092 
Q 1497 4750 2381 4750 
Q 2619 4750 2861 4703 
Q 3103 4656 3366 4563 
z
" transform="scale(0.015625)"/>
        <path id="DejaVuSans-30" d="M 2034 4250 
Q 1547 4250 1301 3770 
Q 1056 3291 1056 2328 
Q 1056 1369 1301 889 
Q 1547 409 2034 409 
Q 2525 409 2770 889 
Q 3016 1369 3016 2328 
Q 3016 3291 2770 3770 
Q 2525 4250 2034 4250 
z
M 2034 4750 
Q 2819 4750 3233 4129 
Q 3647 3509 3647 2328 
Q 3647 1150 3233 529 
Q 2819 -91 2034 -91 
Q 1250 -91 836 529 
Q 422 1150 422 2328 
Q 422 3509 836 4129 
Q 1250 4750 2034 4750 
z
" transform="scale(0.015625)"/>
       </defs>
       <use xlink:href="#DejaVuSans-36"/>
       <use xlink:href="#DejaVuSans-30" x="63.623047"/>
      </g>
     </g>
    </g>
    <g id="xtick_2">
     <g id="line2d_2">
      <path d="M 236.16 174.528 
L 103.104 174.528 
" clip-path="url(#pac6130f80d)" style="fill: none; stroke: #b0b0b0; stroke-width: 0.8; stroke-linecap: square"/>
     </g>
     <g id="text_2">
      <!-- 70 -->
      <g transform="translate(82.7415 177.287375) scale(0.1 -0.1)">
       <defs>
        <path id="DejaVuSans-37" d="M 525 4666 
L 3525 4666 
L 3525 4397 
L 1831 0 
L 1172 0 
L 2766 4134 
L 525 4134 
L 525 4666 
z
" transform="scale(0.015625)"/>
       </defs>
       <use xlink:href="#DejaVuSans-37"/>
       <use xlink:href="#DejaVuSans-30" x="63.623047"/>
      </g>
     </g>
    </g>
    <g id="xtick_3">
     <g id="line2d_3">
      <path d="M 236.16 174.528 
L 236.16 307.584 
" clip-path="url(#pac6130f80d)" style="fill: none; stroke: #b0b0b0; stroke-width: 0.8; stroke-linecap: square"/>
     </g>
     <g id="text_3">
      <!-- 80 -->
      <g transform="translate(229.7975 324.343375) scale(0.1 -0.1)">
       <defs>
        <path id="DejaVuSans-38" d="M 2034 2216 
Q 1584 2216 1326 1975 
Q 1069 1734 1069 1313 
Q 1069 891 1326 650 
Q 1584 409 2034 409 
Q 2484 409 2743 651 
Q 3003 894 3003 1313 
Q 3003 1734 2745 1975 
Q 2488 2216 2034 2216 
z
M 1403 2484 
Q 997 2584 770 2862 
Q 544 3141 544 3541 
Q 544 4100 942 4425 
Q 1341 4750 2034 4750 
Q 2731 4750 3128 4425 
Q 3525 4100 3525 3541 
Q 3525 3141 3298 2862 
Q 3072 2584 2669 2484 
Q 3125 2378 3379 2068 
Q 3634 1759 3634 1313 
Q 3634 634 3220 271 
Q 2806 -91 2034 -91 
Q 1263 -91 848 271 
Q 434 634 434 1313 
Q 434 1759 690 2068 
Q 947 2378 1403 2484 
z
M 1172 3481 
Q 1172 3119 1398 2916 
Q 1625 2713 2034 2713 
Q 2441 2713 2670 2916 
Q 2900 3119 2900 3481 
Q 2900 3844 2670 4047 
Q 2441 4250 2034 4250 
Q 1625 4250 1398 4047 
Q 1172 3844 1172 3481 
z
" transform="scale(0.015625)"/>
       </defs>
       <use xlink:href="#DejaVuSans-38"/>
       <use xlink:href="#DejaVuSans-30" x="63.623047"/>
      </g>
     </g>
    </g>
    <g id="xtick_4">
     <g id="line2d_4">
      <path d="M 236.16 174.528 
L 369.216 174.528 
" clip-path="url(#pac6130f80d)" style="fill: none; stroke: #b0b0b0; stroke-width: 0.8; stroke-linecap: square"/>
     </g>
     <g id="text_4">
      <!-- 90 -->
      <g transform="translate(376.8535 177.287375) scale(0.1 -0.1)">
       <defs>
        <path id="DejaVuSans-39" d="M 703 97 
L 703 672 
Q 941 559 1184 500 
Q 1428 441 1663 441 
Q 2288 441 2617 861 
Q 2947 1281 2994 2138 
Q 2813 1869 2534 1725 
Q 2256 1581 1919 1581 
Q 1219 1581 811 2004 
Q 403 2428 403 3163 
Q 403 3881 828 4315 
Q 1253 4750 1959 4750 
Q 2769 4750 3195 4129 
Q 3622 3509 3622 2328 
Q 3622 1225 3098 567 
Q 2575 -91 1691 -91 
Q 1453 -91 1209 -44 
Q 966 3 703 97 
z
M 1959 2075 
Q 2384 2075 2632 2365 
Q 2881 2656 2881 3163 
Q 2881 3666 2632 3958 
Q 2384 4250 1959 4250 
Q 1534 4250 1286 3958 
Q 1038 3666 1038 3163 
Q 1038 2656 1286 2365 
Q 1534 2075 1959 2075 
z
" transform="scale(0.015625)"/>
       </defs>
       <use xlink:href="#DejaVuSans-39"/>
       <use xlink:href="#DejaVuSans-30" x="63.623047"/>
      </g>
     </g>
    </g>
    <g id="text_5">
     <!-- Learning data(%) -->
     <g transform="translate(177.519375 339.541187) scale(0.12 -0.12)">
      <defs>
       <path id="DejaVuSans-Bold-4c" d="M 588 4666 
L 1791 4666 
L 1791 909 
L 3903 909 
L 3903 0 
L 588 0 
L 588 4666 
z
" transform="scale(0.015625)"/>
       <path id="DejaVuSans-Bold-65" d="M 4031 1759 
L 4031 1441 
L 1416 1441 
Q 1456 1047 1700 850 
Q 1944 653 2381 653 
Q 2734 653 3104 758 
Q 3475 863 3866 1075 
L 3866 213 
Q 3469 63 3072 -14 
Q 2675 -91 2278 -91 
Q 1328 -91 801 392 
Q 275 875 275 1747 
Q 275 2603 792 3093 
Q 1309 3584 2216 3584 
Q 3041 3584 3536 3087 
Q 4031 2591 4031 1759 
z
M 2881 2131 
Q 2881 2450 2695 2645 
Q 2509 2841 2209 2841 
Q 1884 2841 1681 2658 
Q 1478 2475 1428 2131 
L 2881 2131 
z
" transform="scale(0.015625)"/>
       <path id="DejaVuSans-Bold-61" d="M 2106 1575 
Q 1756 1575 1579 1456 
Q 1403 1338 1403 1106 
Q 1403 894 1545 773 
Q 1688 653 1941 653 
Q 2256 653 2472 879 
Q 2688 1106 2688 1447 
L 2688 1575 
L 2106 1575 
z
M 3816 1997 
L 3816 0 
L 2688 0 
L 2688 519 
Q 2463 200 2181 54 
Q 1900 -91 1497 -91 
Q 953 -91 614 226 
Q 275 544 275 1050 
Q 275 1666 698 1953 
Q 1122 2241 2028 2241 
L 2688 2241 
L 2688 2328 
Q 2688 2594 2478 2717 
Q 2269 2841 1825 2841 
Q 1466 2841 1156 2769 
Q 847 2697 581 2553 
L 581 3406 
Q 941 3494 1303 3539 
Q 1666 3584 2028 3584 
Q 2975 3584 3395 3211 
Q 3816 2838 3816 1997 
z
" transform="scale(0.015625)"/>
       <path id="DejaVuSans-Bold-72" d="M 3138 2547 
Q 2991 2616 2845 2648 
Q 2700 2681 2553 2681 
Q 2122 2681 1889 2404 
Q 1656 2128 1656 1613 
L 1656 0 
L 538 0 
L 538 3500 
L 1656 3500 
L 1656 2925 
Q 1872 3269 2151 3426 
Q 2431 3584 2822 3584 
Q 2878 3584 2943 3579 
Q 3009 3575 3134 3559 
L 3138 2547 
z
" transform="scale(0.015625)"/>
       <path id="DejaVuSans-Bold-6e" d="M 4056 2131 
L 4056 0 
L 2931 0 
L 2931 347 
L 2931 1631 
Q 2931 2084 2911 2256 
Q 2891 2428 2841 2509 
Q 2775 2619 2662 2680 
Q 2550 2741 2406 2741 
Q 2056 2741 1856 2470 
Q 1656 2200 1656 1722 
L 1656 0 
L 538 0 
L 538 3500 
L 1656 3500 
L 1656 2988 
Q 1909 3294 2193 3439 
Q 2478 3584 2822 3584 
Q 3428 3584 3742 3212 
Q 4056 2841 4056 2131 
z
" transform="scale(0.015625)"/>
       <path id="DejaVuSans-Bold-69" d="M 538 3500 
L 1656 3500 
L 1656 0 
L 538 0 
L 538 3500 
z
M 538 4863 
L 1656 4863 
L 1656 3950 
L 538 3950 
L 538 4863 
z
" transform="scale(0.015625)"/>
       <path id="DejaVuSans-Bold-67" d="M 2919 594 
Q 2688 288 2409 144 
Q 2131 0 1766 0 
Q 1125 0 706 504 
Q 288 1009 288 1791 
Q 288 2575 706 3076 
Q 1125 3578 1766 3578 
Q 2131 3578 2409 3434 
Q 2688 3291 2919 2981 
L 2919 3500 
L 4044 3500 
L 4044 353 
Q 4044 -491 3511 -936 
Q 2978 -1381 1966 -1381 
Q 1638 -1381 1331 -1331 
Q 1025 -1281 716 -1178 
L 716 -306 
Q 1009 -475 1290 -558 
Q 1572 -641 1856 -641 
Q 2406 -641 2662 -400 
Q 2919 -159 2919 353 
L 2919 594 
z
M 2181 2772 
Q 1834 2772 1640 2515 
Q 1447 2259 1447 1791 
Q 1447 1309 1634 1061 
Q 1822 813 2181 813 
Q 2531 813 2725 1069 
Q 2919 1325 2919 1791 
Q 2919 2259 2725 2515 
Q 2531 2772 2181 2772 
z
" transform="scale(0.015625)"/>
       <path id="DejaVuSans-Bold-20" transform="scale(0.015625)"/>
       <path id="DejaVuSans-Bold-64" d="M 2919 2988 
L 2919 4863 
L 4044 4863 
L 4044 0 
L 2919 0 
L 2919 506 
Q 2688 197 2409 53 
Q 2131 -91 1766 -91 
Q 1119 -91 703 423 
Q 288 938 288 1747 
Q 288 2556 703 3070 
Q 1119 3584 1766 3584 
Q 2128 3584 2408 3439 
Q 2688 3294 2919 2988 
z
M 2181 722 
Q 2541 722 2730 984 
Q 2919 1247 2919 1747 
Q 2919 2247 2730 2509 
Q 2541 2772 2181 2772 
Q 1825 2772 1636 2509 
Q 1447 2247 1447 1747 
Q 1447 1247 1636 984 
Q 1825 722 2181 722 
z
" transform="scale(0.015625)"/>
       <path id="DejaVuSans-Bold-74" d="M 1759 4494 
L 1759 3500 
L 2913 3500 
L 2913 2700 
L 1759 2700 
L 1759 1216 
Q 1759 972 1856 886 
Q 1953 800 2241 800 
L 2816 800 
L 2816 0 
L 1856 0 
Q 1194 0 917 276 
Q 641 553 641 1216 
L 641 2700 
L 84 2700 
L 84 3500 
L 641 3500 
L 641 4494 
L 1759 4494 
z
" transform="scale(0.015625)"/>
       <path id="DejaVuSans-Bold-28" d="M 2413 -844 
L 1484 -844 
Q 1006 -72 778 623 
Q 550 1319 550 2003 
Q 550 2688 779 3389 
Q 1009 4091 1484 4856 
L 2413 4856 
Q 2013 4116 1813 3408 
Q 1613 2700 1613 2009 
Q 1613 1319 1811 609 
Q 2009 -100 2413 -844 
z
" transform="scale(0.015625)"/>
       <path id="DejaVuSans-Bold-25" d="M 4959 1925 
Q 4738 1925 4616 1733 
Q 4494 1541 4494 1184 
Q 4494 825 4614 633 
Q 4734 441 4959 441 
Q 5184 441 5303 633 
Q 5422 825 5422 1184 
Q 5422 1541 5301 1733 
Q 5181 1925 4959 1925 
z
M 4959 2450 
Q 5541 2450 5875 2112 
Q 6209 1775 6209 1184 
Q 6209 594 5875 251 
Q 5541 -91 4959 -91 
Q 4378 -91 4042 251 
Q 3706 594 3706 1184 
Q 3706 1772 4042 2111 
Q 4378 2450 4959 2450 
z
M 2094 -91 
L 1403 -91 
L 4319 4750 
L 5013 4750 
L 2094 -91 
z
M 1453 4750 
Q 2034 4750 2367 4411 
Q 2700 4072 2700 3481 
Q 2700 2891 2367 2550 
Q 2034 2209 1453 2209 
Q 872 2209 539 2550 
Q 206 2891 206 3481 
Q 206 4072 539 4411 
Q 872 4750 1453 4750 
z
M 1453 4225 
Q 1228 4225 1106 4031 
Q 984 3838 984 3481 
Q 984 3122 1106 2926 
Q 1228 2731 1453 2731 
Q 1678 2731 1798 2926 
Q 1919 3122 1919 3481 
Q 1919 3838 1797 4031 
Q 1675 4225 1453 4225 
z
" transform="scale(0.015625)"/>
       <path id="DejaVuSans-Bold-29" d="M 513 -844 
Q 913 -100 1113 609 
Q 1313 1319 1313 2009 
Q 1313 2700 1113 3408 
Q 913 4116 513 4856 
L 1441 4856 
Q 1916 4091 2145 3389 
Q 2375 2688 2375 2003 
Q 2375 1319 2147 623 
Q 1919 -72 1441 -844 
L 513 -844 
z
" transform="scale(0.015625)"/>
      </defs>
      <use xlink:href="#DejaVuSans-Bold-4c"/>
      <use xlink:href="#DejaVuSans-Bold-65" x="63.720703"/>
      <use xlink:href="#DejaVuSans-Bold-61" x="131.542969"/>
      <use xlink:href="#DejaVuSans-Bold-72" x="199.023438"/>
      <use xlink:href="#DejaVuSans-Bold-6e" x="248.339844"/>
      <use xlink:href="#DejaVuSans-Bold-69" x="319.53125"/>
      <use xlink:href="#DejaVuSans-Bold-6e" x="353.808594"/>
      <use xlink:href="#DejaVuSans-Bold-67" x="425"/>
      <use xlink:href="#DejaVuSans-Bold-20" x="496.582031"/>
      <use xlink:href="#DejaVuSans-Bold-64" x="531.396484"/>
      <use xlink:href="#DejaVuSans-Bold-61" x="602.978516"/>
      <use xlink:href="#DejaVuSans-Bold-74" x="670.458984"/>
      <use xlink:href="#DejaVuSans-Bold-61" x="718.261719"/>
      <use xlink:href="#DejaVuSans-Bold-28" x="785.742188"/>
      <use xlink:href="#DejaVuSans-Bold-25" x="831.445312"/>
      <use xlink:href="#DejaVuSans-Bold-29" x="931.640625"/>
     </g>
    </g>
   </g>
   <g id="matplotlib.axis_2">
    <g id="ytick_1">
     <g id="line2d_5">
      <path d="M 262.317822 174.528 
C 262.317822 171.092986 261.641199 167.691374 260.326677 164.517835 
C 259.012154 161.344296 257.085295 158.460548 254.656373 156.031627 
C 252.227452 153.602705 249.343704 151.675846 246.170165 150.361323 
C 242.996626 149.046801 239.595014 148.370178 236.16 148.370178 
C 232.724986 148.370178 229.323374 149.046801 226.149835 150.361323 
C 222.976296 151.675846 220.092548 153.602705 217.663627 156.031627 
C 215.234705 158.460548 213.307846 161.344296 211.993323 164.517835 
C 210.678801 167.691374 210.002178 171.092986 210.002178 174.528 
C 210.002178 177.963014 210.678801 181.364626 211.993323 184.538165 
C 213.307846 187.711704 215.234705 190.595452 217.663627 193.024373 
C 220.092548 195.453295 222.976296 197.380154 226.149835 198.694677 
C 229.323374 200.009199 232.724986 200.685822 236.16 200.685822 
C 239.595014 200.685822 242.996626 200.009199 246.170165 198.694677 
C 249.343704 197.380154 252.227452 195.453295 254.656373 193.024373 
C 257.085295 190.595452 259.012154 187.711704 260.326677 184.538165 
C 261.641199 181.364626 262.317822 177.963014 262.317822 174.528 
" clip-path="url(#pac6130f80d)" style="fill: none; stroke: #b0b0b0; stroke-width: 0.8; stroke-linecap: square"/>
     </g>
     <g id="text_6">
      <!-- 20 -->
      <g transform="translate(260.326677 162.438147) scale(0.1 -0.1)">
       <defs>
        <path id="DejaVuSans-32" d="M 1228 531 
L 3431 531 
L 3431 0 
L 469 0 
L 469 531 
Q 828 903 1448 1529 
Q 2069 2156 2228 2338 
Q 2531 2678 2651 2914 
Q 2772 3150 2772 3378 
Q 2772 3750 2511 3984 
Q 2250 4219 1831 4219 
Q 1534 4219 1204 4116 
Q 875 4013 500 3803 
L 500 4441 
Q 881 4594 1212 4672 
Q 1544 4750 1819 4750 
Q 2544 4750 2975 4387 
Q 3406 4025 3406 3419 
Q 3406 3131 3298 2873 
Q 3191 2616 2906 2266 
Q 2828 2175 2409 1742 
Q 1991 1309 1228 531 
z
" transform="scale(0.015625)"/>
       </defs>
       <use xlink:href="#DejaVuSans-32"/>
       <use xlink:href="#DejaVuSans-30" x="63.623047"/>
      </g>
     </g>
    </g>
    <g id="ytick_2">
     <g id="line2d_6">
      <path d="M 288.475644 174.528 
C 288.475644 167.657973 287.122399 160.854747 284.493353 154.50767 
C 281.864307 148.160592 278.01059 142.393096 273.152747 137.535253 
C 268.294904 132.67741 262.527408 128.823693 256.18033 126.194647 
C 249.833253 123.565601 243.030027 122.212356 236.16 122.212356 
C 229.289973 122.212356 222.486747 123.565601 216.13967 126.194647 
C 209.792592 128.823693 204.025096 132.67741 199.167253 137.535253 
C 194.30941 142.393096 190.455693 148.160592 187.826647 154.50767 
C 185.197601 160.854747 183.844356 167.657973 183.844356 174.528 
C 183.844356 181.398027 185.197601 188.201253 187.826647 194.54833 
C 190.455693 200.895408 194.30941 206.662904 199.167253 211.520747 
C 204.025096 216.37859 209.792592 220.232307 216.13967 222.861353 
C 222.486747 225.490399 229.289973 226.843644 236.16 226.843644 
C 243.030027 226.843644 249.833253 225.490399 256.18033 222.861353 
C 262.527408 220.232307 268.294904 216.37859 273.152747 211.520747 
C 278.01059 206.662904 281.864307 200.895408 284.493353 194.54833 
C 287.122399 188.201253 288.475644 181.398027 288.475644 174.528 
" clip-path="url(#pac6130f80d)" style="fill: none; stroke: #b0b0b0; stroke-width: 0.8; stroke-linecap: square"/>
     </g>
     <g id="text_7">
      <!-- 40 -->
      <g transform="translate(284.493353 152.427982) scale(0.1 -0.1)">
       <defs>
        <path id="DejaVuSans-34" d="M 2419 4116 
L 825 1625 
L 2419 1625 
L 2419 4116 
z
M 2253 4666 
L 3047 4666 
L 3047 1625 
L 3713 1625 
L 3713 1100 
L 3047 1100 
L 3047 0 
L 2419 0 
L 2419 1100 
L 313 1100 
L 313 1709 
L 2253 4666 
z
" transform="scale(0.015625)"/>
       </defs>
       <use xlink:href="#DejaVuSans-34"/>
       <use xlink:href="#DejaVuSans-30" x="63.623047"/>
      </g>
     </g>
    </g>
    <g id="ytick_3">
     <g id="line2d_7">
      <path d="M 314.633466 174.528 
C 314.633466 164.222959 312.603598 154.018121 308.66003 144.497504 
C 304.716461 134.976888 298.935885 126.325644 291.64912 119.03888 
C 284.362356 111.752115 275.711112 105.971539 266.190496 102.02797 
C 256.669879 98.084402 246.465041 96.054534 236.16 96.054534 
C 225.854959 96.054534 215.650121 98.084402 206.129504 102.02797 
C 196.608888 105.971539 187.957644 111.752115 180.67088 119.03888 
C 173.384115 126.325644 167.603539 134.976888 163.65997 144.497504 
C 159.716402 154.018121 157.686534 164.222959 157.686534 174.528 
C 157.686534 184.833041 159.716402 195.037879 163.65997 204.558496 
C 167.603539 214.079112 173.384115 222.730356 180.67088 230.01712 
C 187.957644 237.303885 196.608888 243.084461 206.129504 247.02803 
C 215.650121 250.971598 225.854959 253.001466 236.16 253.001466 
C 246.465041 253.001466 256.669879 250.971598 266.190496 247.02803 
C 275.711112 243.084461 284.362356 237.303885 291.64912 230.01712 
C 298.935885 222.730356 304.716461 214.079112 308.66003 204.558496 
C 312.603598 195.037879 314.633466 184.833041 314.633466 174.528 
" clip-path="url(#pac6130f80d)" style="fill: none; stroke: #b0b0b0; stroke-width: 0.8; stroke-linecap: square"/>
     </g>
     <g id="text_8">
      <!-- 60 -->
      <g transform="translate(308.66003 142.417817) scale(0.1 -0.1)">
       <use xlink:href="#DejaVuSans-36"/>
       <use xlink:href="#DejaVuSans-30" x="63.623047"/>
      </g>
     </g>
    </g>
    <g id="ytick_4">
     <g id="line2d_8">
      <path d="M 340.791289 174.528 
C 340.791289 160.787945 338.084797 147.181495 332.826706 134.487339 
C 327.568615 121.793184 319.86118 110.258192 310.145494 100.542506 
C 300.429808 90.82682 288.894816 83.119385 276.200661 77.861294 
C 263.506505 72.603203 249.900055 69.896711 236.16 69.896711 
C 222.419945 69.896711 208.813495 72.603203 196.119339 77.861294 
C 183.425184 83.119385 171.890192 90.82682 162.174506 100.542506 
C 152.45882 110.258192 144.751385 121.793184 139.493294 134.487339 
C 134.235203 147.181495 131.528711 160.787945 131.528711 174.528 
C 131.528711 188.268055 134.235203 201.874505 139.493294 214.568661 
C 144.751385 227.262816 152.45882 238.797808 162.174506 248.513494 
C 171.890192 258.22918 183.425184 265.936615 196.119339 271.194706 
C 208.813495 276.452797 222.419945 279.159289 236.16 279.159289 
C 249.900055 279.159289 263.506505 276.452797 276.200661 271.194706 
C 288.894816 265.936615 300.429808 258.22918 310.145494 248.513494 
C 319.86118 238.797808 327.568615 227.262816 332.826706 214.568661 
C 338.084797 201.874505 340.791289 188.268055 340.791289 174.528 
" clip-path="url(#pac6130f80d)" style="fill: none; stroke: #b0b0b0; stroke-width: 0.8; stroke-linecap: square"/>
     </g>
     <g id="text_9">
      <!-- 80 -->
      <g transform="translate(332.826706 132.407652) scale(0.1 -0.1)">
       <use xlink:href="#DejaVuSans-38"/>
       <use xlink:href="#DejaVuSans-30" x="63.623047"/>
      </g>
     </g>
    </g>
    <g id="ytick_5">
     <g id="line2d_9">
      <path d="M 366.949111 174.528 
C 366.949111 157.352931 363.565997 140.344869 356.993383 124.477174 
C 350.420768 108.60948 340.786475 94.19074 328.641867 82.046133 
C 316.49726 69.901525 302.07852 60.267232 286.210826 53.694617 
C 270.343131 47.122003 253.335069 43.738889 236.16 43.738889 
C 218.984931 43.738889 201.976869 47.122003 186.109174 53.694617 
C 170.24148 60.267232 155.82274 69.901525 143.678133 82.046133 
C 131.533525 94.19074 121.899232 108.60948 115.326617 124.477174 
C 108.754003 140.344869 105.370889 157.352931 105.370889 174.528 
C 105.370889 191.703069 108.754003 208.711131 115.326617 224.578826 
C 121.899232 240.44652 131.533525 254.86526 143.678133 267.009867 
C 155.82274 279.154475 170.24148 288.788768 186.109174 295.361383 
C 201.976869 301.933997 218.984931 305.317111 236.16 305.317111 
C 253.335069 305.317111 270.343131 301.933997 286.210826 295.361383 
C 302.07852 288.788768 316.49726 279.154475 328.641867 267.009867 
C 340.786475 254.86526 350.420768 240.44652 356.993383 224.578826 
C 363.565997 208.711131 366.949111 191.703069 366.949111 174.528 
" clip-path="url(#pac6130f80d)" style="fill: none; stroke: #b0b0b0; stroke-width: 0.8; stroke-linecap: square"/>
     </g>
     <g id="text_10">
      <!-- 100 -->
      <g transform="translate(356.993383 122.397487) scale(0.1 -0.1)">
       <defs>
        <path id="DejaVuSans-31" d="M 794 531 
L 1825 531 
L 1825 4091 
L 703 3866 
L 703 4441 
L 1819 4666 
L 2450 4666 
L 2450 531 
L 3481 531 
L 3481 0 
L 794 0 
L 794 531 
z
" transform="scale(0.015625)"/>
       </defs>
       <use xlink:href="#DejaVuSans-31"/>
       <use xlink:href="#DejaVuSans-30" x="63.623047"/>
       <use xlink:href="#DejaVuSans-30" x="127.246094"/>
      </g>
     </g>
    </g>
   </g>
   <g id="patch_19">
    <path d="M 369.216 174.528 
C 369.216 157.055246 365.774248 139.752393 359.087715 123.609673 
C 352.401182 107.466954 342.599903 92.798303 330.2448 80.4432 
C 317.889697 68.088097 303.221046 58.286818 287.078327 51.600285 
C 270.935607 44.913752 253.632754 41.472 236.16 41.472 
C 218.687246 41.472 201.384393 44.913752 185.241673 51.600285 
C 169.098954 58.286818 154.430303 68.088097 142.0752 80.4432 
C 129.720097 92.798303 119.918818 107.466954 113.232285 123.609673 
C 106.545752 139.752393 103.104 157.055246 103.104 174.528 
C 103.104 192.000754 106.545752 209.303607 113.232285 225.446327 
C 119.918818 241.589046 129.720097 256.257697 142.0752 268.6128 
C 154.430303 280.967903 169.098954 290.769182 185.241673 297.455715 
C 201.384393 304.142248 218.687246 307.584 236.16 307.584 
C 253.632754 307.584 270.935607 304.142248 287.078327 297.455715 
C 303.221046 290.769182 317.889697 280.967903 330.2448 268.6128 
C 342.599903 256.257697 352.401182 241.589046 359.087715 225.446327 
C 365.774248 209.303607 369.216 192.000754 369.216 174.528 
" style="fill: none; stroke: #000000; stroke-width: 0.8; stroke-linejoin: miter; stroke-linecap: square"/>
   </g>
   <g id="text_11">
    <!-- TPR(%) -->
    <g transform="translate(211.5525 16.632938) scale(0.12 -0.12)">
     <defs>
      <path id="DejaVuSans-Bold-54" d="M 31 4666 
L 4331 4666 
L 4331 3756 
L 2784 3756 
L 2784 0 
L 1581 0 
L 1581 3756 
L 31 3756 
L 31 4666 
z
" transform="scale(0.015625)"/>
      <path id="DejaVuSans-Bold-50" d="M 588 4666 
L 2584 4666 
Q 3475 4666 3951 4270 
Q 4428 3875 4428 3144 
Q 4428 2409 3951 2014 
Q 3475 1619 2584 1619 
L 1791 1619 
L 1791 0 
L 588 0 
L 588 4666 
z
M 1791 3794 
L 1791 2491 
L 2456 2491 
Q 2806 2491 2997 2661 
Q 3188 2831 3188 3144 
Q 3188 3456 2997 3625 
Q 2806 3794 2456 3794 
L 1791 3794 
z
" transform="scale(0.015625)"/>
      <path id="DejaVuSans-Bold-52" d="M 2297 2597 
Q 2675 2597 2839 2737 
Q 3003 2878 3003 3200 
Q 3003 3519 2839 3656 
Q 2675 3794 2297 3794 
L 1791 3794 
L 1791 2597 
L 2297 2597 
z
M 1791 1766 
L 1791 0 
L 588 0 
L 588 4666 
L 2425 4666 
Q 3347 4666 3776 4356 
Q 4206 4047 4206 3378 
Q 4206 2916 3982 2619 
Q 3759 2322 3309 2181 
Q 3556 2125 3751 1926 
Q 3947 1728 4147 1325 
L 4800 0 
L 3519 0 
L 2950 1159 
Q 2778 1509 2601 1637 
Q 2425 1766 2131 1766 
L 1791 1766 
z
" transform="scale(0.015625)"/>
     </defs>
     <use xlink:href="#DejaVuSans-Bold-54"/>
     <use xlink:href="#DejaVuSans-Bold-50" x="68.212891"/>
     <use xlink:href="#DejaVuSans-Bold-52" x="141.503906"/>
     <use xlink:href="#DejaVuSans-Bold-28" x="218.505859"/>
     <use xlink:href="#DejaVuSans-Bold-25" x="264.208984"/>
     <use xlink:href="#DejaVuSans-Bold-29" x="364.404297"/>
    </g>
   </g>
   <g id="legend_1">
    <g id="patch_20">
     <path d="M 257.889393 97.148825 
L 452.69408 97.148825 
Q 454.69408 97.148825 454.69408 95.148825 
L 454.69408 41.017575 
Q 454.69408 39.017575 452.69408 39.017575 
L 257.889393 39.017575 
Q 255.889393 39.017575 255.889393 41.017575 
L 255.889393 95.148825 
Q 255.889393 97.148825 257.889393 97.148825 
z
" style="fill: #ffffff; opacity: 0.8; stroke: #cccccc; stroke-linejoin: miter"/>
    </g>
    <g id="patch_21">
     <path d="M 259.889393 50.017575 
L 279.889393 50.017575 
L 279.889393 43.017575 
L 259.889393 43.017575 
z
" style="fill: #73c2fb"/>
    </g>
    <g id="text_12">
     <!-- Proposed TaWSA_WRN With Epoch=10 -->
     <g transform="translate(287.889393 50.017575) scale(0.1 -0.1)">
      <defs>
       <path id="Calibri-Bold-50" d="M 3209 2816 
Q 3209 2475 3103 2212 
Q 2997 1950 2794 1770 
Q 2591 1591 2295 1497 
Q 2000 1403 1600 1403 
L 1263 1403 
L 1263 113 
Q 1263 81 1242 56 
Q 1222 31 1175 15 
Q 1128 0 1050 -9 
Q 972 -19 850 -19 
Q 731 -19 651 -9 
Q 572 0 525 15 
Q 478 31 459 56 
Q 441 81 441 113 
L 441 3750 
Q 441 3897 517 3970 
Q 594 4044 719 4044 
L 1672 4044 
Q 1816 4044 1945 4033 
Q 2075 4022 2256 3986 
Q 2438 3950 2623 3853 
Q 2809 3756 2940 3607 
Q 3072 3459 3140 3261 
Q 3209 3063 3209 2816 
z
M 2350 2756 
Q 2350 2969 2275 3106 
Q 2200 3244 2090 3309 
Q 1981 3375 1861 3392 
Q 1741 3409 1613 3409 
L 1263 3409 
L 1263 2038 
L 1631 2038 
Q 1828 2038 1961 2091 
Q 2094 2144 2178 2239 
Q 2263 2334 2306 2467 
Q 2350 2600 2350 2756 
z
" transform="scale(0.015625)"/>
       <path id="Calibri-Bold-72" d="M 2184 2634 
Q 2184 2522 2178 2450 
Q 2172 2378 2159 2337 
Q 2147 2297 2126 2281 
Q 2106 2266 2075 2266 
Q 2050 2266 2019 2277 
Q 1988 2288 1948 2300 
Q 1909 2313 1862 2323 
Q 1816 2334 1759 2334 
Q 1694 2334 1628 2307 
Q 1563 2281 1492 2225 
Q 1422 2169 1345 2075 
Q 1269 1981 1181 1844 
L 1181 106 
Q 1181 75 1162 51 
Q 1144 28 1098 12 
Q 1053 -3 978 -11 
Q 903 -19 788 -19 
Q 672 -19 597 -11 
Q 522 -3 476 12 
Q 431 28 412 51 
Q 394 75 394 106 
L 394 2894 
Q 394 2925 409 2948 
Q 425 2972 465 2987 
Q 506 3003 570 3011 
Q 634 3019 731 3019 
Q 831 3019 897 3011 
Q 963 3003 998 2987 
Q 1034 2972 1050 2948 
Q 1066 2925 1066 2894 
L 1066 2547 
Q 1175 2703 1272 2804 
Q 1369 2906 1456 2965 
Q 1544 3025 1631 3048 
Q 1719 3072 1806 3072 
Q 1847 3072 1894 3067 
Q 1941 3063 1991 3052 
Q 2041 3041 2078 3027 
Q 2116 3013 2133 2997 
Q 2150 2981 2158 2962 
Q 2166 2944 2172 2911 
Q 2178 2878 2181 2812 
Q 2184 2747 2184 2634 
z
" transform="scale(0.015625)"/>
       <path id="Calibri-Bold-6f" d="M 3213 1528 
Q 3213 1172 3119 878 
Q 3025 584 2834 371 
Q 2644 159 2356 43 
Q 2069 -72 1684 -72 
Q 1313 -72 1038 31 
Q 763 134 581 331 
Q 400 528 312 815 
Q 225 1103 225 1472 
Q 225 1828 320 2123 
Q 416 2419 606 2630 
Q 797 2841 1083 2956 
Q 1369 3072 1753 3072 
Q 2128 3072 2403 2970 
Q 2678 2869 2858 2672 
Q 3038 2475 3125 2187 
Q 3213 1900 3213 1528 
z
M 2403 1497 
Q 2403 1703 2370 1876 
Q 2338 2050 2259 2178 
Q 2181 2306 2051 2378 
Q 1922 2450 1725 2450 
Q 1550 2450 1419 2386 
Q 1288 2322 1203 2198 
Q 1119 2075 1076 1901 
Q 1034 1728 1034 1506 
Q 1034 1300 1068 1126 
Q 1103 953 1179 825 
Q 1256 697 1387 626 
Q 1519 556 1713 556 
Q 1891 556 2022 620 
Q 2153 684 2237 806 
Q 2322 928 2362 1101 
Q 2403 1275 2403 1497 
z
" transform="scale(0.015625)"/>
       <path id="Calibri-Bold-70" d="M 3200 1541 
Q 3200 1169 3120 870 
Q 3041 572 2887 362 
Q 2734 153 2506 40 
Q 2278 -72 1984 -72 
Q 1863 -72 1761 -48 
Q 1659 -25 1564 23 
Q 1469 72 1375 144 
Q 1281 216 1181 313 
L 1181 -1000 
Q 1181 -1031 1162 -1056 
Q 1144 -1081 1098 -1098 
Q 1053 -1116 978 -1125 
Q 903 -1134 788 -1134 
Q 672 -1134 597 -1125 
Q 522 -1116 476 -1098 
Q 431 -1081 412 -1056 
Q 394 -1031 394 -1000 
L 394 2894 
Q 394 2925 409 2948 
Q 425 2972 464 2987 
Q 503 3003 567 3011 
Q 631 3019 728 3019 
Q 822 3019 886 3011 
Q 950 3003 989 2987 
Q 1028 2972 1043 2948 
Q 1059 2925 1059 2894 
L 1059 2566 
Q 1181 2691 1298 2786 
Q 1416 2881 1537 2945 
Q 1659 3009 1789 3040 
Q 1919 3072 2066 3072 
Q 2372 3072 2587 2951 
Q 2803 2831 2939 2622 
Q 3075 2413 3137 2134 
Q 3200 1856 3200 1541 
z
M 2381 1484 
Q 2381 1663 2354 1827 
Q 2328 1991 2264 2119 
Q 2200 2247 2095 2323 
Q 1991 2400 1834 2400 
Q 1756 2400 1679 2376 
Q 1603 2353 1523 2300 
Q 1444 2247 1359 2162 
Q 1275 2078 1181 1953 
L 1181 1034 
Q 1347 825 1497 711 
Q 1647 597 1809 597 
Q 1963 597 2070 675 
Q 2178 753 2247 879 
Q 2316 1006 2348 1165 
Q 2381 1325 2381 1484 
z
" transform="scale(0.015625)"/>
       <path id="Calibri-Bold-73" d="M 2356 894 
Q 2356 656 2267 475 
Q 2178 294 2015 172 
Q 1853 50 1631 -11 
Q 1409 -72 1150 -72 
Q 994 -72 851 -48 
Q 709 -25 596 11 
Q 484 47 409 84 
Q 334 122 300 155 
Q 266 188 247 258 
Q 228 328 228 466 
Q 228 556 234 611 
Q 241 666 253 698 
Q 266 731 284 742 
Q 303 753 331 753 
Q 366 753 433 714 
Q 500 675 600 628 
Q 700 581 833 540 
Q 966 500 1134 500 
Q 1241 500 1323 522 
Q 1406 544 1467 584 
Q 1528 625 1559 687 
Q 1591 750 1591 831 
Q 1591 925 1533 992 
Q 1475 1059 1379 1109 
Q 1284 1159 1164 1203 
Q 1044 1247 917 1300 
Q 791 1353 670 1422 
Q 550 1491 454 1591 
Q 359 1691 301 1831 
Q 244 1972 244 2169 
Q 244 2369 322 2536 
Q 400 2703 547 2822 
Q 694 2941 905 3006 
Q 1116 3072 1378 3072 
Q 1509 3072 1632 3053 
Q 1756 3034 1856 3006 
Q 1956 2978 2025 2945 
Q 2094 2913 2123 2889 
Q 2153 2866 2165 2842 
Q 2178 2819 2184 2786 
Q 2191 2753 2195 2704 
Q 2200 2656 2200 2584 
Q 2200 2500 2195 2447 
Q 2191 2394 2180 2362 
Q 2169 2331 2150 2320 
Q 2131 2309 2106 2309 
Q 2078 2309 2018 2342 
Q 1959 2375 1870 2412 
Q 1781 2450 1664 2483 
Q 1547 2516 1397 2516 
Q 1291 2516 1212 2494 
Q 1134 2472 1084 2431 
Q 1034 2391 1009 2336 
Q 984 2281 984 2219 
Q 984 2122 1043 2056 
Q 1103 1991 1200 1941 
Q 1297 1891 1420 1847 
Q 1544 1803 1670 1751 
Q 1797 1700 1920 1631 
Q 2044 1563 2141 1463 
Q 2238 1363 2297 1223 
Q 2356 1084 2356 894 
z
" transform="scale(0.015625)"/>
       <path id="Calibri-Bold-65" d="M 2969 1581 
Q 2969 1438 2905 1369 
Q 2841 1300 2728 1300 
L 1031 1300 
Q 1031 1122 1073 976 
Q 1116 831 1208 729 
Q 1300 628 1445 575 
Q 1591 522 1794 522 
Q 2000 522 2156 551 
Q 2313 581 2427 617 
Q 2541 653 2616 683 
Q 2691 713 2738 713 
Q 2766 713 2784 702 
Q 2803 691 2815 662 
Q 2828 634 2833 582 
Q 2838 531 2838 453 
Q 2838 384 2834 336 
Q 2831 288 2825 253 
Q 2819 219 2806 195 
Q 2794 172 2773 150 
Q 2753 128 2662 90 
Q 2572 53 2431 17 
Q 2291 -19 2109 -45 
Q 1928 -72 1722 -72 
Q 1350 -72 1070 22 
Q 791 116 603 306 
Q 416 497 323 787 
Q 231 1078 231 1469 
Q 231 1841 328 2139 
Q 425 2438 609 2645 
Q 794 2853 1058 2962 
Q 1322 3072 1653 3072 
Q 2003 3072 2251 2969 
Q 2500 2866 2659 2683 
Q 2819 2500 2894 2250 
Q 2969 2000 2969 1706 
L 2969 1581 
z
M 2206 1806 
Q 2216 2138 2073 2327 
Q 1931 2516 1634 2516 
Q 1484 2516 1373 2459 
Q 1263 2403 1189 2308 
Q 1116 2213 1077 2083 
Q 1038 1953 1031 1806 
L 2206 1806 
z
" transform="scale(0.015625)"/>
       <path id="Calibri-Bold-64" d="M 3038 106 
Q 3038 72 3022 48 
Q 3006 25 2968 9 
Q 2931 -6 2867 -12 
Q 2803 -19 2709 -19 
Q 2609 -19 2546 -12 
Q 2484 -6 2445 9 
Q 2406 25 2389 48 
Q 2372 72 2372 106 
L 2372 416 
Q 2156 184 1920 56 
Q 1684 -72 1397 -72 
Q 1078 -72 858 51 
Q 638 175 498 384 
Q 359 594 296 873 
Q 234 1153 234 1463 
Q 234 1834 314 2131 
Q 394 2428 547 2637 
Q 700 2847 928 2959 
Q 1156 3072 1453 3072 
Q 1688 3072 1878 2976 
Q 2069 2881 2256 2697 
L 2256 4206 
Q 2256 4238 2273 4263 
Q 2291 4288 2336 4305 
Q 2381 4322 2456 4331 
Q 2531 4341 2647 4341 
Q 2763 4341 2838 4331 
Q 2913 4322 2956 4305 
Q 3000 4288 3019 4263 
Q 3038 4238 3038 4206 
L 3038 106 
z
M 2256 1969 
Q 2088 2181 1933 2293 
Q 1778 2406 1609 2406 
Q 1456 2406 1345 2329 
Q 1234 2253 1167 2125 
Q 1100 1997 1067 1839 
Q 1034 1681 1034 1516 
Q 1034 1341 1062 1175 
Q 1091 1009 1155 879 
Q 1219 750 1325 672 
Q 1431 594 1594 594 
Q 1675 594 1751 617 
Q 1828 641 1908 694 
Q 1988 747 2072 833 
Q 2156 919 2256 1044 
L 2256 1969 
z
" transform="scale(0.015625)"/>
       <path id="Calibri-Bold-20" transform="scale(0.015625)"/>
       <path id="Calibri-Bold-54" d="M 3131 3706 
Q 3131 3616 3123 3552 
Q 3116 3488 3100 3448 
Q 3084 3409 3061 3390 
Q 3038 3372 3009 3372 
L 1997 3372 
L 1997 113 
Q 1997 81 1976 56 
Q 1956 31 1909 15 
Q 1863 0 1783 -9 
Q 1703 -19 1584 -19 
Q 1466 -19 1386 -9 
Q 1306 0 1259 15 
Q 1213 31 1192 56 
Q 1172 81 1172 113 
L 1172 3372 
L 159 3372 
Q 128 3372 106 3390 
Q 84 3409 68 3448 
Q 53 3488 45 3552 
Q 38 3616 38 3706 
Q 38 3800 45 3865 
Q 53 3931 68 3970 
Q 84 4009 106 4026 
Q 128 4044 159 4044 
L 3009 4044 
Q 3038 4044 3061 4026 
Q 3084 4009 3100 3970 
Q 3116 3931 3123 3865 
Q 3131 3800 3131 3706 
z
" transform="scale(0.015625)"/>
       <path id="Calibri-Bold-61" d="M 2769 97 
Q 2769 53 2737 28 
Q 2706 3 2639 -8 
Q 2572 -19 2441 -19 
Q 2300 -19 2236 -8 
Q 2172 3 2145 28 
Q 2119 53 2119 97 
L 2119 319 
Q 1947 134 1726 31 
Q 1506 -72 1238 -72 
Q 1016 -72 830 -14 
Q 644 44 508 158 
Q 372 272 297 440 
Q 222 609 222 834 
Q 222 1078 317 1258 
Q 413 1438 602 1555 
Q 791 1672 1072 1728 
Q 1353 1784 1725 1784 
L 1997 1784 
L 1997 1953 
Q 1997 2084 1970 2182 
Q 1944 2281 1883 2347 
Q 1822 2413 1720 2444 
Q 1619 2475 1469 2475 
Q 1272 2475 1117 2431 
Q 963 2388 844 2334 
Q 725 2281 645 2237 
Q 566 2194 516 2194 
Q 481 2194 454 2216 
Q 428 2238 411 2278 
Q 394 2319 384 2378 
Q 375 2438 375 2509 
Q 375 2606 390 2662 
Q 406 2719 450 2764 
Q 494 2809 603 2864 
Q 713 2919 859 2966 
Q 1006 3013 1179 3042 
Q 1353 3072 1538 3072 
Q 1866 3072 2098 3008 
Q 2331 2944 2481 2811 
Q 2631 2678 2700 2468 
Q 2769 2259 2769 1972 
L 2769 97 
z
M 1997 1291 
L 1697 1291 
Q 1506 1291 1372 1262 
Q 1238 1234 1153 1178 
Q 1069 1122 1030 1042 
Q 991 963 991 859 
Q 991 684 1102 584 
Q 1213 484 1409 484 
Q 1575 484 1714 568 
Q 1853 653 1997 816 
L 1997 1291 
z
" transform="scale(0.015625)"/>
       <path id="Calibri-Bold-57" d="M 4697 209 
Q 4678 134 4645 89 
Q 4613 44 4547 20 
Q 4481 -3 4378 -11 
Q 4275 -19 4116 -19 
Q 3938 -19 3830 -11 
Q 3722 -3 3659 20 
Q 3597 44 3569 89 
Q 3541 134 3525 209 
L 2878 2772 
L 2872 2772 
L 2259 209 
Q 2244 138 2216 92 
Q 2188 47 2127 22 
Q 2066 -3 1961 -11 
Q 1856 -19 1684 -19 
Q 1503 -19 1395 -11 
Q 1288 -3 1225 20 
Q 1163 44 1134 89 
Q 1106 134 1088 209 
L 169 3738 
Q 141 3850 137 3914 
Q 134 3978 173 4012 
Q 213 4047 302 4055 
Q 391 4063 550 4063 
Q 697 4063 783 4058 
Q 869 4053 912 4036 
Q 956 4019 972 3986 
Q 988 3953 997 3894 
L 1706 797 
L 1709 797 
L 2447 3872 
Q 2459 3931 2479 3968 
Q 2500 4006 2548 4026 
Q 2597 4047 2681 4055 
Q 2766 4063 2906 4063 
Q 3056 4063 3145 4056 
Q 3234 4050 3282 4029 
Q 3331 4009 3353 3971 
Q 3375 3934 3388 3872 
L 4150 797 
L 4156 797 
L 4866 3884 
Q 4875 3934 4890 3970 
Q 4906 4006 4950 4026 
Q 4994 4047 5075 4055 
Q 5156 4063 5303 4063 
Q 5441 4063 5517 4055 
Q 5594 4047 5628 4012 
Q 5663 3978 5658 3911 
Q 5653 3844 5625 3728 
L 4697 209 
z
" transform="scale(0.015625)"/>
       <path id="Calibri-Bold-53" d="M 2838 1213 
Q 2838 894 2719 653 
Q 2600 413 2397 252 
Q 2194 91 1922 9 
Q 1650 -72 1341 -72 
Q 1131 -72 951 -37 
Q 772 -3 634 45 
Q 497 94 405 147 
Q 313 200 272 240 
Q 231 281 214 357 
Q 197 434 197 578 
Q 197 675 203 740 
Q 209 806 223 847 
Q 238 888 261 905 
Q 284 922 316 922 
Q 359 922 439 870 
Q 519 819 644 756 
Q 769 694 942 642 
Q 1116 591 1344 591 
Q 1494 591 1612 627 
Q 1731 663 1814 728 
Q 1897 794 1940 891 
Q 1984 988 1984 1106 
Q 1984 1244 1909 1342 
Q 1834 1441 1714 1517 
Q 1594 1594 1441 1661 
Q 1288 1728 1125 1803 
Q 963 1878 809 1973 
Q 656 2069 536 2201 
Q 416 2334 341 2515 
Q 266 2697 266 2950 
Q 266 3241 373 3461 
Q 481 3681 664 3826 
Q 847 3972 1095 4044 
Q 1344 4116 1622 4116 
Q 1766 4116 1909 4094 
Q 2053 4072 2178 4034 
Q 2303 3997 2400 3950 
Q 2497 3903 2528 3872 
Q 2559 3841 2570 3819 
Q 2581 3797 2589 3761 
Q 2597 3725 2600 3670 
Q 2603 3616 2603 3534 
Q 2603 3444 2598 3381 
Q 2594 3319 2583 3278 
Q 2572 3238 2551 3219 
Q 2531 3200 2497 3200 
Q 2463 3200 2388 3244 
Q 2313 3288 2203 3339 
Q 2094 3391 1950 3433 
Q 1806 3475 1634 3475 
Q 1500 3475 1400 3442 
Q 1300 3409 1233 3351 
Q 1166 3294 1133 3212 
Q 1100 3131 1100 3041 
Q 1100 2906 1173 2807 
Q 1247 2709 1370 2632 
Q 1494 2556 1650 2489 
Q 1806 2422 1968 2347 
Q 2131 2272 2287 2176 
Q 2444 2081 2566 1948 
Q 2688 1816 2763 1636 
Q 2838 1456 2838 1213 
z
" transform="scale(0.015625)"/>
       <path id="Calibri-Bold-41" d="M 3753 306 
Q 3791 194 3800 128 
Q 3809 63 3775 30 
Q 3741 -3 3653 -11 
Q 3566 -19 3413 -19 
Q 3253 -19 3164 -14 
Q 3075 -9 3028 5 
Q 2981 19 2962 44 
Q 2944 69 2931 109 
L 2659 922 
L 1141 922 
L 884 131 
Q 872 88 851 58 
Q 831 28 786 11 
Q 741 -6 658 -12 
Q 575 -19 441 -19 
Q 297 -19 215 -9 
Q 134 0 103 36 
Q 72 72 81 137 
Q 91 203 128 313 
L 1375 3900 
Q 1394 3953 1419 3986 
Q 1444 4019 1498 4036 
Q 1553 4053 1650 4058 
Q 1747 4063 1906 4063 
Q 2091 4063 2200 4058 
Q 2309 4053 2370 4036 
Q 2431 4019 2457 3984 
Q 2484 3950 2503 3891 
L 3753 306 
z
M 1897 3272 
L 1894 3272 
L 1322 1553 
L 2469 1553 
L 1897 3272 
z
" transform="scale(0.015625)"/>
       <path id="Calibri-Bold-5f" d="M 3206 -850 
Q 3206 -1006 3176 -1073 
Q 3147 -1141 3078 -1141 
L 109 -1141 
Q 38 -1141 8 -1075 
Q -22 -1009 -22 -853 
Q -22 -697 8 -628 
Q 38 -559 109 -559 
L 3078 -559 
Q 3147 -559 3176 -625 
Q 3206 -691 3206 -850 
z
" transform="scale(0.015625)"/>
       <path id="Calibri-Bold-52" d="M 3441 106 
Q 3441 72 3428 48 
Q 3416 25 3369 9 
Q 3322 -6 3231 -12 
Q 3141 -19 2984 -19 
Q 2853 -19 2775 -12 
Q 2697 -6 2651 11 
Q 2606 28 2587 54 
Q 2569 81 2556 119 
L 2194 1022 
Q 2128 1175 2065 1294 
Q 2003 1413 1926 1492 
Q 1850 1572 1750 1612 
Q 1650 1653 1519 1653 
L 1263 1653 
L 1263 113 
Q 1263 81 1242 56 
Q 1222 31 1175 15 
Q 1128 0 1050 -9 
Q 972 -19 850 -19 
Q 731 -19 651 -9 
Q 572 0 525 15 
Q 478 31 459 56 
Q 441 81 441 113 
L 441 3784 
Q 441 3922 511 3983 
Q 581 4044 684 4044 
L 1731 4044 
Q 1891 4044 1994 4037 
Q 2097 4031 2181 4022 
Q 2425 3988 2620 3903 
Q 2816 3819 2952 3683 
Q 3088 3547 3159 3361 
Q 3231 3175 3231 2934 
Q 3231 2731 3179 2564 
Q 3128 2397 3028 2265 
Q 2928 2134 2781 2037 
Q 2634 1941 2447 1881 
Q 2538 1838 2617 1775 
Q 2697 1713 2767 1623 
Q 2838 1534 2900 1420 
Q 2963 1306 3022 1163 
L 3363 366 
Q 3409 247 3425 192 
Q 3441 138 3441 106 
z
M 2381 2850 
Q 2381 3050 2290 3187 
Q 2200 3325 1994 3381 
Q 1931 3397 1851 3406 
Q 1772 3416 1631 3416 
L 1263 3416 
L 1263 2269 
L 1681 2269 
Q 1856 2269 1987 2311 
Q 2119 2353 2206 2429 
Q 2294 2506 2337 2612 
Q 2381 2719 2381 2850 
z
" transform="scale(0.015625)"/>
       <path id="Calibri-Bold-4e" d="M 3775 288 
Q 3775 216 3750 159 
Q 3725 103 3683 65 
Q 3641 28 3583 11 
Q 3525 -6 3466 -6 
L 3116 -6 
Q 3006 -6 2926 16 
Q 2847 38 2780 95 
Q 2713 153 2650 251 
Q 2588 350 2509 506 
L 1503 2397 
Q 1416 2566 1325 2761 
Q 1234 2956 1163 3141 
L 1156 3141 
Q 1169 2916 1175 2692 
Q 1181 2469 1181 2231 
L 1181 116 
Q 1181 84 1164 59 
Q 1147 34 1105 17 
Q 1063 0 991 -9 
Q 919 -19 806 -19 
Q 697 -19 625 -9 
Q 553 0 512 17 
Q 472 34 456 59 
Q 441 84 441 116 
L 441 3750 
Q 441 3897 527 3970 
Q 613 4044 738 4044 
L 1178 4044 
Q 1297 4044 1378 4023 
Q 1459 4003 1523 3956 
Q 1588 3909 1644 3826 
Q 1700 3744 1759 3622 
L 2547 2144 
Q 2616 2009 2683 1879 
Q 2750 1750 2812 1620 
Q 2875 1491 2934 1366 
Q 2994 1241 3050 1116 
L 3053 1116 
Q 3044 1334 3039 1571 
Q 3034 1809 3034 2025 
L 3034 3922 
Q 3034 3953 3053 3978 
Q 3072 4003 3115 4022 
Q 3159 4041 3231 4048 
Q 3303 4056 3416 4056 
Q 3522 4056 3594 4048 
Q 3666 4041 3705 4022 
Q 3744 4003 3759 3978 
Q 3775 3953 3775 3922 
L 3775 288 
z
" transform="scale(0.015625)"/>
       <path id="Calibri-Bold-69" d="M 1181 106 
Q 1181 75 1162 51 
Q 1144 28 1098 12 
Q 1053 -3 978 -11 
Q 903 -19 788 -19 
Q 672 -19 597 -11 
Q 522 -3 476 12 
Q 431 28 412 51 
Q 394 75 394 106 
L 394 2888 
Q 394 2919 412 2942 
Q 431 2966 476 2983 
Q 522 3000 597 3009 
Q 672 3019 788 3019 
Q 903 3019 978 3009 
Q 1053 3000 1098 2983 
Q 1144 2966 1162 2942 
Q 1181 2919 1181 2888 
L 1181 106 
z
M 1241 3838 
Q 1241 3600 1144 3509 
Q 1047 3419 784 3419 
Q 519 3419 426 3506 
Q 334 3594 334 3822 
Q 334 4059 429 4151 
Q 525 4244 791 4244 
Q 1053 4244 1147 4155 
Q 1241 4066 1241 3838 
z
" transform="scale(0.015625)"/>
       <path id="Calibri-Bold-74" d="M 2044 381 
Q 2044 244 2026 170 
Q 2009 97 1981 67 
Q 1953 38 1898 14 
Q 1844 -9 1770 -26 
Q 1697 -44 1611 -53 
Q 1525 -63 1438 -63 
Q 1203 -63 1031 -3 
Q 859 56 746 179 
Q 634 303 581 490 
Q 528 678 528 934 
L 528 2363 
L 194 2363 
Q 134 2363 103 2436 
Q 72 2509 72 2681 
Q 72 2772 80 2834 
Q 88 2897 103 2933 
Q 119 2969 142 2984 
Q 166 3000 197 3000 
L 528 3000 
L 528 3622 
Q 528 3653 545 3678 
Q 563 3703 608 3720 
Q 653 3738 729 3745 
Q 806 3753 919 3753 
Q 1034 3753 1111 3745 
Q 1188 3738 1231 3720 
Q 1275 3703 1294 3678 
Q 1313 3653 1313 3622 
L 1313 3000 
L 1919 3000 
Q 1950 3000 1973 2984 
Q 1997 2969 2012 2933 
Q 2028 2897 2036 2834 
Q 2044 2772 2044 2681 
Q 2044 2509 2012 2436 
Q 1981 2363 1922 2363 
L 1313 2363 
L 1313 1053 
Q 1313 825 1384 711 
Q 1456 597 1641 597 
Q 1703 597 1753 608 
Q 1803 619 1842 633 
Q 1881 647 1907 658 
Q 1934 669 1956 669 
Q 1975 669 1992 658 
Q 2009 647 2018 614 
Q 2028 581 2036 525 
Q 2044 469 2044 381 
z
" transform="scale(0.015625)"/>
       <path id="Calibri-Bold-68" d="M 3056 106 
Q 3056 75 3037 51 
Q 3019 28 2975 12 
Q 2931 -3 2854 -11 
Q 2778 -19 2666 -19 
Q 2550 -19 2473 -11 
Q 2397 -3 2353 12 
Q 2309 28 2290 51 
Q 2272 75 2272 106 
L 2272 1697 
Q 2272 1900 2242 2015 
Q 2213 2131 2156 2214 
Q 2100 2297 2011 2342 
Q 1922 2388 1803 2388 
Q 1653 2388 1500 2278 
Q 1347 2169 1181 1959 
L 1181 106 
Q 1181 75 1162 51 
Q 1144 28 1098 12 
Q 1053 -3 978 -11 
Q 903 -19 788 -19 
Q 672 -19 597 -11 
Q 522 -3 476 12 
Q 431 28 412 51 
Q 394 75 394 106 
L 394 4216 
Q 394 4247 412 4272 
Q 431 4297 476 4314 
Q 522 4331 597 4340 
Q 672 4350 788 4350 
Q 903 4350 978 4340 
Q 1053 4331 1098 4314 
Q 1144 4297 1162 4272 
Q 1181 4247 1181 4216 
L 1181 2675 
Q 1384 2875 1595 2973 
Q 1806 3072 2034 3072 
Q 2319 3072 2514 2978 
Q 2709 2884 2829 2721 
Q 2950 2559 3003 2342 
Q 3056 2125 3056 1816 
L 3056 106 
z
" transform="scale(0.015625)"/>
       <path id="Calibri-Bold-45" d="M 2838 322 
Q 2838 231 2830 170 
Q 2822 109 2806 71 
Q 2791 34 2767 17 
Q 2744 0 2716 0 
L 684 0 
Q 581 0 511 61 
Q 441 122 441 259 
L 441 3784 
Q 441 3922 511 3983 
Q 581 4044 684 4044 
L 2703 4044 
Q 2731 4044 2753 4028 
Q 2775 4013 2790 3973 
Q 2806 3934 2814 3873 
Q 2822 3813 2822 3719 
Q 2822 3631 2814 3570 
Q 2806 3509 2790 3471 
Q 2775 3434 2753 3417 
Q 2731 3400 2703 3400 
L 1259 3400 
L 1259 2413 
L 2481 2413 
Q 2509 2413 2532 2395 
Q 2556 2378 2572 2342 
Q 2588 2306 2595 2245 
Q 2603 2184 2603 2097 
Q 2603 2006 2595 1947 
Q 2588 1888 2572 1852 
Q 2556 1816 2532 1800 
Q 2509 1784 2481 1784 
L 1259 1784 
L 1259 644 
L 2716 644 
Q 2744 644 2767 626 
Q 2791 609 2806 571 
Q 2822 534 2830 473 
Q 2838 413 2838 322 
z
" transform="scale(0.015625)"/>
       <path id="Calibri-Bold-63" d="M 2503 550 
Q 2503 469 2498 414 
Q 2494 359 2486 321 
Q 2478 284 2467 261 
Q 2456 238 2418 202 
Q 2381 166 2290 114 
Q 2200 63 2084 22 
Q 1969 -19 1833 -44 
Q 1697 -69 1553 -69 
Q 1231 -69 982 31 
Q 734 131 565 326 
Q 397 522 311 803 
Q 225 1084 225 1447 
Q 225 1866 329 2170 
Q 434 2475 621 2675 
Q 809 2875 1065 2972 
Q 1322 3069 1628 3069 
Q 1753 3069 1873 3047 
Q 1994 3025 2098 2987 
Q 2203 2950 2286 2903 
Q 2369 2856 2403 2822 
Q 2438 2788 2452 2764 
Q 2466 2741 2473 2703 
Q 2481 2666 2486 2611 
Q 2491 2556 2491 2478 
Q 2491 2297 2459 2223 
Q 2428 2150 2378 2150 
Q 2325 2150 2265 2194 
Q 2206 2238 2125 2291 
Q 2044 2344 1931 2387 
Q 1819 2431 1663 2431 
Q 1356 2431 1193 2195 
Q 1031 1959 1031 1503 
Q 1031 1278 1072 1106 
Q 1113 934 1192 818 
Q 1272 703 1392 645 
Q 1513 588 1672 588 
Q 1834 588 1951 636 
Q 2069 684 2156 743 
Q 2244 803 2303 851 
Q 2363 900 2403 900 
Q 2431 900 2450 884 
Q 2469 869 2480 826 
Q 2491 784 2497 718 
Q 2503 653 2503 550 
z
" transform="scale(0.015625)"/>
       <path id="Calibri-Bold-3d" d="M 2919 2434 
Q 2919 2269 2883 2200 
Q 2847 2131 2781 2131 
L 397 2131 
Q 331 2131 295 2200 
Q 259 2269 259 2434 
Q 259 2594 292 2662 
Q 325 2731 397 2731 
L 2781 2731 
Q 2853 2731 2886 2662 
Q 2919 2594 2919 2434 
z
M 2919 1172 
Q 2919 1003 2883 937 
Q 2847 872 2781 872 
L 397 872 
Q 331 872 295 937 
Q 259 1003 259 1172 
Q 259 1331 292 1401 
Q 325 1472 397 1472 
L 2781 1472 
Q 2853 1472 2886 1401 
Q 2919 1331 2919 1172 
z
" transform="scale(0.015625)"/>
       <path id="Calibri-Bold-31" d="M 2950 313 
Q 2950 225 2940 164 
Q 2931 103 2914 67 
Q 2897 31 2875 15 
Q 2853 0 2825 0 
L 594 0 
Q 569 0 547 15 
Q 525 31 508 67 
Q 491 103 481 164 
Q 472 225 472 313 
Q 472 403 480 464 
Q 488 525 505 562 
Q 522 600 544 617 
Q 566 634 594 634 
L 1347 634 
L 1347 3266 
L 697 2906 
Q 625 2872 579 2864 
Q 534 2856 507 2882 
Q 481 2909 472 2975 
Q 463 3041 463 3159 
Q 463 3234 466 3282 
Q 469 3331 481 3365 
Q 494 3400 516 3422 
Q 538 3444 575 3469 
L 1444 4031 
Q 1459 4044 1482 4051 
Q 1506 4059 1543 4064 
Q 1581 4069 1642 4070 
Q 1703 4072 1800 4072 
Q 1919 4072 1992 4067 
Q 2066 4063 2103 4052 
Q 2141 4041 2153 4022 
Q 2166 4003 2166 3975 
L 2166 634 
L 2825 634 
Q 2853 634 2876 617 
Q 2900 600 2917 562 
Q 2934 525 2942 464 
Q 2950 403 2950 313 
z
" transform="scale(0.015625)"/>
       <path id="Calibri-Bold-30" d="M 3069 2038 
Q 3069 1553 2991 1162 
Q 2913 772 2736 497 
Q 2559 222 2276 75 
Q 1994 -72 1584 -72 
Q 1169 -72 897 70 
Q 625 213 465 480 
Q 306 747 242 1133 
Q 178 1519 178 2006 
Q 178 2488 258 2880 
Q 338 3272 514 3547 
Q 691 3822 973 3969 
Q 1256 4116 1663 4116 
Q 2078 4116 2351 3973 
Q 2625 3831 2784 3564 
Q 2944 3297 3006 2911 
Q 3069 2525 3069 2038 
z
M 2241 1997 
Q 2241 2284 2225 2504 
Q 2209 2725 2176 2887 
Q 2144 3050 2095 3162 
Q 2047 3275 1978 3342 
Q 1909 3409 1821 3437 
Q 1734 3466 1628 3466 
Q 1444 3466 1323 3377 
Q 1203 3288 1133 3109 
Q 1063 2931 1034 2665 
Q 1006 2400 1006 2047 
Q 1006 1616 1040 1333 
Q 1075 1050 1148 883 
Q 1222 716 1337 648 
Q 1453 581 1616 581 
Q 1738 581 1831 620 
Q 1925 659 1995 737 
Q 2066 816 2112 934 
Q 2159 1053 2189 1209 
Q 2219 1366 2230 1562 
Q 2241 1759 2241 1997 
z
" transform="scale(0.015625)"/>
      </defs>
      <use xlink:href="#Calibri-Bold-50"/>
      <use xlink:href="#Calibri-Bold-72" x="53.222656"/>
      <use xlink:href="#Calibri-Bold-6f" x="88.769531"/>
      <use xlink:href="#Calibri-Bold-70" x="142.529297"/>
      <use xlink:href="#Calibri-Bold-6f" x="196.191406"/>
      <use xlink:href="#Calibri-Bold-73" x="249.951172"/>
      <use xlink:href="#Calibri-Bold-65" x="289.84375"/>
      <use xlink:href="#Calibri-Bold-64" x="340.185547"/>
      <use xlink:href="#Calibri-Bold-20" x="393.847656"/>
      <use xlink:href="#Calibri-Bold-54" x="416.455078"/>
      <use xlink:href="#Calibri-Bold-61" x="465.966797"/>
      <use xlink:href="#Calibri-Bold-57" x="515.332031"/>
      <use xlink:href="#Calibri-Bold-53" x="605.957031"/>
      <use xlink:href="#Calibri-Bold-41" x="653.222656"/>
      <use xlink:href="#Calibri-Bold-5f" x="713.818359"/>
      <use xlink:href="#Calibri-Bold-57" x="763.623047"/>
      <use xlink:href="#Calibri-Bold-52" x="854.248047"/>
      <use xlink:href="#Calibri-Bold-4e" x="910.546875"/>
      <use xlink:href="#Calibri-Bold-20" x="976.416016"/>
      <use xlink:href="#Calibri-Bold-57" x="999.023438"/>
      <use xlink:href="#Calibri-Bold-69" x="1089.648438"/>
      <use xlink:href="#Calibri-Bold-74" x="1114.208984"/>
      <use xlink:href="#Calibri-Bold-68" x="1148.876953"/>
      <use xlink:href="#Calibri-Bold-20" x="1202.539062"/>
      <use xlink:href="#Calibri-Bold-45" x="1225.146484"/>
      <use xlink:href="#Calibri-Bold-70" x="1273.925781"/>
      <use xlink:href="#Calibri-Bold-6f" x="1327.587891"/>
      <use xlink:href="#Calibri-Bold-63" x="1381.347656"/>
      <use xlink:href="#Calibri-Bold-68" x="1423.193359"/>
      <use xlink:href="#Calibri-Bold-3d" x="1476.855469"/>
      <use xlink:href="#Calibri-Bold-31" x="1526.660156"/>
      <use xlink:href="#Calibri-Bold-30" x="1577.34375"/>
     </g>
    </g>
    <g id="patch_22">
     <path d="M 259.889393 63.800387 
L 279.889393 63.800387 
L 279.889393 56.800387 
L 259.889393 56.800387 
z
" style="fill: #fdbcb4"/>
    </g>
    <g id="text_13">
     <!-- Proposed TaWSA_WRN With Epoch=20 -->
     <g transform="translate(287.889393 63.800387) scale(0.1 -0.1)">
      <defs>
       <path id="Calibri-Bold-32" d="M 2988 334 
Q 2988 244 2980 180 
Q 2972 116 2956 75 
Q 2941 34 2916 17 
Q 2891 0 2859 0 
L 534 0 
Q 466 0 416 12 
Q 366 25 334 61 
Q 303 97 289 165 
Q 275 234 275 344 
Q 275 447 284 520 
Q 294 594 319 651 
Q 344 709 383 764 
Q 422 819 484 884 
L 1184 1634 
Q 1394 1853 1522 2033 
Q 1650 2213 1722 2361 
Q 1794 2509 1820 2634 
Q 1847 2759 1847 2872 
Q 1847 2975 1814 3067 
Q 1781 3159 1717 3228 
Q 1653 3297 1556 3336 
Q 1459 3375 1328 3375 
Q 1144 3375 1001 3328 
Q 859 3281 751 3223 
Q 644 3166 572 3117 
Q 500 3069 459 3069 
Q 431 3069 411 3087 
Q 391 3106 378 3150 
Q 366 3194 358 3267 
Q 350 3341 350 3447 
Q 350 3519 354 3567 
Q 359 3616 368 3652 
Q 378 3688 393 3714 
Q 409 3741 448 3778 
Q 488 3816 592 3873 
Q 697 3931 850 3986 
Q 1003 4041 1187 4078 
Q 1372 4116 1572 4116 
Q 1888 4116 2123 4036 
Q 2359 3956 2515 3814 
Q 2672 3672 2748 3476 
Q 2825 3281 2825 3056 
Q 2825 2859 2787 2668 
Q 2750 2478 2631 2258 
Q 2513 2038 2297 1770 
Q 2081 1503 1725 1150 
L 1253 666 
L 2847 666 
Q 2878 666 2904 647 
Q 2931 628 2950 589 
Q 2969 550 2978 486 
Q 2988 422 2988 334 
z
" transform="scale(0.015625)"/>
      </defs>
      <use xlink:href="#Calibri-Bold-50"/>
      <use xlink:href="#Calibri-Bold-72" x="53.222656"/>
      <use xlink:href="#Calibri-Bold-6f" x="88.769531"/>
      <use xlink:href="#Calibri-Bold-70" x="142.529297"/>
      <use xlink:href="#Calibri-Bold-6f" x="196.191406"/>
      <use xlink:href="#Calibri-Bold-73" x="249.951172"/>
      <use xlink:href="#Calibri-Bold-65" x="289.84375"/>
      <use xlink:href="#Calibri-Bold-64" x="340.185547"/>
      <use xlink:href="#Calibri-Bold-20" x="393.847656"/>
      <use xlink:href="#Calibri-Bold-54" x="416.455078"/>
      <use xlink:href="#Calibri-Bold-61" x="465.966797"/>
      <use xlink:href="#Calibri-Bold-57" x="515.332031"/>
      <use xlink:href="#Calibri-Bold-53" x="605.957031"/>
      <use xlink:href="#Calibri-Bold-41" x="653.222656"/>
      <use xlink:href="#Calibri-Bold-5f" x="713.818359"/>
      <use xlink:href="#Calibri-Bold-57" x="763.623047"/>
      <use xlink:href="#Calibri-Bold-52" x="854.248047"/>
      <use xlink:href="#Calibri-Bold-4e" x="910.546875"/>
      <use xlink:href="#Calibri-Bold-20" x="976.416016"/>
      <use xlink:href="#Calibri-Bold-57" x="999.023438"/>
      <use xlink:href="#Calibri-Bold-69" x="1089.648438"/>
      <use xlink:href="#Calibri-Bold-74" x="1114.208984"/>
      <use xlink:href="#Calibri-Bold-68" x="1148.876953"/>
      <use xlink:href="#Calibri-Bold-20" x="1202.539062"/>
      <use xlink:href="#Calibri-Bold-45" x="1225.146484"/>
      <use xlink:href="#Calibri-Bold-70" x="1273.925781"/>
      <use xlink:href="#Calibri-Bold-6f" x="1327.587891"/>
      <use xlink:href="#Calibri-Bold-63" x="1381.347656"/>
      <use xlink:href="#Calibri-Bold-68" x="1423.193359"/>
      <use xlink:href="#Calibri-Bold-3d" x="1476.855469"/>
      <use xlink:href="#Calibri-Bold-32" x="1526.660156"/>
      <use xlink:href="#Calibri-Bold-30" x="1577.34375"/>
     </g>
    </g>
    <g id="patch_23">
     <path d="M 259.889393 77.5832 
L 279.889393 77.5832 
L 279.889393 70.5832 
L 259.889393 70.5832 
z
" style="fill: #0095b6"/>
    </g>
    <g id="text_14">
     <!-- Proposed TaWSA_WRN With Epoch=30 -->
     <g transform="translate(287.889393 77.5832) scale(0.1 -0.1)">
      <defs>
       <path id="Calibri-Bold-33" d="M 2969 1184 
Q 2969 881 2853 647 
Q 2738 413 2531 253 
Q 2325 94 2037 11 
Q 1750 -72 1409 -72 
Q 1203 -72 1022 -42 
Q 841 -13 702 31 
Q 563 75 472 122 
Q 381 169 353 194 
Q 325 219 311 250 
Q 297 281 286 323 
Q 275 366 270 430 
Q 266 494 266 584 
Q 266 734 291 792 
Q 316 850 366 850 
Q 397 850 473 808 
Q 550 766 669 717 
Q 788 669 947 626 
Q 1106 584 1309 584 
Q 1481 584 1612 625 
Q 1744 666 1836 739 
Q 1928 813 1973 917 
Q 2019 1022 2019 1150 
Q 2019 1291 1964 1403 
Q 1909 1516 1801 1595 
Q 1694 1675 1530 1719 
Q 1366 1763 1144 1763 
L 794 1763 
Q 753 1763 725 1773 
Q 697 1784 678 1818 
Q 659 1853 651 1914 
Q 644 1975 644 2072 
Q 644 2163 651 2220 
Q 659 2278 676 2309 
Q 694 2341 720 2353 
Q 747 2366 784 2366 
L 1138 2366 
Q 1319 2366 1459 2408 
Q 1600 2450 1695 2528 
Q 1791 2606 1841 2717 
Q 1891 2828 1891 2963 
Q 1891 3066 1856 3158 
Q 1822 3250 1755 3317 
Q 1688 3384 1581 3423 
Q 1475 3463 1331 3463 
Q 1169 3463 1025 3414 
Q 881 3366 767 3308 
Q 653 3250 573 3200 
Q 494 3150 456 3150 
Q 431 3150 412 3161 
Q 394 3172 381 3203 
Q 369 3234 362 3293 
Q 356 3353 356 3447 
Q 356 3525 359 3576 
Q 363 3628 372 3662 
Q 381 3697 395 3722 
Q 409 3747 440 3776 
Q 472 3806 569 3865 
Q 666 3925 812 3981 
Q 959 4038 1151 4077 
Q 1344 4116 1569 4116 
Q 1863 4116 2089 4047 
Q 2316 3978 2470 3848 
Q 2625 3719 2704 3530 
Q 2784 3341 2784 3103 
Q 2784 2919 2737 2759 
Q 2691 2600 2600 2475 
Q 2509 2350 2373 2262 
Q 2238 2175 2059 2131 
L 2059 2122 
Q 2272 2097 2440 2014 
Q 2609 1931 2726 1806 
Q 2844 1681 2906 1523 
Q 2969 1366 2969 1184 
z
" transform="scale(0.015625)"/>
      </defs>
      <use xlink:href="#Calibri-Bold-50"/>
      <use xlink:href="#Calibri-Bold-72" x="53.222656"/>
      <use xlink:href="#Calibri-Bold-6f" x="88.769531"/>
      <use xlink:href="#Calibri-Bold-70" x="142.529297"/>
      <use xlink:href="#Calibri-Bold-6f" x="196.191406"/>
      <use xlink:href="#Calibri-Bold-73" x="249.951172"/>
      <use xlink:href="#Calibri-Bold-65" x="289.84375"/>
      <use xlink:href="#Calibri-Bold-64" x="340.185547"/>
      <use xlink:href="#Calibri-Bold-20" x="393.847656"/>
      <use xlink:href="#Calibri-Bold-54" x="416.455078"/>
      <use xlink:href="#Calibri-Bold-61" x="465.966797"/>
      <use xlink:href="#Calibri-Bold-57" x="515.332031"/>
      <use xlink:href="#Calibri-Bold-53" x="605.957031"/>
      <use xlink:href="#Calibri-Bold-41" x="653.222656"/>
      <use xlink:href="#Calibri-Bold-5f" x="713.818359"/>
      <use xlink:href="#Calibri-Bold-57" x="763.623047"/>
      <use xlink:href="#Calibri-Bold-52" x="854.248047"/>
      <use xlink:href="#Calibri-Bold-4e" x="910.546875"/>
      <use xlink:href="#Calibri-Bold-20" x="976.416016"/>
      <use xlink:href="#Calibri-Bold-57" x="999.023438"/>
      <use xlink:href="#Calibri-Bold-69" x="1089.648438"/>
      <use xlink:href="#Calibri-Bold-74" x="1114.208984"/>
      <use xlink:href="#Calibri-Bold-68" x="1148.876953"/>
      <use xlink:href="#Calibri-Bold-20" x="1202.539062"/>
      <use xlink:href="#Calibri-Bold-45" x="1225.146484"/>
      <use xlink:href="#Calibri-Bold-70" x="1273.925781"/>
      <use xlink:href="#Calibri-Bold-6f" x="1327.587891"/>
      <use xlink:href="#Calibri-Bold-63" x="1381.347656"/>
      <use xlink:href="#Calibri-Bold-68" x="1423.193359"/>
      <use xlink:href="#Calibri-Bold-3d" x="1476.855469"/>
      <use xlink:href="#Calibri-Bold-33" x="1526.660156"/>
      <use xlink:href="#Calibri-Bold-30" x="1577.34375"/>
     </g>
    </g>
    <g id="patch_24">
     <path d="M 259.889393 91.366012 
L 279.889393 91.366012 
L 279.889393 84.366012 
L 259.889393 84.366012 
z
" style="fill: #e3f988"/>
    </g>
    <g id="text_15">
     <!-- Proposed TaWSA_WRN With Epoch=40 -->
     <g transform="translate(287.889393 91.366012) scale(0.1 -0.1)">
      <defs>
       <path id="Calibri-Bold-34" d="M 3113 1163 
Q 3113 1003 3080 920 
Q 3047 838 2991 838 
L 2631 838 
L 2631 106 
Q 2631 75 2612 51 
Q 2594 28 2547 12 
Q 2500 -3 2425 -11 
Q 2350 -19 2231 -19 
Q 2119 -19 2042 -11 
Q 1966 -3 1920 12 
Q 1875 28 1858 51 
Q 1841 75 1841 106 
L 1841 838 
L 294 838 
Q 250 838 215 848 
Q 181 859 157 898 
Q 134 938 123 1011 
Q 113 1084 113 1206 
Q 113 1306 117 1379 
Q 122 1453 133 1512 
Q 144 1572 164 1625 
Q 184 1678 216 1738 
L 1472 3953 
Q 1488 3981 1525 4001 
Q 1563 4022 1630 4036 
Q 1697 4050 1800 4056 
Q 1903 4063 2050 4063 
Q 2209 4063 2321 4055 
Q 2434 4047 2501 4030 
Q 2569 4013 2600 3988 
Q 2631 3963 2631 3928 
L 2631 1494 
L 2991 1494 
Q 3041 1494 3077 1417 
Q 3113 1341 3113 1163 
z
M 1841 3353 
L 1834 3353 
L 769 1494 
L 1841 1494 
L 1841 3353 
z
" transform="scale(0.015625)"/>
      </defs>
      <use xlink:href="#Calibri-Bold-50"/>
      <use xlink:href="#Calibri-Bold-72" x="53.222656"/>
      <use xlink:href="#Calibri-Bold-6f" x="88.769531"/>
      <use xlink:href="#Calibri-Bold-70" x="142.529297"/>
      <use xlink:href="#Calibri-Bold-6f" x="196.191406"/>
      <use xlink:href="#Calibri-Bold-73" x="249.951172"/>
      <use xlink:href="#Calibri-Bold-65" x="289.84375"/>
      <use xlink:href="#Calibri-Bold-64" x="340.185547"/>
      <use xlink:href="#Calibri-Bold-20" x="393.847656"/>
      <use xlink:href="#Calibri-Bold-54" x="416.455078"/>
      <use xlink:href="#Calibri-Bold-61" x="465.966797"/>
      <use xlink:href="#Calibri-Bold-57" x="515.332031"/>
      <use xlink:href="#Calibri-Bold-53" x="605.957031"/>
      <use xlink:href="#Calibri-Bold-41" x="653.222656"/>
      <use xlink:href="#Calibri-Bold-5f" x="713.818359"/>
      <use xlink:href="#Calibri-Bold-57" x="763.623047"/>
      <use xlink:href="#Calibri-Bold-52" x="854.248047"/>
      <use xlink:href="#Calibri-Bold-4e" x="910.546875"/>
      <use xlink:href="#Calibri-Bold-20" x="976.416016"/>
      <use xlink:href="#Calibri-Bold-57" x="999.023438"/>
      <use xlink:href="#Calibri-Bold-69" x="1089.648438"/>
      <use xlink:href="#Calibri-Bold-74" x="1114.208984"/>
      <use xlink:href="#Calibri-Bold-68" x="1148.876953"/>
      <use xlink:href="#Calibri-Bold-20" x="1202.539062"/>
      <use xlink:href="#Calibri-Bold-45" x="1225.146484"/>
      <use xlink:href="#Calibri-Bold-70" x="1273.925781"/>
      <use xlink:href="#Calibri-Bold-6f" x="1327.587891"/>
      <use xlink:href="#Calibri-Bold-63" x="1381.347656"/>
      <use xlink:href="#Calibri-Bold-68" x="1423.193359"/>
      <use xlink:href="#Calibri-Bold-3d" x="1476.855469"/>
      <use xlink:href="#Calibri-Bold-34" x="1526.660156"/>
      <use xlink:href="#Calibri-Bold-30" x="1577.34375"/>
     </g>
    </g>
   </g>
  </g>
 </g>
 <defs>
  <clipPath id="pac6130f80d">
   <path d="M 369.216 174.528 
C 369.216 157.055246 365.774248 139.752393 359.087715 123.609673 
C 352.401182 107.466954 342.599903 92.798303 330.2448 80.4432 
C 317.889697 68.088097 303.221046 58.286818 287.078327 51.600285 
C 270.935607 44.913752 253.632754 41.472 236.16 41.472 
C 218.687246 41.472 201.384393 44.913752 185.241673 51.600285 
C 169.098954 58.286818 154.430303 68.088097 142.0752 80.4432 
C 129.720097 92.798303 119.918818 107.466954 113.232285 123.609673 
C 106.545752 139.752393 103.104 157.055246 103.104 174.528 
C 103.104 192.000754 106.545752 209.303607 113.232285 225.446327 
C 119.918818 241.589046 129.720097 256.257697 142.0752 268.6128 
C 154.430303 280.967903 169.098954 290.769182 185.241673 297.455715 
C 201.384393 304.142248 218.687246 307.584 236.16 307.584 
C 253.632754 307.584 270.935607 304.142248 287.078327 297.455715 
C 303.221046 290.769182 317.889697 280.967903 330.2448 268.6128 
C 342.599903 256.257697 352.401182 241.589046 359.087715 225.446327 
C 365.774248 209.303607 369.216 192.000754 369.216 174.528 
M 236.16 174.528 
C 236.16 174.528 236.16 174.528 236.16 174.528 
C 236.16 174.528 236.16 174.528 236.16 174.528 
C 236.16 174.528 236.16 174.528 236.16 174.528 
C 236.16 174.528 236.16 174.528 236.16 174.528 
C 236.16 174.528 236.16 174.528 236.16 174.528 
C 236.16 174.528 236.16 174.528 236.16 174.528 
C 236.16 174.528 236.16 174.528 236.16 174.528 
C 236.16 174.528 236.16 174.528 236.16 174.528 
C 236.16 174.528 236.16 174.528 236.16 174.528 
C 236.16 174.528 236.16 174.528 236.16 174.528 
C 236.16 174.528 236.16 174.528 236.16 174.528 
C 236.16 174.528 236.16 174.528 236.16 174.528 
C 236.16 174.528 236.16 174.528 236.16 174.528 
C 236.16 174.528 236.16 174.528 236.16 174.528 
C 236.16 174.528 236.16 174.528 236.16 174.528 
C 236.16 174.528 236.16 174.528 236.16 174.528 
z
"/>
  </clipPath>
 </defs>
</svg>
