<?xml version="1.0" encoding="utf-8" standalone="no"?>
<!DOCTYPE svg PUBLIC "-//W3C//DTD SVG 1.1//EN"
  "http://www.w3.org/Graphics/SVG/1.1/DTD/svg11.dtd">
<svg xmlns:xlink="http://www.w3.org/1999/xlink" width="460.8pt" height="345.6pt" viewBox="0 0 460.8 345.6" xmlns="http://www.w3.org/2000/svg" version="1.1">
 <metadata>
  <rdf:RDF xmlns:dc="http://purl.org/dc/elements/1.1/" xmlns:cc="http://creativecommons.org/ns#" xmlns:rdf="http://www.w3.org/1999/02/22-rdf-syntax-ns#">
   <cc:Work>
    <dc:type rdf:resource="http://purl.org/dc/dcmitype/StillImage"/>
    <dc:date>2026-01-04T11:06:19.231234</dc:date>
    <dc:format>image/svg+xml</dc:format>
    <dc:creator>
     <cc:Agent>
      <dc:title>Matplotlib v3.9.4, https://matplotlib.org/</dc:title>
     </cc:Agent>
    </dc:creator>
   </cc:Work>
  </rdf:RDF>
 </metadata>
 <defs>
  <style type="text/css">*{stroke-linejoin: round; stroke-linecap: butt}</style>
 </defs>
 <g id="figure_1">
  <g id="patch_1">
   <path d="M 0 345.6 
L 460.8 345.6 
L 460.8 0 
L 0 0 
z
" style="fill: #ffffff"/>
  </g>
  <g id="axes_1">
   <g id="patch_2">
    <path d="M 57.6 307.584 
L 414.72 307.584 
L 414.72 41.472 
L 57.6 41.472 
z
" style="fill: #ffffff"/>
   </g>
   <g id="matplotlib.axis_1">
    <g id="xtick_1">
     <g id="line2d_1">
      <path d="M 73.832727 307.584 
L 73.832727 41.472 
" clip-path="url(#p821d1c3e03)" style="fill: none; stroke: #e6e6e6; stroke-width: 0.8; stroke-linecap: square"/>
     </g>
     <g id="line2d_2">
      <defs>
       <path id="m8d871b10a0" d="M 0 0 
L 0 3.5 
" style="stroke: #000000; stroke-width: 0.8"/>
      </defs>
      <g>
       <use xlink:href="#m8d871b10a0" x="73.832727" y="307.584" style="stroke: #000000; stroke-width: 0.8"/>
      </g>
     </g>
     <g id="text_1">
      <!-- 10 -->
      <g transform="translate(67.470227 322.182437) scale(0.1 -0.1)">
       <defs>
        <path id="DejaVuSans-31" d="M 794 531 
L 1825 531 
L 1825 4091 
L 703 3866 
L 703 4441 
L 1819 4666 
L 2450 4666 
L 2450 531 
L 3481 531 
L 3481 0 
L 794 0 
L 794 531 
z
" transform="scale(0.015625)"/>
        <path id="DejaVuSans-30" d="M 2034 4250 
Q 1547 4250 1301 3770 
Q 1056 3291 1056 2328 
Q 1056 1369 1301 889 
Q 1547 409 2034 409 
Q 2525 409 2770 889 
Q 3016 1369 3016 2328 
Q 3016 3291 2770 3770 
Q 2525 4250 2034 4250 
z
M 2034 4750 
Q 2819 4750 3233 4129 
Q 3647 3509 3647 2328 
Q 3647 1150 3233 529 
Q 2819 -91 2034 -91 
Q 1250 -91 836 529 
Q 422 1150 422 2328 
Q 422 3509 836 4129 
Q 1250 4750 2034 4750 
z
" transform="scale(0.015625)"/>
       </defs>
       <use xlink:href="#DejaVuSans-31"/>
       <use xlink:href="#DejaVuSans-30" x="63.623047"/>
      </g>
     </g>
    </g>
    <g id="xtick_2">
     <g id="line2d_3">
      <path d="M 182.050909 307.584 
L 182.050909 41.472 
" clip-path="url(#p821d1c3e03)" style="fill: none; stroke: #e6e6e6; stroke-width: 0.8; stroke-linecap: square"/>
     </g>
     <g id="line2d_4">
      <g>
       <use xlink:href="#m8d871b10a0" x="182.050909" y="307.584" style="stroke: #000000; stroke-width: 0.8"/>
      </g>
     </g>
     <g id="text_2">
      <!-- 20 -->
      <g transform="translate(175.688409 322.182437) scale(0.1 -0.1)">
       <defs>
        <path id="DejaVuSans-32" d="M 1228 531 
L 3431 531 
L 3431 0 
L 469 0 
L 469 531 
Q 828 903 1448 1529 
Q 2069 2156 2228 2338 
Q 2531 2678 2651 2914 
Q 2772 3150 2772 3378 
Q 2772 3750 2511 3984 
Q 2250 4219 1831 4219 
Q 1534 4219 1204 4116 
Q 875 4013 500 3803 
L 500 4441 
Q 881 4594 1212 4672 
Q 1544 4750 1819 4750 
Q 2544 4750 2975 4387 
Q 3406 4025 3406 3419 
Q 3406 3131 3298 2873 
Q 3191 2616 2906 2266 
Q 2828 2175 2409 1742 
Q 1991 1309 1228 531 
z
" transform="scale(0.015625)"/>
       </defs>
       <use xlink:href="#DejaVuSans-32"/>
       <use xlink:href="#DejaVuSans-30" x="63.623047"/>
      </g>
     </g>
    </g>
    <g id="xtick_3">
     <g id="line2d_5">
      <path d="M 290.269091 307.584 
L 290.269091 41.472 
" clip-path="url(#p821d1c3e03)" style="fill: none; stroke: #e6e6e6; stroke-width: 0.8; stroke-linecap: square"/>
     </g>
     <g id="line2d_6">
      <g>
       <use xlink:href="#m8d871b10a0" x="290.269091" y="307.584" style="stroke: #000000; stroke-width: 0.8"/>
      </g>
     </g>
     <g id="text_3">
      <!-- 30 -->
      <g transform="translate(283.906591 322.182437) scale(0.1 -0.1)">
       <defs>
        <path id="DejaVuSans-33" d="M 2597 2516 
Q 3050 2419 3304 2112 
Q 3559 1806 3559 1356 
Q 3559 666 3084 287 
Q 2609 -91 1734 -91 
Q 1441 -91 1130 -33 
Q 819 25 488 141 
L 488 750 
Q 750 597 1062 519 
Q 1375 441 1716 441 
Q 2309 441 2620 675 
Q 2931 909 2931 1356 
Q 2931 1769 2642 2001 
Q 2353 2234 1838 2234 
L 1294 2234 
L 1294 2753 
L 1863 2753 
Q 2328 2753 2575 2939 
Q 2822 3125 2822 3475 
Q 2822 3834 2567 4026 
Q 2313 4219 1838 4219 
Q 1578 4219 1281 4162 
Q 984 4106 628 3988 
L 628 4550 
Q 988 4650 1302 4700 
Q 1616 4750 1894 4750 
Q 2613 4750 3031 4423 
Q 3450 4097 3450 3541 
Q 3450 3153 3228 2886 
Q 3006 2619 2597 2516 
z
" transform="scale(0.015625)"/>
       </defs>
       <use xlink:href="#DejaVuSans-33"/>
       <use xlink:href="#DejaVuSans-30" x="63.623047"/>
      </g>
     </g>
    </g>
    <g id="xtick_4">
     <g id="line2d_7">
      <path d="M 398.487273 307.584 
L 398.487273 41.472 
" clip-path="url(#p821d1c3e03)" style="fill: none; stroke: #e6e6e6; stroke-width: 0.8; stroke-linecap: square"/>
     </g>
     <g id="line2d_8">
      <g>
       <use xlink:href="#m8d871b10a0" x="398.487273" y="307.584" style="stroke: #000000; stroke-width: 0.8"/>
      </g>
     </g>
     <g id="text_4">
      <!-- 40 -->
      <g transform="translate(392.124773 322.182437) scale(0.1 -0.1)">
       <defs>
        <path id="DejaVuSans-34" d="M 2419 4116 
L 825 1625 
L 2419 1625 
L 2419 4116 
z
M 2253 4666 
L 3047 4666 
L 3047 1625 
L 3713 1625 
L 3713 1100 
L 3047 1100 
L 3047 0 
L 2419 0 
L 2419 1100 
L 313 1100 
L 313 1709 
L 2253 4666 
z
" transform="scale(0.015625)"/>
       </defs>
       <use xlink:href="#DejaVuSans-34"/>
       <use xlink:href="#DejaVuSans-30" x="63.623047"/>
      </g>
     </g>
    </g>
    <g id="text_5">
     <!-- Swarm size -->
     <g transform="translate(197.757187 337.38025) scale(0.12 -0.12)">
      <defs>
       <path id="DejaVuSans-Bold-53" d="M 3834 4519 
L 3834 3531 
Q 3450 3703 3084 3790 
Q 2719 3878 2394 3878 
Q 1963 3878 1756 3759 
Q 1550 3641 1550 3391 
Q 1550 3203 1689 3098 
Q 1828 2994 2194 2919 
L 2706 2816 
Q 3484 2659 3812 2340 
Q 4141 2022 4141 1434 
Q 4141 663 3683 286 
Q 3225 -91 2284 -91 
Q 1841 -91 1394 -6 
Q 947 78 500 244 
L 500 1259 
Q 947 1022 1364 901 
Q 1781 781 2169 781 
Q 2563 781 2772 912 
Q 2981 1044 2981 1288 
Q 2981 1506 2839 1625 
Q 2697 1744 2272 1838 
L 1806 1941 
Q 1106 2091 782 2419 
Q 459 2747 459 3303 
Q 459 4000 909 4375 
Q 1359 4750 2203 4750 
Q 2588 4750 2994 4692 
Q 3400 4634 3834 4519 
z
" transform="scale(0.015625)"/>
       <path id="DejaVuSans-Bold-77" d="M 225 3500 
L 1313 3500 
L 1900 1088 
L 2491 3500 
L 3425 3500 
L 4013 1113 
L 4603 3500 
L 5691 3500 
L 4769 0 
L 3547 0 
L 2956 2406 
L 2369 0 
L 1147 0 
L 225 3500 
z
" transform="scale(0.015625)"/>
       <path id="DejaVuSans-Bold-61" d="M 2106 1575 
Q 1756 1575 1579 1456 
Q 1403 1338 1403 1106 
Q 1403 894 1545 773 
Q 1688 653 1941 653 
Q 2256 653 2472 879 
Q 2688 1106 2688 1447 
L 2688 1575 
L 2106 1575 
z
M 3816 1997 
L 3816 0 
L 2688 0 
L 2688 519 
Q 2463 200 2181 54 
Q 1900 -91 1497 -91 
Q 953 -91 614 226 
Q 275 544 275 1050 
Q 275 1666 698 1953 
Q 1122 2241 2028 2241 
L 2688 2241 
L 2688 2328 
Q 2688 2594 2478 2717 
Q 2269 2841 1825 2841 
Q 1466 2841 1156 2769 
Q 847 2697 581 2553 
L 581 3406 
Q 941 3494 1303 3539 
Q 1666 3584 2028 3584 
Q 2975 3584 3395 3211 
Q 3816 2838 3816 1997 
z
" transform="scale(0.015625)"/>
       <path id="DejaVuSans-Bold-72" d="M 3138 2547 
Q 2991 2616 2845 2648 
Q 2700 2681 2553 2681 
Q 2122 2681 1889 2404 
Q 1656 2128 1656 1613 
L 1656 0 
L 538 0 
L 538 3500 
L 1656 3500 
L 1656 2925 
Q 1872 3269 2151 3426 
Q 2431 3584 2822 3584 
Q 2878 3584 2943 3579 
Q 3009 3575 3134 3559 
L 3138 2547 
z
" transform="scale(0.015625)"/>
       <path id="DejaVuSans-Bold-6d" d="M 3781 2919 
Q 3994 3244 4286 3414 
Q 4578 3584 4928 3584 
Q 5531 3584 5847 3212 
Q 6163 2841 6163 2131 
L 6163 0 
L 5038 0 
L 5038 1825 
Q 5041 1866 5042 1909 
Q 5044 1953 5044 2034 
Q 5044 2406 4934 2573 
Q 4825 2741 4581 2741 
Q 4263 2741 4089 2478 
Q 3916 2216 3909 1719 
L 3909 0 
L 2784 0 
L 2784 1825 
Q 2784 2406 2684 2573 
Q 2584 2741 2328 2741 
Q 2006 2741 1831 2477 
Q 1656 2213 1656 1722 
L 1656 0 
L 531 0 
L 531 3500 
L 1656 3500 
L 1656 2988 
Q 1863 3284 2130 3434 
Q 2397 3584 2719 3584 
Q 3081 3584 3359 3409 
Q 3638 3234 3781 2919 
z
" transform="scale(0.015625)"/>
       <path id="DejaVuSans-Bold-20" transform="scale(0.015625)"/>
       <path id="DejaVuSans-Bold-73" d="M 3272 3391 
L 3272 2541 
Q 2913 2691 2578 2766 
Q 2244 2841 1947 2841 
Q 1628 2841 1473 2761 
Q 1319 2681 1319 2516 
Q 1319 2381 1436 2309 
Q 1553 2238 1856 2203 
L 2053 2175 
Q 2913 2066 3209 1816 
Q 3506 1566 3506 1031 
Q 3506 472 3093 190 
Q 2681 -91 1863 -91 
Q 1516 -91 1145 -36 
Q 775 19 384 128 
L 384 978 
Q 719 816 1070 734 
Q 1422 653 1784 653 
Q 2113 653 2278 743 
Q 2444 834 2444 1013 
Q 2444 1163 2330 1236 
Q 2216 1309 1875 1350 
L 1678 1375 
Q 931 1469 631 1722 
Q 331 1975 331 2491 
Q 331 3047 712 3315 
Q 1094 3584 1881 3584 
Q 2191 3584 2531 3537 
Q 2872 3491 3272 3391 
z
" transform="scale(0.015625)"/>
       <path id="DejaVuSans-Bold-69" d="M 538 3500 
L 1656 3500 
L 1656 0 
L 538 0 
L 538 3500 
z
M 538 4863 
L 1656 4863 
L 1656 3950 
L 538 3950 
L 538 4863 
z
" transform="scale(0.015625)"/>
       <path id="DejaVuSans-Bold-7a" d="M 366 3500 
L 3419 3500 
L 3419 2719 
L 1575 800 
L 3419 800 
L 3419 0 
L 288 0 
L 288 781 
L 2131 2700 
L 366 2700 
L 366 3500 
z
" transform="scale(0.015625)"/>
       <path id="DejaVuSans-Bold-65" d="M 4031 1759 
L 4031 1441 
L 1416 1441 
Q 1456 1047 1700 850 
Q 1944 653 2381 653 
Q 2734 653 3104 758 
Q 3475 863 3866 1075 
L 3866 213 
Q 3469 63 3072 -14 
Q 2675 -91 2278 -91 
Q 1328 -91 801 392 
Q 275 875 275 1747 
Q 275 2603 792 3093 
Q 1309 3584 2216 3584 
Q 3041 3584 3536 3087 
Q 4031 2591 4031 1759 
z
M 2881 2131 
Q 2881 2450 2695 2645 
Q 2509 2841 2209 2841 
Q 1884 2841 1681 2658 
Q 1478 2475 1428 2131 
L 2881 2131 
z
" transform="scale(0.015625)"/>
      </defs>
      <use xlink:href="#DejaVuSans-Bold-53"/>
      <use xlink:href="#DejaVuSans-Bold-77" x="72.021484"/>
      <use xlink:href="#DejaVuSans-Bold-61" x="164.404297"/>
      <use xlink:href="#DejaVuSans-Bold-72" x="231.884766"/>
      <use xlink:href="#DejaVuSans-Bold-6d" x="281.201172"/>
      <use xlink:href="#DejaVuSans-Bold-20" x="385.400391"/>
      <use xlink:href="#DejaVuSans-Bold-73" x="420.214844"/>
      <use xlink:href="#DejaVuSans-Bold-69" x="479.736328"/>
      <use xlink:href="#DejaVuSans-Bold-7a" x="514.013672"/>
      <use xlink:href="#DejaVuSans-Bold-65" x="572.216797"/>
     </g>
    </g>
   </g>
   <g id="matplotlib.axis_2">
    <g id="ytick_1">
     <g id="line2d_9">
      <path d="M 57.6 272.658654 
L 414.72 272.658654 
" clip-path="url(#p821d1c3e03)" style="fill: none; stroke: #e6e6e6; stroke-width: 0.8; stroke-linecap: square"/>
     </g>
     <g id="line2d_10">
      <defs>
       <path id="m0f15228bc9" d="M 0 0 
L -3.5 0 
" style="stroke: #000000; stroke-width: 0.8"/>
      </defs>
      <g>
       <use xlink:href="#m0f15228bc9" x="57.6" y="272.658654" style="stroke: #000000; stroke-width: 0.8"/>
      </g>
     </g>
     <g id="text_6">
      <!-- 88 -->
      <g transform="translate(37.875 276.457872) scale(0.1 -0.1)">
       <defs>
        <path id="DejaVuSans-38" d="M 2034 2216 
Q 1584 2216 1326 1975 
Q 1069 1734 1069 1313 
Q 1069 891 1326 650 
Q 1584 409 2034 409 
Q 2484 409 2743 651 
Q 3003 894 3003 1313 
Q 3003 1734 2745 1975 
Q 2488 2216 2034 2216 
z
M 1403 2484 
Q 997 2584 770 2862 
Q 544 3141 544 3541 
Q 544 4100 942 4425 
Q 1341 4750 2034 4750 
Q 2731 4750 3128 4425 
Q 3525 4100 3525 3541 
Q 3525 3141 3298 2862 
Q 3072 2584 2669 2484 
Q 3125 2378 3379 2068 
Q 3634 1759 3634 1313 
Q 3634 634 3220 271 
Q 2806 -91 2034 -91 
Q 1263 -91 848 271 
Q 434 634 434 1313 
Q 434 1759 690 2068 
Q 947 2378 1403 2484 
z
M 1172 3481 
Q 1172 3119 1398 2916 
Q 1625 2713 2034 2713 
Q 2441 2713 2670 2916 
Q 2900 3119 2900 3481 
Q 2900 3844 2670 4047 
Q 2441 4250 2034 4250 
Q 1625 4250 1398 4047 
Q 1172 3844 1172 3481 
z
" transform="scale(0.015625)"/>
       </defs>
       <use xlink:href="#DejaVuSans-38"/>
       <use xlink:href="#DejaVuSans-38" x="63.623047"/>
      </g>
     </g>
    </g>
    <g id="ytick_2">
     <g id="line2d_11">
      <path d="M 57.6 227.045574 
L 414.72 227.045574 
" clip-path="url(#p821d1c3e03)" style="fill: none; stroke: #e6e6e6; stroke-width: 0.8; stroke-linecap: square"/>
     </g>
     <g id="line2d_12">
      <g>
       <use xlink:href="#m0f15228bc9" x="57.6" y="227.045574" style="stroke: #000000; stroke-width: 0.8"/>
      </g>
     </g>
     <g id="text_7">
      <!-- 90 -->
      <g transform="translate(37.875 230.844793) scale(0.1 -0.1)">
       <defs>
        <path id="DejaVuSans-39" d="M 703 97 
L 703 672 
Q 941 559 1184 500 
Q 1428 441 1663 441 
Q 2288 441 2617 861 
Q 2947 1281 2994 2138 
Q 2813 1869 2534 1725 
Q 2256 1581 1919 1581 
Q 1219 1581 811 2004 
Q 403 2428 403 3163 
Q 403 3881 828 4315 
Q 1253 4750 1959 4750 
Q 2769 4750 3195 4129 
Q 3622 3509 3622 2328 
Q 3622 1225 3098 567 
Q 2575 -91 1691 -91 
Q 1453 -91 1209 -44 
Q 966 3 703 97 
z
M 1959 2075 
Q 2384 2075 2632 2365 
Q 2881 2656 2881 3163 
Q 2881 3666 2632 3958 
Q 2384 4250 1959 4250 
Q 1534 4250 1286 3958 
Q 1038 3666 1038 3163 
Q 1038 2656 1286 2365 
Q 1534 2075 1959 2075 
z
" transform="scale(0.015625)"/>
       </defs>
       <use xlink:href="#DejaVuSans-39"/>
       <use xlink:href="#DejaVuSans-30" x="63.623047"/>
      </g>
     </g>
    </g>
    <g id="ytick_3">
     <g id="line2d_13">
      <path d="M 57.6 181.432494 
L 414.72 181.432494 
" clip-path="url(#p821d1c3e03)" style="fill: none; stroke: #e6e6e6; stroke-width: 0.8; stroke-linecap: square"/>
     </g>
     <g id="line2d_14">
      <g>
       <use xlink:href="#m0f15228bc9" x="57.6" y="181.432494" style="stroke: #000000; stroke-width: 0.8"/>
      </g>
     </g>
     <g id="text_8">
      <!-- 92 -->
      <g transform="translate(37.875 185.231713) scale(0.1 -0.1)">
       <use xlink:href="#DejaVuSans-39"/>
       <use xlink:href="#DejaVuSans-32" x="63.623047"/>
      </g>
     </g>
    </g>
    <g id="ytick_4">
     <g id="line2d_15">
      <path d="M 57.6 135.819415 
L 414.72 135.819415 
" clip-path="url(#p821d1c3e03)" style="fill: none; stroke: #e6e6e6; stroke-width: 0.8; stroke-linecap: square"/>
     </g>
     <g id="line2d_16">
      <g>
       <use xlink:href="#m0f15228bc9" x="57.6" y="135.819415" style="stroke: #000000; stroke-width: 0.8"/>
      </g>
     </g>
     <g id="text_9">
      <!-- 94 -->
      <g transform="translate(37.875 139.618633) scale(0.1 -0.1)">
       <use xlink:href="#DejaVuSans-39"/>
       <use xlink:href="#DejaVuSans-34" x="63.623047"/>
      </g>
     </g>
    </g>
    <g id="ytick_5">
     <g id="line2d_17">
      <path d="M 57.6 90.206335 
L 414.72 90.206335 
" clip-path="url(#p821d1c3e03)" style="fill: none; stroke: #e6e6e6; stroke-width: 0.8; stroke-linecap: square"/>
     </g>
     <g id="line2d_18">
      <g>
       <use xlink:href="#m0f15228bc9" x="57.6" y="90.206335" style="stroke: #000000; stroke-width: 0.8"/>
      </g>
     </g>
     <g id="text_10">
      <!-- 96 -->
      <g transform="translate(37.875 94.005554) scale(0.1 -0.1)">
       <defs>
        <path id="DejaVuSans-36" d="M 2113 2584 
Q 1688 2584 1439 2293 
Q 1191 2003 1191 1497 
Q 1191 994 1439 701 
Q 1688 409 2113 409 
Q 2538 409 2786 701 
Q 3034 994 3034 1497 
Q 3034 2003 2786 2293 
Q 2538 2584 2113 2584 
z
M 3366 4563 
L 3366 3988 
Q 3128 4100 2886 4159 
Q 2644 4219 2406 4219 
Q 1781 4219 1451 3797 
Q 1122 3375 1075 2522 
Q 1259 2794 1537 2939 
Q 1816 3084 2150 3084 
Q 2853 3084 3261 2657 
Q 3669 2231 3669 1497 
Q 3669 778 3244 343 
Q 2819 -91 2113 -91 
Q 1303 -91 875 529 
Q 447 1150 447 2328 
Q 447 3434 972 4092 
Q 1497 4750 2381 4750 
Q 2619 4750 2861 4703 
Q 3103 4656 3366 4563 
z
" transform="scale(0.015625)"/>
       </defs>
       <use xlink:href="#DejaVuSans-39"/>
       <use xlink:href="#DejaVuSans-36" x="63.623047"/>
      </g>
     </g>
    </g>
    <g id="ytick_6">
     <g id="line2d_19">
      <path d="M 57.6 44.593255 
L 414.72 44.593255 
" clip-path="url(#p821d1c3e03)" style="fill: none; stroke: #e6e6e6; stroke-width: 0.8; stroke-linecap: square"/>
     </g>
     <g id="line2d_20">
      <g>
       <use xlink:href="#m0f15228bc9" x="57.6" y="44.593255" style="stroke: #000000; stroke-width: 0.8"/>
      </g>
     </g>
     <g id="text_11">
      <!-- 98 -->
      <g transform="translate(37.875 48.392474) scale(0.1 -0.1)">
       <use xlink:href="#DejaVuSans-39"/>
       <use xlink:href="#DejaVuSans-38" x="63.623047"/>
      </g>
     </g>
    </g>
    <g id="text_12">
     <!-- TPR(%) -->
     <g transform="translate(31.379375 199.1355) rotate(-90) scale(0.12 -0.12)">
      <defs>
       <path id="DejaVuSans-Bold-54" d="M 31 4666 
L 4331 4666 
L 4331 3756 
L 2784 3756 
L 2784 0 
L 1581 0 
L 1581 3756 
L 31 3756 
L 31 4666 
z
" transform="scale(0.015625)"/>
       <path id="DejaVuSans-Bold-50" d="M 588 4666 
L 2584 4666 
Q 3475 4666 3951 4270 
Q 4428 3875 4428 3144 
Q 4428 2409 3951 2014 
Q 3475 1619 2584 1619 
L 1791 1619 
L 1791 0 
L 588 0 
L 588 4666 
z
M 1791 3794 
L 1791 2491 
L 2456 2491 
Q 2806 2491 2997 2661 
Q 3188 2831 3188 3144 
Q 3188 3456 2997 3625 
Q 2806 3794 2456 3794 
L 1791 3794 
z
" transform="scale(0.015625)"/>
       <path id="DejaVuSans-Bold-52" d="M 2297 2597 
Q 2675 2597 2839 2737 
Q 3003 2878 3003 3200 
Q 3003 3519 2839 3656 
Q 2675 3794 2297 3794 
L 1791 3794 
L 1791 2597 
L 2297 2597 
z
M 1791 1766 
L 1791 0 
L 588 0 
L 588 4666 
L 2425 4666 
Q 3347 4666 3776 4356 
Q 4206 4047 4206 3378 
Q 4206 2916 3982 2619 
Q 3759 2322 3309 2181 
Q 3556 2125 3751 1926 
Q 3947 1728 4147 1325 
L 4800 0 
L 3519 0 
L 2950 1159 
Q 2778 1509 2601 1637 
Q 2425 1766 2131 1766 
L 1791 1766 
z
" transform="scale(0.015625)"/>
       <path id="DejaVuSans-Bold-28" d="M 2413 -844 
L 1484 -844 
Q 1006 -72 778 623 
Q 550 1319 550 2003 
Q 550 2688 779 3389 
Q 1009 4091 1484 4856 
L 2413 4856 
Q 2013 4116 1813 3408 
Q 1613 2700 1613 2009 
Q 1613 1319 1811 609 
Q 2009 -100 2413 -844 
z
" transform="scale(0.015625)"/>
       <path id="DejaVuSans-Bold-25" d="M 4959 1925 
Q 4738 1925 4616 1733 
Q 4494 1541 4494 1184 
Q 4494 825 4614 633 
Q 4734 441 4959 441 
Q 5184 441 5303 633 
Q 5422 825 5422 1184 
Q 5422 1541 5301 1733 
Q 5181 1925 4959 1925 
z
M 4959 2450 
Q 5541 2450 5875 2112 
Q 6209 1775 6209 1184 
Q 6209 594 5875 251 
Q 5541 -91 4959 -91 
Q 4378 -91 4042 251 
Q 3706 594 3706 1184 
Q 3706 1772 4042 2111 
Q 4378 2450 4959 2450 
z
M 2094 -91 
L 1403 -91 
L 4319 4750 
L 5013 4750 
L 2094 -91 
z
M 1453 4750 
Q 2034 4750 2367 4411 
Q 2700 4072 2700 3481 
Q 2700 2891 2367 2550 
Q 2034 2209 1453 2209 
Q 872 2209 539 2550 
Q 206 2891 206 3481 
Q 206 4072 539 4411 
Q 872 4750 1453 4750 
z
M 1453 4225 
Q 1228 4225 1106 4031 
Q 984 3838 984 3481 
Q 984 3122 1106 2926 
Q 1228 2731 1453 2731 
Q 1678 2731 1798 2926 
Q 1919 3122 1919 3481 
Q 1919 3838 1797 4031 
Q 1675 4225 1453 4225 
z
" transform="scale(0.015625)"/>
       <path id="DejaVuSans-Bold-29" d="M 513 -844 
Q 913 -100 1113 609 
Q 1313 1319 1313 2009 
Q 1313 2700 1113 3408 
Q 913 4116 513 4856 
L 1441 4856 
Q 1916 4091 2145 3389 
Q 2375 2688 2375 2003 
Q 2375 1319 2147 623 
Q 1919 -72 1441 -844 
L 513 -844 
z
" transform="scale(0.015625)"/>
      </defs>
      <use xlink:href="#DejaVuSans-Bold-54"/>
      <use xlink:href="#DejaVuSans-Bold-50" x="68.212891"/>
      <use xlink:href="#DejaVuSans-Bold-52" x="141.503906"/>
      <use xlink:href="#DejaVuSans-Bold-28" x="218.505859"/>
      <use xlink:href="#DejaVuSans-Bold-25" x="264.208984"/>
      <use xlink:href="#DejaVuSans-Bold-29" x="364.404297"/>
     </g>
    </g>
   </g>
   <g id="line2d_21">
    <path d="M 73.832727 295.488 
L 85.252736 292.407814 
L 96.672746 289.552712 
L 109.724185 286.531287 
L 122.775624 283.729526 
L 137.458492 280.790759 
L 155.404221 277.426029 
L 183.138529 272.490095 
L 215.767127 266.635373 
L 233.712855 263.182075 
L 248.395724 260.140649 
L 261.447163 257.224824 
L 274.498602 254.067864 
L 285.918611 251.076555 
L 297.33862 247.843724 
L 307.1272 244.860364 
L 316.915779 241.663326 
L 326.704358 238.235889 
L 336.492937 234.561328 
L 346.281517 230.622922 
L 356.070096 226.403949 
L 364.227245 222.66175 
L 372.384395 218.703422 
L 380.541544 214.519287 
L 388.698693 210.099668 
L 396.855843 205.434888 
L 398.487273 204.471661 
L 398.487273 204.471661 
" clip-path="url(#p821d1c3e03)" style="fill: none; stroke: #73c2fb; stroke-width: 1.5; stroke-linecap: square"/>
   </g>
   <g id="line2d_22">
    <defs>
     <path id="m1defc89adb" d="M 0 6 
C 1.591219 6 3.117479 5.367802 4.242641 4.242641 
C 5.367802 3.117479 6 1.591219 6 0 
C 6 -1.591219 5.367802 -3.117479 4.242641 -4.242641 
C 3.117479 -5.367802 1.591219 -6 0 -6 
C -1.591219 -6 -3.117479 -5.367802 -4.242641 -4.242641 
C -5.367802 -3.117479 -6 -1.591219 -6 0 
C -6 1.591219 -5.367802 3.117479 -4.242641 4.242641 
C -3.117479 5.367802 -1.591219 6 0 6 
z
" style="stroke: #000000; stroke-opacity: 0.9"/>
    </defs>
    <g clip-path="url(#p821d1c3e03)">
     <use xlink:href="#m1defc89adb" x="73.832727" y="295.488" style="fill: #fbec5d; fill-opacity: 0.9; stroke: #000000; stroke-opacity: 0.9"/>
     <use xlink:href="#m1defc89adb" x="182.050909" y="272.68146" style="fill: #fbec5d; fill-opacity: 0.9; stroke: #000000; stroke-opacity: 0.9"/>
     <use xlink:href="#m1defc89adb" x="290.269091" y="249.87492" style="fill: #fbec5d; fill-opacity: 0.9; stroke: #000000; stroke-opacity: 0.9"/>
     <use xlink:href="#m1defc89adb" x="398.487273" y="204.471661" style="fill: #fbec5d; fill-opacity: 0.9; stroke: #000000; stroke-opacity: 0.9"/>
    </g>
   </g>
   <g id="line2d_23">
    <path d="M 73.832727 272.704267 
L 81.989877 272.298166 
L 90.147026 271.640811 
L 98.304175 270.742101 
L 106.461325 269.611939 
L 114.618474 268.260222 
L 122.775624 266.696852 
L 130.932773 264.931728 
L 140.721352 262.561204 
L 150.509931 259.931519 
L 160.298511 257.05978 
L 170.08709 253.963095 
L 181.507099 250.08881 
L 192.927108 245.9588 
L 204.347117 241.600229 
L 217.398556 236.373984 
L 232.081425 230.230526 
L 248.395724 223.144422 
L 267.972883 214.387806 
L 336.492937 183.479692 
L 352.807236 176.500316 
L 365.858675 171.136011 
L 378.910114 166.010479 
L 390.330123 161.753383 
L 398.487273 158.858581 
L 398.487273 158.858581 
" clip-path="url(#p821d1c3e03)" style="fill: none; stroke: #e0b0ff; stroke-width: 1.5; stroke-linecap: square"/>
   </g>
   <g id="line2d_24">
    <defs>
     <path id="me6ccb85dce" d="M 0 -6 
L -6 6 
L 6 6 
z
" style="stroke: #000000; stroke-opacity: 0.9; stroke-linejoin: miter"/>
    </defs>
    <g clip-path="url(#p821d1c3e03)">
     <use xlink:href="#me6ccb85dce" x="73.832727" y="272.704267" style="fill: #e5aa70; fill-opacity: 0.9; stroke: #000000; stroke-opacity: 0.9; stroke-linejoin: miter"/>
     <use xlink:href="#me6ccb85dce" x="182.050909" y="249.897727" style="fill: #e5aa70; fill-opacity: 0.9; stroke: #000000; stroke-opacity: 0.9; stroke-linejoin: miter"/>
     <use xlink:href="#me6ccb85dce" x="290.269091" y="204.243595" style="fill: #e5aa70; fill-opacity: 0.9; stroke: #000000; stroke-opacity: 0.9; stroke-linejoin: miter"/>
     <use xlink:href="#me6ccb85dce" x="398.487273" y="158.858581" style="fill: #e5aa70; fill-opacity: 0.9; stroke: #000000; stroke-opacity: 0.9; stroke-linejoin: miter"/>
    </g>
   </g>
   <g id="line2d_25">
    <path d="M 73.832727 227.091187 
L 80.358447 226.87221 
L 88.515596 226.348775 
L 96.672746 225.559011 
L 104.829895 224.514843 
L 112.987044 223.228198 
L 121.144194 221.711001 
L 129.301343 219.975179 
L 137.458492 218.032656 
L 147.247072 215.445577 
L 157.035651 212.598632 
L 166.82423 209.512427 
L 176.61281 206.207571 
L 188.032819 202.103049 
L 199.452828 197.761693 
L 212.504267 192.552121 
L 227.187136 186.433514 
L 245.132864 178.682418 
L 271.235742 167.119716 
L 302.23291 153.431504 
L 318.547209 146.453224 
L 333.230078 140.409384 
L 346.281517 135.283654 
L 357.701526 131.02908 
L 369.121535 127.023865 
L 378.910114 123.814098 
L 388.698693 120.832185 
L 398.487273 118.098733 
L 398.487273 118.098733 
" clip-path="url(#p821d1c3e03)" style="fill: none; stroke: #9ab973; stroke-width: 1.5; stroke-linecap: square"/>
   </g>
   <g id="line2d_26">
    <defs>
     <path id="m6ac65fd0cf" d="M -6 6 
L 6 6 
L 6 -6 
L -6 -6 
z
" style="stroke: #000000; stroke-opacity: 0.9; stroke-linejoin: miter"/>
    </defs>
    <g clip-path="url(#p821d1c3e03)">
     <use xlink:href="#m6ac65fd0cf" x="73.832727" y="227.091187" style="fill: #cc8899; fill-opacity: 0.9; stroke: #000000; stroke-opacity: 0.9; stroke-linejoin: miter"/>
     <use xlink:href="#m6ac65fd0cf" x="182.050909" y="204.284647" style="fill: #cc8899; fill-opacity: 0.9; stroke: #000000; stroke-opacity: 0.9; stroke-linejoin: miter"/>
     <use xlink:href="#m6ac65fd0cf" x="290.269091" y="158.671568" style="fill: #cc8899; fill-opacity: 0.9; stroke: #000000; stroke-opacity: 0.9; stroke-linejoin: miter"/>
     <use xlink:href="#m6ac65fd0cf" x="398.487273" y="118.098733" style="fill: #cc8899; fill-opacity: 0.9; stroke: #000000; stroke-opacity: 0.9; stroke-linejoin: miter"/>
    </g>
   </g>
   <g id="line2d_27">
    <path d="M 73.832727 204.284647 
L 88.515596 198.846404 
L 104.829895 192.574322 
L 124.407053 184.80033 
L 150.509931 174.163786 
L 207.609977 150.798391 
L 227.187136 143.066949 
L 243.501434 136.842707 
L 258.184303 131.457144 
L 272.867172 126.316094 
L 285.918611 121.98244 
L 298.97005 117.899027 
L 310.390059 114.552419 
L 321.810069 111.435938 
L 333.230078 108.567569 
L 343.018657 106.320076 
L 352.807236 104.279406 
L 362.595815 102.456886 
L 372.384395 100.86384 
L 382.172974 99.511593 
L 391.961553 98.411472 
L 398.487273 97.823719 
L 398.487273 97.823719 
" clip-path="url(#p821d1c3e03)" style="fill: none; stroke: #fdbcb4; stroke-width: 1.5; stroke-linecap: square"/>
   </g>
   <g id="line2d_28">
    <defs>
     <path id="ma84574c7dd" d="M 0 -6 
L -1.347084 -1.854102 
L -5.706339 -1.854102 
L -2.179628 0.708204 
L -3.526712 4.854102 
L -0 2.291796 
L 3.526712 4.854102 
L 2.179628 0.708204 
L 5.706339 -1.854102 
L 1.347084 -1.854102 
z
" style="stroke: #000000; stroke-opacity: 0.9; stroke-linejoin: bevel"/>
    </defs>
    <g clip-path="url(#p821d1c3e03)">
     <use xlink:href="#ma84574c7dd" x="73.832727" y="204.284647" style="fill: #40e0d0; fill-opacity: 0.9; stroke: #000000; stroke-opacity: 0.9; stroke-linejoin: bevel"/>
     <use xlink:href="#ma84574c7dd" x="182.050909" y="161.180287" style="fill: #40e0d0; fill-opacity: 0.9; stroke: #000000; stroke-opacity: 0.9; stroke-linejoin: bevel"/>
     <use xlink:href="#ma84574c7dd" x="290.269091" y="120.592172" style="fill: #40e0d0; fill-opacity: 0.9; stroke: #000000; stroke-opacity: 0.9; stroke-linejoin: bevel"/>
     <use xlink:href="#ma84574c7dd" x="398.487273" y="97.823719" style="fill: #40e0d0; fill-opacity: 0.9; stroke: #000000; stroke-opacity: 0.9; stroke-linejoin: bevel"/>
    </g>
   </g>
   <g id="line2d_29">
    <path d="M 73.832727 158.858581 
L 85.252736 154.654391 
L 96.672746 150.22781 
L 109.724185 144.934393 
L 124.407053 138.732994 
L 142.352782 130.887649 
L 166.82423 119.913845 
L 204.347117 103.083646 
L 222.292846 95.295555 
L 236.975715 89.160119 
L 250.027154 83.939782 
L 261.447163 79.5883 
L 272.867172 75.469617 
L 284.287181 71.613237 
L 294.075761 68.538904 
L 303.86434 65.697537 
L 313.652919 63.107717 
L 321.810069 61.155091 
L 329.967218 59.400803 
L 338.124367 57.855606 
L 346.281517 56.530252 
L 354.438666 55.435492 
L 362.595815 54.582078 
L 370.752965 53.980762 
L 378.910114 53.642296 
L 385.435834 53.568 
L 391.961553 53.674314 
L 398.487273 53.966743 
L 398.487273 53.966743 
" clip-path="url(#p821d1c3e03)" style="fill: none; stroke: #ff7f7f; stroke-width: 1.5; stroke-linecap: square"/>
   </g>
   <g id="line2d_30">
    <defs>
     <path id="m16594c9b5e" d="M 0 -6 
L -5.706339 -1.854102 
L -3.526712 4.854102 
L 3.526712 4.854102 
L 5.706339 -1.854102 
z
" style="stroke: #000000; stroke-opacity: 0.9; stroke-linejoin: miter"/>
    </defs>
    <g clip-path="url(#p821d1c3e03)">
     <use xlink:href="#m16594c9b5e" x="73.832727" y="158.858581" style="fill: #1e90ff; fill-opacity: 0.9; stroke: #000000; stroke-opacity: 0.9; stroke-linejoin: miter"/>
     <use xlink:href="#m16594c9b5e" x="182.050909" y="113.040243" style="fill: #1e90ff; fill-opacity: 0.9; stroke: #000000; stroke-opacity: 0.9; stroke-linejoin: miter"/>
     <use xlink:href="#m16594c9b5e" x="290.269091" y="69.707817" style="fill: #1e90ff; fill-opacity: 0.9; stroke: #000000; stroke-opacity: 0.9; stroke-linejoin: miter"/>
     <use xlink:href="#m16594c9b5e" x="398.487273" y="53.966743" style="fill: #1e90ff; fill-opacity: 0.9; stroke: #000000; stroke-opacity: 0.9; stroke-linejoin: miter"/>
    </g>
   </g>
   <g id="patch_3">
    <path d="M 57.6 307.584 
L 57.6 41.472 
" style="fill: none; stroke: #000000; stroke-width: 0.8; stroke-linejoin: miter; stroke-linecap: square"/>
   </g>
   <g id="patch_4">
    <path d="M 414.72 307.584 
L 414.72 41.472 
" style="fill: none; stroke: #000000; stroke-width: 0.8; stroke-linejoin: miter; stroke-linecap: square"/>
   </g>
   <g id="patch_5">
    <path d="M 57.6 307.584 
L 414.72 307.584 
" style="fill: none; stroke: #000000; stroke-width: 0.8; stroke-linejoin: miter; stroke-linecap: square"/>
   </g>
   <g id="patch_6">
    <path d="M 57.6 41.472 
L 414.72 41.472 
" style="fill: none; stroke: #000000; stroke-width: 0.8; stroke-linejoin: miter; stroke-linecap: square"/>
   </g>
   <g id="legend_1">
    <g id="patch_7">
     <path d="M 58.858409 37.992205 
L 406.319191 37.992205 
Q 408.519191 37.992205 408.519191 35.792205 
L 408.519191 6.59408 
Q 408.519191 4.39408 406.319191 4.39408 
L 58.858409 4.39408 
Q 56.658409 4.39408 56.658409 6.59408 
L 56.658409 35.792205 
Q 56.658409 37.992205 58.858409 37.992205 
z
" style="fill: #ffffff; opacity: 0.8; stroke: #cccccc; stroke-linejoin: miter"/>
    </g>
    <g id="line2d_31">
     <g>
      <use xlink:href="#m1defc89adb" x="72.058409" y="12.64408" style="fill: #fbec5d; fill-opacity: 0.9; stroke: #000000; stroke-opacity: 0.9"/>
     </g>
    </g>
    <g id="text_13">
     <!-- CSO+WRN -->
     <g transform="translate(91.858409 16.49408) scale(0.11 -0.11)">
      <defs>
       <path id="Calibri-Bold-43" d="M 3238 613 
Q 3238 534 3233 479 
Q 3228 425 3218 386 
Q 3209 347 3193 319 
Q 3178 291 3143 255 
Q 3109 219 3011 162 
Q 2913 106 2770 54 
Q 2628 3 2445 -31 
Q 2263 -66 2050 -66 
Q 1634 -66 1300 62 
Q 966 191 731 445 
Q 497 700 372 1081 
Q 247 1463 247 1969 
Q 247 2484 384 2884 
Q 522 3284 769 3556 
Q 1016 3828 1361 3968 
Q 1706 4109 2122 4109 
Q 2291 4109 2447 4081 
Q 2603 4053 2736 4008 
Q 2869 3963 2975 3903 
Q 3081 3844 3123 3801 
Q 3166 3759 3181 3731 
Q 3197 3703 3206 3659 
Q 3216 3616 3220 3556 
Q 3225 3497 3225 3409 
Q 3225 3316 3219 3250 
Q 3213 3184 3197 3143 
Q 3181 3103 3159 3084 
Q 3138 3066 3109 3066 
Q 3063 3066 2991 3120 
Q 2919 3175 2805 3242 
Q 2691 3309 2533 3364 
Q 2375 3419 2156 3419 
Q 1916 3419 1727 3320 
Q 1538 3222 1405 3039 
Q 1272 2856 1203 2597 
Q 1134 2338 1134 2013 
Q 1134 1656 1207 1395 
Q 1281 1134 1417 965 
Q 1553 797 1745 714 
Q 1938 631 2178 631 
Q 2397 631 2556 682 
Q 2716 734 2830 796 
Q 2944 859 3017 909 
Q 3091 959 3131 959 
Q 3163 959 3181 946 
Q 3200 934 3212 896 
Q 3225 859 3231 792 
Q 3238 725 3238 613 
z
" transform="scale(0.015625)"/>
       <path id="Calibri-Bold-53" d="M 2838 1213 
Q 2838 894 2719 653 
Q 2600 413 2397 252 
Q 2194 91 1922 9 
Q 1650 -72 1341 -72 
Q 1131 -72 951 -37 
Q 772 -3 634 45 
Q 497 94 405 147 
Q 313 200 272 240 
Q 231 281 214 357 
Q 197 434 197 578 
Q 197 675 203 740 
Q 209 806 223 847 
Q 238 888 261 905 
Q 284 922 316 922 
Q 359 922 439 870 
Q 519 819 644 756 
Q 769 694 942 642 
Q 1116 591 1344 591 
Q 1494 591 1612 627 
Q 1731 663 1814 728 
Q 1897 794 1940 891 
Q 1984 988 1984 1106 
Q 1984 1244 1909 1342 
Q 1834 1441 1714 1517 
Q 1594 1594 1441 1661 
Q 1288 1728 1125 1803 
Q 963 1878 809 1973 
Q 656 2069 536 2201 
Q 416 2334 341 2515 
Q 266 2697 266 2950 
Q 266 3241 373 3461 
Q 481 3681 664 3826 
Q 847 3972 1095 4044 
Q 1344 4116 1622 4116 
Q 1766 4116 1909 4094 
Q 2053 4072 2178 4034 
Q 2303 3997 2400 3950 
Q 2497 3903 2528 3872 
Q 2559 3841 2570 3819 
Q 2581 3797 2589 3761 
Q 2597 3725 2600 3670 
Q 2603 3616 2603 3534 
Q 2603 3444 2598 3381 
Q 2594 3319 2583 3278 
Q 2572 3238 2551 3219 
Q 2531 3200 2497 3200 
Q 2463 3200 2388 3244 
Q 2313 3288 2203 3339 
Q 2094 3391 1950 3433 
Q 1806 3475 1634 3475 
Q 1500 3475 1400 3442 
Q 1300 3409 1233 3351 
Q 1166 3294 1133 3212 
Q 1100 3131 1100 3041 
Q 1100 2906 1173 2807 
Q 1247 2709 1370 2632 
Q 1494 2556 1650 2489 
Q 1806 2422 1968 2347 
Q 2131 2272 2287 2176 
Q 2444 2081 2566 1948 
Q 2688 1816 2763 1636 
Q 2838 1456 2838 1213 
z
" transform="scale(0.015625)"/>
       <path id="Calibri-Bold-4f" d="M 4078 2069 
Q 4078 1566 3953 1169 
Q 3828 772 3581 495 
Q 3334 219 2970 73 
Q 2606 -72 2128 -72 
Q 1656 -72 1304 51 
Q 953 175 718 428 
Q 484 681 367 1072 
Q 250 1463 250 1997 
Q 250 2488 375 2880 
Q 500 3272 747 3547 
Q 994 3822 1358 3969 
Q 1722 4116 2203 4116 
Q 2663 4116 3014 3994 
Q 3366 3872 3602 3619 
Q 3838 3366 3958 2980 
Q 4078 2594 4078 2069 
z
M 3216 2025 
Q 3216 2344 3166 2605 
Q 3116 2866 2995 3052 
Q 2875 3238 2675 3339 
Q 2475 3441 2175 3441 
Q 1872 3441 1669 3327 
Q 1466 3213 1341 3022 
Q 1216 2831 1164 2576 
Q 1113 2322 1113 2038 
Q 1113 1706 1163 1442 
Q 1213 1178 1331 990 
Q 1450 803 1650 704 
Q 1850 606 2153 606 
Q 2456 606 2659 718 
Q 2863 831 2988 1025 
Q 3113 1219 3164 1476 
Q 3216 1734 3216 2025 
z
" transform="scale(0.015625)"/>
       <path id="Calibri-Bold-2b" d="M 3025 1797 
Q 3025 1709 3015 1650 
Q 3006 1591 2987 1555 
Q 2969 1519 2944 1503 
Q 2919 1488 2891 1488 
L 1919 1488 
L 1919 428 
Q 1919 397 1903 373 
Q 1888 350 1850 333 
Q 1813 316 1750 306 
Q 1688 297 1594 297 
Q 1500 297 1437 306 
Q 1375 316 1337 333 
Q 1300 350 1283 373 
Q 1266 397 1266 428 
L 1266 1488 
L 297 1488 
Q 269 1488 245 1503 
Q 222 1519 203 1555 
Q 184 1591 173 1650 
Q 163 1709 163 1797 
Q 163 1881 172 1942 
Q 181 2003 198 2039 
Q 216 2075 237 2090 
Q 259 2106 288 2106 
L 1266 2106 
L 1266 3163 
Q 1266 3194 1283 3220 
Q 1300 3247 1337 3264 
Q 1375 3281 1437 3290 
Q 1500 3300 1594 3300 
Q 1688 3300 1750 3290 
Q 1813 3281 1850 3264 
Q 1888 3247 1903 3220 
Q 1919 3194 1919 3163 
L 1919 2106 
L 2900 2106 
Q 2925 2106 2948 2090 
Q 2972 2075 2989 2039 
Q 3006 2003 3015 1942 
Q 3025 1881 3025 1797 
z
" transform="scale(0.015625)"/>
       <path id="Calibri-Bold-57" d="M 4697 209 
Q 4678 134 4645 89 
Q 4613 44 4547 20 
Q 4481 -3 4378 -11 
Q 4275 -19 4116 -19 
Q 3938 -19 3830 -11 
Q 3722 -3 3659 20 
Q 3597 44 3569 89 
Q 3541 134 3525 209 
L 2878 2772 
L 2872 2772 
L 2259 209 
Q 2244 138 2216 92 
Q 2188 47 2127 22 
Q 2066 -3 1961 -11 
Q 1856 -19 1684 -19 
Q 1503 -19 1395 -11 
Q 1288 -3 1225 20 
Q 1163 44 1134 89 
Q 1106 134 1088 209 
L 169 3738 
Q 141 3850 137 3914 
Q 134 3978 173 4012 
Q 213 4047 302 4055 
Q 391 4063 550 4063 
Q 697 4063 783 4058 
Q 869 4053 912 4036 
Q 956 4019 972 3986 
Q 988 3953 997 3894 
L 1706 797 
L 1709 797 
L 2447 3872 
Q 2459 3931 2479 3968 
Q 2500 4006 2548 4026 
Q 2597 4047 2681 4055 
Q 2766 4063 2906 4063 
Q 3056 4063 3145 4056 
Q 3234 4050 3282 4029 
Q 3331 4009 3353 3971 
Q 3375 3934 3388 3872 
L 4150 797 
L 4156 797 
L 4866 3884 
Q 4875 3934 4890 3970 
Q 4906 4006 4950 4026 
Q 4994 4047 5075 4055 
Q 5156 4063 5303 4063 
Q 5441 4063 5517 4055 
Q 5594 4047 5628 4012 
Q 5663 3978 5658 3911 
Q 5653 3844 5625 3728 
L 4697 209 
z
" transform="scale(0.015625)"/>
       <path id="Calibri-Bold-52" d="M 3441 106 
Q 3441 72 3428 48 
Q 3416 25 3369 9 
Q 3322 -6 3231 -12 
Q 3141 -19 2984 -19 
Q 2853 -19 2775 -12 
Q 2697 -6 2651 11 
Q 2606 28 2587 54 
Q 2569 81 2556 119 
L 2194 1022 
Q 2128 1175 2065 1294 
Q 2003 1413 1926 1492 
Q 1850 1572 1750 1612 
Q 1650 1653 1519 1653 
L 1263 1653 
L 1263 113 
Q 1263 81 1242 56 
Q 1222 31 1175 15 
Q 1128 0 1050 -9 
Q 972 -19 850 -19 
Q 731 -19 651 -9 
Q 572 0 525 15 
Q 478 31 459 56 
Q 441 81 441 113 
L 441 3784 
Q 441 3922 511 3983 
Q 581 4044 684 4044 
L 1731 4044 
Q 1891 4044 1994 4037 
Q 2097 4031 2181 4022 
Q 2425 3988 2620 3903 
Q 2816 3819 2952 3683 
Q 3088 3547 3159 3361 
Q 3231 3175 3231 2934 
Q 3231 2731 3179 2564 
Q 3128 2397 3028 2265 
Q 2928 2134 2781 2037 
Q 2634 1941 2447 1881 
Q 2538 1838 2617 1775 
Q 2697 1713 2767 1623 
Q 2838 1534 2900 1420 
Q 2963 1306 3022 1163 
L 3363 366 
Q 3409 247 3425 192 
Q 3441 138 3441 106 
z
M 2381 2850 
Q 2381 3050 2290 3187 
Q 2200 3325 1994 3381 
Q 1931 3397 1851 3406 
Q 1772 3416 1631 3416 
L 1263 3416 
L 1263 2269 
L 1681 2269 
Q 1856 2269 1987 2311 
Q 2119 2353 2206 2429 
Q 2294 2506 2337 2612 
Q 2381 2719 2381 2850 
z
" transform="scale(0.015625)"/>
       <path id="Calibri-Bold-4e" d="M 3775 288 
Q 3775 216 3750 159 
Q 3725 103 3683 65 
Q 3641 28 3583 11 
Q 3525 -6 3466 -6 
L 3116 -6 
Q 3006 -6 2926 16 
Q 2847 38 2780 95 
Q 2713 153 2650 251 
Q 2588 350 2509 506 
L 1503 2397 
Q 1416 2566 1325 2761 
Q 1234 2956 1163 3141 
L 1156 3141 
Q 1169 2916 1175 2692 
Q 1181 2469 1181 2231 
L 1181 116 
Q 1181 84 1164 59 
Q 1147 34 1105 17 
Q 1063 0 991 -9 
Q 919 -19 806 -19 
Q 697 -19 625 -9 
Q 553 0 512 17 
Q 472 34 456 59 
Q 441 84 441 116 
L 441 3750 
Q 441 3897 527 3970 
Q 613 4044 738 4044 
L 1178 4044 
Q 1297 4044 1378 4023 
Q 1459 4003 1523 3956 
Q 1588 3909 1644 3826 
Q 1700 3744 1759 3622 
L 2547 2144 
Q 2616 2009 2683 1879 
Q 2750 1750 2812 1620 
Q 2875 1491 2934 1366 
Q 2994 1241 3050 1116 
L 3053 1116 
Q 3044 1334 3039 1571 
Q 3034 1809 3034 2025 
L 3034 3922 
Q 3034 3953 3053 3978 
Q 3072 4003 3115 4022 
Q 3159 4041 3231 4048 
Q 3303 4056 3416 4056 
Q 3522 4056 3594 4048 
Q 3666 4041 3705 4022 
Q 3744 4003 3759 3978 
Q 3775 3953 3775 3922 
L 3775 288 
z
" transform="scale(0.015625)"/>
      </defs>
      <use xlink:href="#Calibri-Bold-43"/>
      <use xlink:href="#Calibri-Bold-53" x="52.929688"/>
      <use xlink:href="#Calibri-Bold-4f" x="100.195312"/>
      <use xlink:href="#Calibri-Bold-2b" x="167.822266"/>
      <use xlink:href="#Calibri-Bold-57" x="217.626953"/>
      <use xlink:href="#Calibri-Bold-52" x="308.251953"/>
      <use xlink:href="#Calibri-Bold-4e" x="364.550781"/>
     </g>
    </g>
    <g id="line2d_32">
     <g>
      <use xlink:href="#me6ccb85dce" x="72.058409" y="27.793143" style="fill: #e5aa70; fill-opacity: 0.9; stroke: #000000; stroke-opacity: 0.9; stroke-linejoin: miter"/>
     </g>
    </g>
    <g id="text_14">
     <!-- GSO+WRN -->
     <g transform="translate(91.858409 31.643143) scale(0.11 -0.11)">
      <defs>
       <path id="Calibri-Bold-47" d="M 3684 3416 
Q 3684 3325 3676 3259 
Q 3669 3194 3655 3155 
Q 3641 3116 3620 3100 
Q 3600 3084 3572 3084 
Q 3531 3084 3440 3140 
Q 3350 3197 3200 3262 
Q 3050 3328 2842 3384 
Q 2634 3441 2359 3441 
Q 2066 3441 1828 3339 
Q 1591 3238 1422 3052 
Q 1253 2866 1162 2605 
Q 1072 2344 1072 2028 
Q 1072 1681 1164 1417 
Q 1256 1153 1422 975 
Q 1588 797 1820 706 
Q 2053 616 2334 616 
Q 2472 616 2606 647 
Q 2741 678 2856 741 
L 2856 1678 
L 2091 1678 
Q 2034 1678 2003 1748 
Q 1972 1819 1972 1988 
Q 1972 2075 1980 2134 
Q 1988 2194 2003 2230 
Q 2019 2266 2041 2283 
Q 2063 2300 2091 2300 
L 3456 2300 
Q 3506 2300 3545 2283 
Q 3584 2266 3614 2231 
Q 3644 2197 3659 2148 
Q 3675 2100 3675 2038 
L 3675 428 
Q 3675 334 3642 264 
Q 3609 194 3507 153 
Q 3406 113 3256 69 
Q 3106 25 2945 -6 
Q 2784 -38 2620 -53 
Q 2456 -69 2291 -69 
Q 1806 -69 1423 70 
Q 1041 209 775 473 
Q 509 738 368 1117 
Q 228 1497 228 1978 
Q 228 2475 378 2870 
Q 528 3266 803 3542 
Q 1078 3819 1467 3966 
Q 1856 4113 2334 4113 
Q 2597 4113 2812 4077 
Q 3028 4041 3189 3989 
Q 3350 3938 3456 3878 
Q 3563 3819 3605 3775 
Q 3647 3731 3665 3651 
Q 3684 3572 3684 3416 
z
" transform="scale(0.015625)"/>
      </defs>
      <use xlink:href="#Calibri-Bold-47"/>
      <use xlink:href="#Calibri-Bold-53" x="63.720703"/>
      <use xlink:href="#Calibri-Bold-4f" x="110.986328"/>
      <use xlink:href="#Calibri-Bold-2b" x="178.613281"/>
      <use xlink:href="#Calibri-Bold-57" x="228.417969"/>
      <use xlink:href="#Calibri-Bold-52" x="319.042969"/>
      <use xlink:href="#Calibri-Bold-4e" x="375.341797"/>
     </g>
    </g>
    <g id="line2d_33">
     <g>
      <use xlink:href="#m6ac65fd0cf" x="173.392472" y="12.64408" style="fill: #cc8899; fill-opacity: 0.9; stroke: #000000; stroke-opacity: 0.9; stroke-linejoin: miter"/>
     </g>
    </g>
    <g id="text_15">
     <!-- TS+WRN -->
     <g transform="translate(193.192472 16.49408) scale(0.11 -0.11)">
      <defs>
       <path id="Calibri-Bold-54" d="M 3131 3706 
Q 3131 3616 3123 3552 
Q 3116 3488 3100 3448 
Q 3084 3409 3061 3390 
Q 3038 3372 3009 3372 
L 1997 3372 
L 1997 113 
Q 1997 81 1976 56 
Q 1956 31 1909 15 
Q 1863 0 1783 -9 
Q 1703 -19 1584 -19 
Q 1466 -19 1386 -9 
Q 1306 0 1259 15 
Q 1213 31 1192 56 
Q 1172 81 1172 113 
L 1172 3372 
L 159 3372 
Q 128 3372 106 3390 
Q 84 3409 68 3448 
Q 53 3488 45 3552 
Q 38 3616 38 3706 
Q 38 3800 45 3865 
Q 53 3931 68 3970 
Q 84 4009 106 4026 
Q 128 4044 159 4044 
L 3009 4044 
Q 3038 4044 3061 4026 
Q 3084 4009 3100 3970 
Q 3116 3931 3123 3865 
Q 3131 3800 3131 3706 
z
" transform="scale(0.015625)"/>
      </defs>
      <use xlink:href="#Calibri-Bold-54"/>
      <use xlink:href="#Calibri-Bold-53" x="49.511719"/>
      <use xlink:href="#Calibri-Bold-2b" x="96.777344"/>
      <use xlink:href="#Calibri-Bold-57" x="146.582031"/>
      <use xlink:href="#Calibri-Bold-52" x="237.207031"/>
      <use xlink:href="#Calibri-Bold-4e" x="293.505859"/>
     </g>
    </g>
    <g id="line2d_34">
     <g>
      <use xlink:href="#ma84574c7dd" x="173.392472" y="27.793143" style="fill: #40e0d0; fill-opacity: 0.9; stroke: #000000; stroke-opacity: 0.9; stroke-linejoin: bevel"/>
     </g>
    </g>
    <g id="text_16">
     <!-- WSA+WRN -->
     <g transform="translate(193.192472 31.643143) scale(0.11 -0.11)">
      <defs>
       <path id="Calibri-Bold-41" d="M 3753 306 
Q 3791 194 3800 128 
Q 3809 63 3775 30 
Q 3741 -3 3653 -11 
Q 3566 -19 3413 -19 
Q 3253 -19 3164 -14 
Q 3075 -9 3028 5 
Q 2981 19 2962 44 
Q 2944 69 2931 109 
L 2659 922 
L 1141 922 
L 884 131 
Q 872 88 851 58 
Q 831 28 786 11 
Q 741 -6 658 -12 
Q 575 -19 441 -19 
Q 297 -19 215 -9 
Q 134 0 103 36 
Q 72 72 81 137 
Q 91 203 128 313 
L 1375 3900 
Q 1394 3953 1419 3986 
Q 1444 4019 1498 4036 
Q 1553 4053 1650 4058 
Q 1747 4063 1906 4063 
Q 2091 4063 2200 4058 
Q 2309 4053 2370 4036 
Q 2431 4019 2457 3984 
Q 2484 3950 2503 3891 
L 3753 306 
z
M 1897 3272 
L 1894 3272 
L 1322 1553 
L 2469 1553 
L 1897 3272 
z
" transform="scale(0.015625)"/>
      </defs>
      <use xlink:href="#Calibri-Bold-57"/>
      <use xlink:href="#Calibri-Bold-53" x="90.625"/>
      <use xlink:href="#Calibri-Bold-41" x="137.890625"/>
      <use xlink:href="#Calibri-Bold-2b" x="198.486328"/>
      <use xlink:href="#Calibri-Bold-57" x="248.291016"/>
      <use xlink:href="#Calibri-Bold-52" x="338.916016"/>
      <use xlink:href="#Calibri-Bold-4e" x="395.214844"/>
     </g>
    </g>
    <g id="line2d_35">
     <g>
      <use xlink:href="#m16594c9b5e" x="276.912784" y="12.64408" style="fill: #1e90ff; fill-opacity: 0.9; stroke: #000000; stroke-opacity: 0.9; stroke-linejoin: miter"/>
     </g>
    </g>
    <g id="text_17">
     <!-- Proposed TaWSA+WRN -->
     <g transform="translate(296.712784 16.49408) scale(0.11 -0.11)">
      <defs>
       <path id="Calibri-Bold-50" d="M 3209 2816 
Q 3209 2475 3103 2212 
Q 2997 1950 2794 1770 
Q 2591 1591 2295 1497 
Q 2000 1403 1600 1403 
L 1263 1403 
L 1263 113 
Q 1263 81 1242 56 
Q 1222 31 1175 15 
Q 1128 0 1050 -9 
Q 972 -19 850 -19 
Q 731 -19 651 -9 
Q 572 0 525 15 
Q 478 31 459 56 
Q 441 81 441 113 
L 441 3750 
Q 441 3897 517 3970 
Q 594 4044 719 4044 
L 1672 4044 
Q 1816 4044 1945 4033 
Q 2075 4022 2256 3986 
Q 2438 3950 2623 3853 
Q 2809 3756 2940 3607 
Q 3072 3459 3140 3261 
Q 3209 3063 3209 2816 
z
M 2350 2756 
Q 2350 2969 2275 3106 
Q 2200 3244 2090 3309 
Q 1981 3375 1861 3392 
Q 1741 3409 1613 3409 
L 1263 3409 
L 1263 2038 
L 1631 2038 
Q 1828 2038 1961 2091 
Q 2094 2144 2178 2239 
Q 2263 2334 2306 2467 
Q 2350 2600 2350 2756 
z
" transform="scale(0.015625)"/>
       <path id="Calibri-Bold-72" d="M 2184 2634 
Q 2184 2522 2178 2450 
Q 2172 2378 2159 2337 
Q 2147 2297 2126 2281 
Q 2106 2266 2075 2266 
Q 2050 2266 2019 2277 
Q 1988 2288 1948 2300 
Q 1909 2313 1862 2323 
Q 1816 2334 1759 2334 
Q 1694 2334 1628 2307 
Q 1563 2281 1492 2225 
Q 1422 2169 1345 2075 
Q 1269 1981 1181 1844 
L 1181 106 
Q 1181 75 1162 51 
Q 1144 28 1098 12 
Q 1053 -3 978 -11 
Q 903 -19 788 -19 
Q 672 -19 597 -11 
Q 522 -3 476 12 
Q 431 28 412 51 
Q 394 75 394 106 
L 394 2894 
Q 394 2925 409 2948 
Q 425 2972 465 2987 
Q 506 3003 570 3011 
Q 634 3019 731 3019 
Q 831 3019 897 3011 
Q 963 3003 998 2987 
Q 1034 2972 1050 2948 
Q 1066 2925 1066 2894 
L 1066 2547 
Q 1175 2703 1272 2804 
Q 1369 2906 1456 2965 
Q 1544 3025 1631 3048 
Q 1719 3072 1806 3072 
Q 1847 3072 1894 3067 
Q 1941 3063 1991 3052 
Q 2041 3041 2078 3027 
Q 2116 3013 2133 2997 
Q 2150 2981 2158 2962 
Q 2166 2944 2172 2911 
Q 2178 2878 2181 2812 
Q 2184 2747 2184 2634 
z
" transform="scale(0.015625)"/>
       <path id="Calibri-Bold-6f" d="M 3213 1528 
Q 3213 1172 3119 878 
Q 3025 584 2834 371 
Q 2644 159 2356 43 
Q 2069 -72 1684 -72 
Q 1313 -72 1038 31 
Q 763 134 581 331 
Q 400 528 312 815 
Q 225 1103 225 1472 
Q 225 1828 320 2123 
Q 416 2419 606 2630 
Q 797 2841 1083 2956 
Q 1369 3072 1753 3072 
Q 2128 3072 2403 2970 
Q 2678 2869 2858 2672 
Q 3038 2475 3125 2187 
Q 3213 1900 3213 1528 
z
M 2403 1497 
Q 2403 1703 2370 1876 
Q 2338 2050 2259 2178 
Q 2181 2306 2051 2378 
Q 1922 2450 1725 2450 
Q 1550 2450 1419 2386 
Q 1288 2322 1203 2198 
Q 1119 2075 1076 1901 
Q 1034 1728 1034 1506 
Q 1034 1300 1068 1126 
Q 1103 953 1179 825 
Q 1256 697 1387 626 
Q 1519 556 1713 556 
Q 1891 556 2022 620 
Q 2153 684 2237 806 
Q 2322 928 2362 1101 
Q 2403 1275 2403 1497 
z
" transform="scale(0.015625)"/>
       <path id="Calibri-Bold-70" d="M 3200 1541 
Q 3200 1169 3120 870 
Q 3041 572 2887 362 
Q 2734 153 2506 40 
Q 2278 -72 1984 -72 
Q 1863 -72 1761 -48 
Q 1659 -25 1564 23 
Q 1469 72 1375 144 
Q 1281 216 1181 313 
L 1181 -1000 
Q 1181 -1031 1162 -1056 
Q 1144 -1081 1098 -1098 
Q 1053 -1116 978 -1125 
Q 903 -1134 788 -1134 
Q 672 -1134 597 -1125 
Q 522 -1116 476 -1098 
Q 431 -1081 412 -1056 
Q 394 -1031 394 -1000 
L 394 2894 
Q 394 2925 409 2948 
Q 425 2972 464 2987 
Q 503 3003 567 3011 
Q 631 3019 728 3019 
Q 822 3019 886 3011 
Q 950 3003 989 2987 
Q 1028 2972 1043 2948 
Q 1059 2925 1059 2894 
L 1059 2566 
Q 1181 2691 1298 2786 
Q 1416 2881 1537 2945 
Q 1659 3009 1789 3040 
Q 1919 3072 2066 3072 
Q 2372 3072 2587 2951 
Q 2803 2831 2939 2622 
Q 3075 2413 3137 2134 
Q 3200 1856 3200 1541 
z
M 2381 1484 
Q 2381 1663 2354 1827 
Q 2328 1991 2264 2119 
Q 2200 2247 2095 2323 
Q 1991 2400 1834 2400 
Q 1756 2400 1679 2376 
Q 1603 2353 1523 2300 
Q 1444 2247 1359 2162 
Q 1275 2078 1181 1953 
L 1181 1034 
Q 1347 825 1497 711 
Q 1647 597 1809 597 
Q 1963 597 2070 675 
Q 2178 753 2247 879 
Q 2316 1006 2348 1165 
Q 2381 1325 2381 1484 
z
" transform="scale(0.015625)"/>
       <path id="Calibri-Bold-73" d="M 2356 894 
Q 2356 656 2267 475 
Q 2178 294 2015 172 
Q 1853 50 1631 -11 
Q 1409 -72 1150 -72 
Q 994 -72 851 -48 
Q 709 -25 596 11 
Q 484 47 409 84 
Q 334 122 300 155 
Q 266 188 247 258 
Q 228 328 228 466 
Q 228 556 234 611 
Q 241 666 253 698 
Q 266 731 284 742 
Q 303 753 331 753 
Q 366 753 433 714 
Q 500 675 600 628 
Q 700 581 833 540 
Q 966 500 1134 500 
Q 1241 500 1323 522 
Q 1406 544 1467 584 
Q 1528 625 1559 687 
Q 1591 750 1591 831 
Q 1591 925 1533 992 
Q 1475 1059 1379 1109 
Q 1284 1159 1164 1203 
Q 1044 1247 917 1300 
Q 791 1353 670 1422 
Q 550 1491 454 1591 
Q 359 1691 301 1831 
Q 244 1972 244 2169 
Q 244 2369 322 2536 
Q 400 2703 547 2822 
Q 694 2941 905 3006 
Q 1116 3072 1378 3072 
Q 1509 3072 1632 3053 
Q 1756 3034 1856 3006 
Q 1956 2978 2025 2945 
Q 2094 2913 2123 2889 
Q 2153 2866 2165 2842 
Q 2178 2819 2184 2786 
Q 2191 2753 2195 2704 
Q 2200 2656 2200 2584 
Q 2200 2500 2195 2447 
Q 2191 2394 2180 2362 
Q 2169 2331 2150 2320 
Q 2131 2309 2106 2309 
Q 2078 2309 2018 2342 
Q 1959 2375 1870 2412 
Q 1781 2450 1664 2483 
Q 1547 2516 1397 2516 
Q 1291 2516 1212 2494 
Q 1134 2472 1084 2431 
Q 1034 2391 1009 2336 
Q 984 2281 984 2219 
Q 984 2122 1043 2056 
Q 1103 1991 1200 1941 
Q 1297 1891 1420 1847 
Q 1544 1803 1670 1751 
Q 1797 1700 1920 1631 
Q 2044 1563 2141 1463 
Q 2238 1363 2297 1223 
Q 2356 1084 2356 894 
z
" transform="scale(0.015625)"/>
       <path id="Calibri-Bold-65" d="M 2969 1581 
Q 2969 1438 2905 1369 
Q 2841 1300 2728 1300 
L 1031 1300 
Q 1031 1122 1073 976 
Q 1116 831 1208 729 
Q 1300 628 1445 575 
Q 1591 522 1794 522 
Q 2000 522 2156 551 
Q 2313 581 2427 617 
Q 2541 653 2616 683 
Q 2691 713 2738 713 
Q 2766 713 2784 702 
Q 2803 691 2815 662 
Q 2828 634 2833 582 
Q 2838 531 2838 453 
Q 2838 384 2834 336 
Q 2831 288 2825 253 
Q 2819 219 2806 195 
Q 2794 172 2773 150 
Q 2753 128 2662 90 
Q 2572 53 2431 17 
Q 2291 -19 2109 -45 
Q 1928 -72 1722 -72 
Q 1350 -72 1070 22 
Q 791 116 603 306 
Q 416 497 323 787 
Q 231 1078 231 1469 
Q 231 1841 328 2139 
Q 425 2438 609 2645 
Q 794 2853 1058 2962 
Q 1322 3072 1653 3072 
Q 2003 3072 2251 2969 
Q 2500 2866 2659 2683 
Q 2819 2500 2894 2250 
Q 2969 2000 2969 1706 
L 2969 1581 
z
M 2206 1806 
Q 2216 2138 2073 2327 
Q 1931 2516 1634 2516 
Q 1484 2516 1373 2459 
Q 1263 2403 1189 2308 
Q 1116 2213 1077 2083 
Q 1038 1953 1031 1806 
L 2206 1806 
z
" transform="scale(0.015625)"/>
       <path id="Calibri-Bold-64" d="M 3038 106 
Q 3038 72 3022 48 
Q 3006 25 2968 9 
Q 2931 -6 2867 -12 
Q 2803 -19 2709 -19 
Q 2609 -19 2546 -12 
Q 2484 -6 2445 9 
Q 2406 25 2389 48 
Q 2372 72 2372 106 
L 2372 416 
Q 2156 184 1920 56 
Q 1684 -72 1397 -72 
Q 1078 -72 858 51 
Q 638 175 498 384 
Q 359 594 296 873 
Q 234 1153 234 1463 
Q 234 1834 314 2131 
Q 394 2428 547 2637 
Q 700 2847 928 2959 
Q 1156 3072 1453 3072 
Q 1688 3072 1878 2976 
Q 2069 2881 2256 2697 
L 2256 4206 
Q 2256 4238 2273 4263 
Q 2291 4288 2336 4305 
Q 2381 4322 2456 4331 
Q 2531 4341 2647 4341 
Q 2763 4341 2838 4331 
Q 2913 4322 2956 4305 
Q 3000 4288 3019 4263 
Q 3038 4238 3038 4206 
L 3038 106 
z
M 2256 1969 
Q 2088 2181 1933 2293 
Q 1778 2406 1609 2406 
Q 1456 2406 1345 2329 
Q 1234 2253 1167 2125 
Q 1100 1997 1067 1839 
Q 1034 1681 1034 1516 
Q 1034 1341 1062 1175 
Q 1091 1009 1155 879 
Q 1219 750 1325 672 
Q 1431 594 1594 594 
Q 1675 594 1751 617 
Q 1828 641 1908 694 
Q 1988 747 2072 833 
Q 2156 919 2256 1044 
L 2256 1969 
z
" transform="scale(0.015625)"/>
       <path id="Calibri-Bold-20" transform="scale(0.015625)"/>
       <path id="Calibri-Bold-61" d="M 2769 97 
Q 2769 53 2737 28 
Q 2706 3 2639 -8 
Q 2572 -19 2441 -19 
Q 2300 -19 2236 -8 
Q 2172 3 2145 28 
Q 2119 53 2119 97 
L 2119 319 
Q 1947 134 1726 31 
Q 1506 -72 1238 -72 
Q 1016 -72 830 -14 
Q 644 44 508 158 
Q 372 272 297 440 
Q 222 609 222 834 
Q 222 1078 317 1258 
Q 413 1438 602 1555 
Q 791 1672 1072 1728 
Q 1353 1784 1725 1784 
L 1997 1784 
L 1997 1953 
Q 1997 2084 1970 2182 
Q 1944 2281 1883 2347 
Q 1822 2413 1720 2444 
Q 1619 2475 1469 2475 
Q 1272 2475 1117 2431 
Q 963 2388 844 2334 
Q 725 2281 645 2237 
Q 566 2194 516 2194 
Q 481 2194 454 2216 
Q 428 2238 411 2278 
Q 394 2319 384 2378 
Q 375 2438 375 2509 
Q 375 2606 390 2662 
Q 406 2719 450 2764 
Q 494 2809 603 2864 
Q 713 2919 859 2966 
Q 1006 3013 1179 3042 
Q 1353 3072 1538 3072 
Q 1866 3072 2098 3008 
Q 2331 2944 2481 2811 
Q 2631 2678 2700 2468 
Q 2769 2259 2769 1972 
L 2769 97 
z
M 1997 1291 
L 1697 1291 
Q 1506 1291 1372 1262 
Q 1238 1234 1153 1178 
Q 1069 1122 1030 1042 
Q 991 963 991 859 
Q 991 684 1102 584 
Q 1213 484 1409 484 
Q 1575 484 1714 568 
Q 1853 653 1997 816 
L 1997 1291 
z
" transform="scale(0.015625)"/>
      </defs>
      <use xlink:href="#Calibri-Bold-50"/>
      <use xlink:href="#Calibri-Bold-72" x="53.222656"/>
      <use xlink:href="#Calibri-Bold-6f" x="88.769531"/>
      <use xlink:href="#Calibri-Bold-70" x="142.529297"/>
      <use xlink:href="#Calibri-Bold-6f" x="196.191406"/>
      <use xlink:href="#Calibri-Bold-73" x="249.951172"/>
      <use xlink:href="#Calibri-Bold-65" x="289.84375"/>
      <use xlink:href="#Calibri-Bold-64" x="340.185547"/>
      <use xlink:href="#Calibri-Bold-20" x="393.847656"/>
      <use xlink:href="#Calibri-Bold-54" x="416.455078"/>
      <use xlink:href="#Calibri-Bold-61" x="465.966797"/>
      <use xlink:href="#Calibri-Bold-57" x="515.332031"/>
      <use xlink:href="#Calibri-Bold-53" x="605.957031"/>
      <use xlink:href="#Calibri-Bold-41" x="653.222656"/>
      <use xlink:href="#Calibri-Bold-2b" x="713.818359"/>
      <use xlink:href="#Calibri-Bold-57" x="763.623047"/>
      <use xlink:href="#Calibri-Bold-52" x="854.248047"/>
      <use xlink:href="#Calibri-Bold-4e" x="910.546875"/>
     </g>
    </g>
   </g>
  </g>
 </g>
 <defs>
  <clipPath id="p821d1c3e03">
   <rect x="57.6" y="41.472" width="357.12" height="266.112"/>
  </clipPath>
 </defs>
</svg>
